%TF.GenerationSoftware,KiCad,Pcbnew,8.0.5*%
%TF.CreationDate,2024-12-31T14:00:23+11:00*%
%TF.ProjectId,Combined_Fabrication,436f6d62-696e-4656-945f-466162726963,rev?*%
%TF.SameCoordinates,Original*%
%TF.FileFunction,Legend,Bot*%
%TF.FilePolarity,Positive*%
%FSLAX46Y46*%
G04 Gerber Fmt 4.6, Leading zero omitted, Abs format (unit mm)*
G04 Created by KiCad (PCBNEW 8.0.5) date 2024-12-31 14:00:23*
%MOMM*%
%LPD*%
G01*
G04 APERTURE LIST*
%ADD10C,0.300000*%
%ADD11C,0.250000*%
%ADD12C,0.150000*%
%ADD13C,0.000000*%
%ADD14C,0.050000*%
%ADD15C,0.120000*%
%ADD16C,0.100000*%
%ADD17C,0.152400*%
%ADD18C,0.508000*%
%ADD19C,0.127000*%
%ADD20C,0.200000*%
G04 APERTURE END LIST*
D10*
X180249999Y-55179129D02*
X181249999Y-55179129D01*
X181249999Y-55179129D02*
X180607142Y-53679129D01*
X181035714Y-52764213D02*
X180749999Y-52764213D01*
X180749999Y-52764213D02*
X180607142Y-52692784D01*
X180607142Y-52692784D02*
X180535714Y-52621356D01*
X180535714Y-52621356D02*
X180392856Y-52407070D01*
X180392856Y-52407070D02*
X180321428Y-52121356D01*
X180321428Y-52121356D02*
X180321428Y-51549927D01*
X180321428Y-51549927D02*
X180392856Y-51407070D01*
X180392856Y-51407070D02*
X180464285Y-51335642D01*
X180464285Y-51335642D02*
X180607142Y-51264213D01*
X180607142Y-51264213D02*
X180892856Y-51264213D01*
X180892856Y-51264213D02*
X181035714Y-51335642D01*
X181035714Y-51335642D02*
X181107142Y-51407070D01*
X181107142Y-51407070D02*
X181178571Y-51549927D01*
X181178571Y-51549927D02*
X181178571Y-51907070D01*
X181178571Y-51907070D02*
X181107142Y-52049927D01*
X181107142Y-52049927D02*
X181035714Y-52121356D01*
X181035714Y-52121356D02*
X180892856Y-52192784D01*
X180892856Y-52192784D02*
X180607142Y-52192784D01*
X180607142Y-52192784D02*
X180464285Y-52121356D01*
X180464285Y-52121356D02*
X180392856Y-52049927D01*
X180392856Y-52049927D02*
X180321428Y-51907070D01*
D11*
X170961903Y-57150382D02*
X171580950Y-57150382D01*
X171580950Y-57150382D02*
X171247617Y-56769430D01*
X171247617Y-56769430D02*
X171390474Y-56769430D01*
X171390474Y-56769430D02*
X171485712Y-56721811D01*
X171485712Y-56721811D02*
X171533331Y-56674192D01*
X171533331Y-56674192D02*
X171580950Y-56578954D01*
X171580950Y-56578954D02*
X171580950Y-56340859D01*
X171580950Y-56340859D02*
X171533331Y-56245621D01*
X171533331Y-56245621D02*
X171485712Y-56198002D01*
X171485712Y-56198002D02*
X171390474Y-56150382D01*
X171390474Y-56150382D02*
X171104760Y-56150382D01*
X171104760Y-56150382D02*
X171009522Y-56198002D01*
X171009522Y-56198002D02*
X170961903Y-56245621D01*
X171866665Y-57150382D02*
X172199998Y-56150382D01*
X172199998Y-56150382D02*
X172533331Y-57150382D01*
X172771427Y-57150382D02*
X173390474Y-57150382D01*
X173390474Y-57150382D02*
X173057141Y-56769430D01*
X173057141Y-56769430D02*
X173199998Y-56769430D01*
X173199998Y-56769430D02*
X173295236Y-56721811D01*
X173295236Y-56721811D02*
X173342855Y-56674192D01*
X173342855Y-56674192D02*
X173390474Y-56578954D01*
X173390474Y-56578954D02*
X173390474Y-56340859D01*
X173390474Y-56340859D02*
X173342855Y-56245621D01*
X173342855Y-56245621D02*
X173295236Y-56198002D01*
X173295236Y-56198002D02*
X173199998Y-56150382D01*
X173199998Y-56150382D02*
X172914284Y-56150382D01*
X172914284Y-56150382D02*
X172819046Y-56198002D01*
X172819046Y-56198002D02*
X172771427Y-56245621D01*
X176538094Y-57102762D02*
X176442856Y-57150381D01*
X176442856Y-57150381D02*
X176299999Y-57150381D01*
X176299999Y-57150381D02*
X176157142Y-57102762D01*
X176157142Y-57102762D02*
X176061904Y-57007524D01*
X176061904Y-57007524D02*
X176014285Y-56912286D01*
X176014285Y-56912286D02*
X175966666Y-56721810D01*
X175966666Y-56721810D02*
X175966666Y-56578953D01*
X175966666Y-56578953D02*
X176014285Y-56388477D01*
X176014285Y-56388477D02*
X176061904Y-56293239D01*
X176061904Y-56293239D02*
X176157142Y-56198001D01*
X176157142Y-56198001D02*
X176299999Y-56150381D01*
X176299999Y-56150381D02*
X176395237Y-56150381D01*
X176395237Y-56150381D02*
X176538094Y-56198001D01*
X176538094Y-56198001D02*
X176585713Y-56245620D01*
X176585713Y-56245620D02*
X176585713Y-56578953D01*
X176585713Y-56578953D02*
X176395237Y-56578953D01*
X177014285Y-56150381D02*
X177014285Y-57150381D01*
X177014285Y-57150381D02*
X177585713Y-56150381D01*
X177585713Y-56150381D02*
X177585713Y-57150381D01*
X178061904Y-56150381D02*
X178061904Y-57150381D01*
X178061904Y-57150381D02*
X178299999Y-57150381D01*
X178299999Y-57150381D02*
X178442856Y-57102762D01*
X178442856Y-57102762D02*
X178538094Y-57007524D01*
X178538094Y-57007524D02*
X178585713Y-56912286D01*
X178585713Y-56912286D02*
X178633332Y-56721810D01*
X178633332Y-56721810D02*
X178633332Y-56578953D01*
X178633332Y-56578953D02*
X178585713Y-56388477D01*
X178585713Y-56388477D02*
X178538094Y-56293239D01*
X178538094Y-56293239D02*
X178442856Y-56198001D01*
X178442856Y-56198001D02*
X178299999Y-56150381D01*
X178299999Y-56150381D02*
X178061904Y-56150381D01*
D10*
X179657143Y-55179132D02*
X178942857Y-55179132D01*
X178942857Y-55179132D02*
X178871429Y-54464846D01*
X178871429Y-54464846D02*
X178942857Y-54536275D01*
X178942857Y-54536275D02*
X179085715Y-54607703D01*
X179085715Y-54607703D02*
X179442857Y-54607703D01*
X179442857Y-54607703D02*
X179585715Y-54536275D01*
X179585715Y-54536275D02*
X179657143Y-54464846D01*
X179657143Y-54464846D02*
X179728572Y-54321989D01*
X179728572Y-54321989D02*
X179728572Y-53964846D01*
X179728572Y-53964846D02*
X179657143Y-53821989D01*
X179657143Y-53821989D02*
X179585715Y-53750561D01*
X179585715Y-53750561D02*
X179442857Y-53679132D01*
X179442857Y-53679132D02*
X179085715Y-53679132D01*
X179085715Y-53679132D02*
X178942857Y-53750561D01*
X178942857Y-53750561D02*
X178871429Y-53821989D01*
X179585715Y-52264216D02*
X179585715Y-51264216D01*
X179228572Y-52835645D02*
X178871429Y-51764216D01*
X178871429Y-51764216D02*
X179800000Y-51764216D01*
D11*
X128893044Y-110235381D02*
X129083520Y-110235381D01*
X129083520Y-110235381D02*
X129178758Y-110187762D01*
X129178758Y-110187762D02*
X129273996Y-110092524D01*
X129273996Y-110092524D02*
X129321615Y-109902048D01*
X129321615Y-109902048D02*
X129321615Y-109568715D01*
X129321615Y-109568715D02*
X129273996Y-109378239D01*
X129273996Y-109378239D02*
X129178758Y-109283001D01*
X129178758Y-109283001D02*
X129083520Y-109235381D01*
X129083520Y-109235381D02*
X128893044Y-109235381D01*
X128893044Y-109235381D02*
X128797806Y-109283001D01*
X128797806Y-109283001D02*
X128702568Y-109378239D01*
X128702568Y-109378239D02*
X128654949Y-109568715D01*
X128654949Y-109568715D02*
X128654949Y-109902048D01*
X128654949Y-109902048D02*
X128702568Y-110092524D01*
X128702568Y-110092524D02*
X128797806Y-110187762D01*
X128797806Y-110187762D02*
X128893044Y-110235381D01*
X129750187Y-109759191D02*
X130083520Y-109759191D01*
X130226377Y-109235381D02*
X129750187Y-109235381D01*
X129750187Y-109235381D02*
X129750187Y-110235381D01*
X129750187Y-110235381D02*
X130226377Y-110235381D01*
X122154949Y-109383000D02*
X122297806Y-109335380D01*
X122297806Y-109335380D02*
X122535901Y-109335380D01*
X122535901Y-109335380D02*
X122631139Y-109383000D01*
X122631139Y-109383000D02*
X122678758Y-109430619D01*
X122678758Y-109430619D02*
X122726377Y-109525857D01*
X122726377Y-109525857D02*
X122726377Y-109621095D01*
X122726377Y-109621095D02*
X122678758Y-109716333D01*
X122678758Y-109716333D02*
X122631139Y-109763952D01*
X122631139Y-109763952D02*
X122535901Y-109811571D01*
X122535901Y-109811571D02*
X122345425Y-109859190D01*
X122345425Y-109859190D02*
X122250187Y-109906809D01*
X122250187Y-109906809D02*
X122202568Y-109954428D01*
X122202568Y-109954428D02*
X122154949Y-110049666D01*
X122154949Y-110049666D02*
X122154949Y-110144904D01*
X122154949Y-110144904D02*
X122202568Y-110240142D01*
X122202568Y-110240142D02*
X122250187Y-110287761D01*
X122250187Y-110287761D02*
X122345425Y-110335380D01*
X122345425Y-110335380D02*
X122583520Y-110335380D01*
X122583520Y-110335380D02*
X122726377Y-110287761D01*
X123535901Y-109383000D02*
X123440663Y-109335380D01*
X123440663Y-109335380D02*
X123250187Y-109335380D01*
X123250187Y-109335380D02*
X123154949Y-109383000D01*
X123154949Y-109383000D02*
X123107330Y-109478238D01*
X123107330Y-109478238D02*
X123107330Y-109859190D01*
X123107330Y-109859190D02*
X123154949Y-109954428D01*
X123154949Y-109954428D02*
X123250187Y-110002047D01*
X123250187Y-110002047D02*
X123440663Y-110002047D01*
X123440663Y-110002047D02*
X123535901Y-109954428D01*
X123535901Y-109954428D02*
X123583520Y-109859190D01*
X123583520Y-109859190D02*
X123583520Y-109763952D01*
X123583520Y-109763952D02*
X123107330Y-109668714D01*
X124154949Y-109335380D02*
X124059711Y-109383000D01*
X124059711Y-109383000D02*
X124012092Y-109478238D01*
X124012092Y-109478238D02*
X124012092Y-110335380D01*
D12*
X126933331Y-106454820D02*
X126314284Y-106454820D01*
X126314284Y-106454820D02*
X126647617Y-106835772D01*
X126647617Y-106835772D02*
X126504760Y-106835772D01*
X126504760Y-106835772D02*
X126409522Y-106883391D01*
X126409522Y-106883391D02*
X126361903Y-106931010D01*
X126361903Y-106931010D02*
X126314284Y-107026248D01*
X126314284Y-107026248D02*
X126314284Y-107264343D01*
X126314284Y-107264343D02*
X126361903Y-107359581D01*
X126361903Y-107359581D02*
X126409522Y-107407201D01*
X126409522Y-107407201D02*
X126504760Y-107454820D01*
X126504760Y-107454820D02*
X126790474Y-107454820D01*
X126790474Y-107454820D02*
X126885712Y-107407201D01*
X126885712Y-107407201D02*
X126933331Y-107359581D01*
X131514286Y-107454820D02*
X132085714Y-107454820D01*
X131800000Y-107454820D02*
X131800000Y-106454820D01*
X131800000Y-106454820D02*
X131895238Y-106597677D01*
X131895238Y-106597677D02*
X131990476Y-106692915D01*
X131990476Y-106692915D02*
X132085714Y-106740534D01*
X125514286Y-107454820D02*
X126085714Y-107454820D01*
X125800000Y-107454820D02*
X125800000Y-106454820D01*
X125800000Y-106454820D02*
X125895238Y-106597677D01*
X125895238Y-106597677D02*
X125990476Y-106692915D01*
X125990476Y-106692915D02*
X126085714Y-106740534D01*
X120933331Y-106454820D02*
X120314284Y-106454820D01*
X120314284Y-106454820D02*
X120647617Y-106835772D01*
X120647617Y-106835772D02*
X120504760Y-106835772D01*
X120504760Y-106835772D02*
X120409522Y-106883391D01*
X120409522Y-106883391D02*
X120361903Y-106931010D01*
X120361903Y-106931010D02*
X120314284Y-107026248D01*
X120314284Y-107026248D02*
X120314284Y-107264343D01*
X120314284Y-107264343D02*
X120361903Y-107359581D01*
X120361903Y-107359581D02*
X120409522Y-107407201D01*
X120409522Y-107407201D02*
X120504760Y-107454820D01*
X120504760Y-107454820D02*
X120790474Y-107454820D01*
X120790474Y-107454820D02*
X120885712Y-107407201D01*
X120885712Y-107407201D02*
X120933331Y-107359581D01*
D13*
%TO.C,REF\u002A\u002A*%
G36*
X188132431Y-110666843D02*
G01*
X188096804Y-110885250D01*
X188052071Y-111040098D01*
X188037626Y-111072571D01*
X187970080Y-111185354D01*
X187874708Y-111288613D01*
X187743211Y-111387166D01*
X187567290Y-111485828D01*
X187338647Y-111589417D01*
X187048984Y-111702748D01*
X186690000Y-111830639D01*
X186588661Y-111865655D01*
X186244290Y-111985724D01*
X185961605Y-112086549D01*
X185729207Y-112172547D01*
X185535700Y-112248135D01*
X185369686Y-112317729D01*
X185219766Y-112385745D01*
X185074543Y-112456599D01*
X184883693Y-112556805D01*
X184318753Y-112901761D01*
X183746278Y-113322154D01*
X183170000Y-113815320D01*
X182965217Y-113996455D01*
X182488796Y-114365691D01*
X182011180Y-114660570D01*
X181525111Y-114884675D01*
X181023330Y-115041593D01*
X180498578Y-115134909D01*
X180381838Y-115147130D01*
X179888075Y-115165026D01*
X179401972Y-115123407D01*
X178895393Y-115020263D01*
X178451810Y-114878201D01*
X177945636Y-114642970D01*
X177470267Y-114342522D01*
X177033132Y-113983882D01*
X176641660Y-113574075D01*
X176303280Y-113120125D01*
X176025421Y-112629059D01*
X175815513Y-112107900D01*
X175791681Y-112033547D01*
X175716308Y-111775035D01*
X175664691Y-111542772D01*
X175632924Y-111310297D01*
X175617097Y-111051154D01*
X175613302Y-110738884D01*
X175616305Y-110650000D01*
X178250000Y-110650000D01*
X178250000Y-110850000D01*
X178275000Y-111040599D01*
X178300000Y-111184789D01*
X178339485Y-111306258D01*
X178383224Y-111428967D01*
X178531211Y-111714155D01*
X178757805Y-111994403D01*
X179039147Y-112222633D01*
X179366238Y-112390044D01*
X179501036Y-112431590D01*
X179755091Y-112474528D01*
X180030270Y-112488235D01*
X180295096Y-112471777D01*
X180518093Y-112424221D01*
X180763936Y-112327029D01*
X181036894Y-112164601D01*
X181277665Y-111947933D01*
X181494047Y-111662682D01*
X181647062Y-111338985D01*
X181730182Y-110993093D01*
X181741968Y-110635841D01*
X181680978Y-110278065D01*
X181545774Y-109930598D01*
X181505031Y-109859933D01*
X181377709Y-109687461D01*
X181217615Y-109511355D01*
X181048316Y-109356305D01*
X180893374Y-109247005D01*
X180861595Y-109229680D01*
X180529663Y-109094961D01*
X180181841Y-109029446D01*
X179830337Y-109030897D01*
X179487356Y-109097076D01*
X179165105Y-109225746D01*
X178875789Y-109414670D01*
X178631615Y-109661610D01*
X178551215Y-109769257D01*
X178426897Y-109979368D01*
X178346613Y-110199590D01*
X178275000Y-110452051D01*
X178250000Y-110650000D01*
X175616305Y-110650000D01*
X175627092Y-110330783D01*
X175671417Y-109952805D01*
X175751106Y-109594715D01*
X175871017Y-109228036D01*
X176030054Y-108860567D01*
X176308584Y-108379143D01*
X176649575Y-107929647D01*
X177043828Y-107521311D01*
X177482143Y-107163368D01*
X177955320Y-106865050D01*
X178454161Y-106635589D01*
X178636846Y-106570542D01*
X178854407Y-106504895D01*
X179078952Y-106452000D01*
X179319574Y-106411108D01*
X179585363Y-106381473D01*
X179885410Y-106362345D01*
X180228806Y-106352978D01*
X180624643Y-106352622D01*
X181082011Y-106360531D01*
X181610000Y-106375956D01*
X181899319Y-106385812D01*
X182410507Y-106404521D01*
X182854655Y-106423087D01*
X183240337Y-106442311D01*
X183576128Y-106462993D01*
X183870603Y-106485934D01*
X184132337Y-106511935D01*
X184369904Y-106541797D01*
X184591879Y-106576319D01*
X184806837Y-106616304D01*
X185023353Y-106662551D01*
X185250000Y-106715862D01*
X185629465Y-106815735D01*
X186204838Y-107002070D01*
X186704649Y-107212448D01*
X187129486Y-107447266D01*
X187479935Y-107706921D01*
X187756584Y-107991811D01*
X187960019Y-108302333D01*
X188090827Y-108638884D01*
X188105223Y-108698232D01*
X188140547Y-108914924D01*
X188164963Y-109179713D01*
X188178728Y-109476649D01*
X188182100Y-109789781D01*
X188175336Y-110103158D01*
X188158694Y-110400829D01*
X188135492Y-110635841D01*
X188132431Y-110666843D01*
G37*
G36*
X175094565Y-109136590D02*
G01*
X175121040Y-109185723D01*
X175123426Y-109289012D01*
X175101528Y-109453769D01*
X175055152Y-109687312D01*
X175038913Y-109767547D01*
X174987380Y-110132694D01*
X174960821Y-110531605D01*
X174960668Y-110929889D01*
X174988351Y-111293156D01*
X175000030Y-111380112D01*
X175126018Y-111996793D01*
X175322313Y-112587303D01*
X175585149Y-113144630D01*
X175910765Y-113661762D01*
X176295394Y-114131687D01*
X176735273Y-114547393D01*
X176824432Y-114619639D01*
X177106583Y-114830330D01*
X177395223Y-115022127D01*
X177669859Y-115181959D01*
X177910000Y-115296755D01*
X177925638Y-115303140D01*
X178084803Y-115372796D01*
X178179410Y-115427155D01*
X178220386Y-115474187D01*
X178218659Y-115521860D01*
X178206665Y-115539897D01*
X178122747Y-115580342D01*
X177962479Y-115606983D01*
X177947560Y-115608487D01*
X177528811Y-115655697D01*
X177124684Y-115712101D01*
X176712480Y-115781510D01*
X176269498Y-115867736D01*
X175773040Y-115974589D01*
X175629449Y-116006808D01*
X175084375Y-116133291D01*
X174602223Y-116253495D01*
X174169959Y-116371842D01*
X173774547Y-116492756D01*
X173402954Y-116620658D01*
X173042144Y-116759970D01*
X172679082Y-116915115D01*
X172300733Y-117090515D01*
X171894062Y-117290593D01*
X171633244Y-117419970D01*
X171402298Y-117528914D01*
X171224816Y-117604019D01*
X171092221Y-117648083D01*
X170995938Y-117663903D01*
X170927390Y-117654276D01*
X170878000Y-117622000D01*
X170853214Y-117580821D01*
X170829707Y-117457406D01*
X170829294Y-117279701D01*
X170850020Y-117061226D01*
X170889932Y-116815498D01*
X170947075Y-116556039D01*
X171019495Y-116296366D01*
X171105238Y-116050000D01*
X171119302Y-116014301D01*
X171253768Y-115696669D01*
X171426213Y-115322128D01*
X171631672Y-114899718D01*
X171865182Y-114438479D01*
X172121780Y-113947451D01*
X172396499Y-113435674D01*
X172684378Y-112912189D01*
X172980451Y-112386035D01*
X173279756Y-111866252D01*
X173577327Y-111361880D01*
X173868200Y-110881960D01*
X174147413Y-110435531D01*
X174410000Y-110031634D01*
X174564293Y-109802560D01*
X174716974Y-109581863D01*
X174849766Y-109396225D01*
X174956789Y-109253678D01*
X175032161Y-109162258D01*
X175070000Y-109130000D01*
X175094565Y-109136590D01*
G37*
D14*
%TO.C,U4*%
X178099999Y-60900001D02*
X174999999Y-60900001D01*
X174999999Y-59200001D01*
X178099999Y-59200001D01*
X178099999Y-60900001D01*
D15*
%TO.C,J5*%
X181344998Y-50545002D02*
X182674998Y-50545002D01*
X181344998Y-51875002D02*
X181344998Y-50545002D01*
X181344998Y-53145003D02*
X183944998Y-53145002D01*
X181344998Y-55745002D02*
X181344998Y-53145003D01*
X183944998Y-53145002D02*
X183944999Y-50545002D01*
X189084997Y-50545002D02*
X183944999Y-50545002D01*
X189084998Y-55745002D02*
X181344998Y-55745002D01*
X189084998Y-55745002D02*
X189084997Y-50545002D01*
%TO.C,JP1*%
X176349998Y-70600004D02*
X176349998Y-71200004D01*
X176349998Y-70600004D02*
X176649998Y-70900004D01*
X176349998Y-71200004D02*
X176649998Y-70900004D01*
X176849998Y-71100004D02*
X176849998Y-68300004D01*
X177549998Y-67650004D02*
X178149998Y-67650004D01*
X178149998Y-71750004D02*
X177549998Y-71750004D01*
X178849998Y-68300004D02*
X178849998Y-71100004D01*
X176849998Y-68350004D02*
G75*
G02*
X177549998Y-67650004I700000J0D01*
G01*
X177549998Y-71750004D02*
G75*
G02*
X176849998Y-71050004I-1J699999D01*
G01*
X178149998Y-67650004D02*
G75*
G02*
X178849998Y-68350004I0J-700000D01*
G01*
X178849998Y-71050004D02*
G75*
G02*
X178149998Y-71750004I-699999J-1D01*
G01*
%TO.C,C9*%
X181490000Y-61653734D02*
X181490000Y-61946268D01*
X182510000Y-61653734D02*
X182510000Y-61946268D01*
D16*
%TO.C,BootSW1*%
X188450000Y-82150001D02*
X184850000Y-82150001D01*
X184850000Y-78750001D01*
X188450000Y-78750001D01*
X188450000Y-82150001D01*
D15*
%TO.C,C13*%
X179990000Y-61859419D02*
X179990000Y-62140581D01*
X181010000Y-61859419D02*
X181010000Y-62140581D01*
%TO.C,R2*%
X187487257Y-77677501D02*
X187012741Y-77677501D01*
X187487257Y-78722501D02*
X187012741Y-78722501D01*
D17*
%TO.C,J3*%
X183017100Y-57370700D02*
X183713553Y-57370700D01*
X183017100Y-57942860D02*
X183017100Y-57370700D01*
X183017100Y-67575771D02*
X183017101Y-59548140D01*
X186638634Y-57370700D02*
X188782900Y-57370700D01*
X188782900Y-57370700D02*
X188782900Y-69029300D01*
X188782900Y-69029300D02*
X187078632Y-69029300D01*
D18*
X187714899Y-56735700D02*
G75*
G02*
X186952899Y-56735700I-381000J0D01*
G01*
X186952899Y-56735700D02*
G75*
G02*
X187714899Y-56735700I381000J0D01*
G01*
D15*
%TO.C,J1*%
X170572499Y-69015002D02*
X176192499Y-69015002D01*
X170572499Y-75885002D02*
X170572499Y-69015002D01*
X171182498Y-71825002D02*
X171219999Y-71675002D01*
X171182498Y-74325002D02*
X171219999Y-74175002D01*
X171182499Y-70575002D02*
X171219998Y-70425002D01*
X171182499Y-73075002D02*
X171219998Y-72925002D01*
X171219998Y-70425002D02*
X172682499Y-70425002D01*
X171219998Y-70725002D02*
X171182499Y-70575002D01*
X171219998Y-72925002D02*
X172682499Y-72925002D01*
X171219998Y-73225002D02*
X171182499Y-73075002D01*
X171219999Y-71675002D02*
X172682500Y-71675002D01*
X171219999Y-71975002D02*
X171182498Y-71825002D01*
X171219999Y-74175002D02*
X172682499Y-74175001D01*
X171219999Y-74475002D02*
X171182498Y-74325002D01*
X172682499Y-70725002D02*
X171219998Y-70725002D01*
X172682499Y-73225002D02*
X171219998Y-73225002D01*
X172682499Y-74475001D02*
X171219999Y-74475002D01*
X172682499Y-75335002D02*
X172682499Y-69565002D01*
X172682500Y-71975002D02*
X171219999Y-71975002D01*
X174182499Y-75335002D02*
X174182499Y-69565002D01*
X176142499Y-71575002D02*
X176192499Y-71575002D01*
X176142499Y-72825002D02*
X176192499Y-72825002D01*
X176142499Y-74075002D02*
X176192499Y-74075002D01*
X176142499Y-74575003D02*
X176192499Y-74575002D01*
X176192499Y-69015002D02*
X176192499Y-70325002D01*
X176192499Y-69565002D02*
X170572499Y-69565002D01*
X176192499Y-70325002D02*
X176142499Y-70325002D01*
X176192499Y-70825002D02*
X176142499Y-70825002D01*
X176192499Y-71575002D02*
X176192499Y-70825002D01*
X176192499Y-72075002D02*
X176142499Y-72075002D01*
X176192499Y-72825002D02*
X176192499Y-72075002D01*
X176192499Y-73325002D02*
X176142499Y-73325002D01*
X176192499Y-74075002D02*
X176192499Y-73325002D01*
X176192499Y-74575002D02*
X176192499Y-75885002D01*
X176192499Y-75335002D02*
X170572499Y-75335002D01*
X176192499Y-75885002D02*
X170572499Y-75885002D01*
X176682499Y-70575002D02*
X177282499Y-70875002D01*
X177282499Y-70275002D02*
X176682499Y-70575002D01*
X177282499Y-70875002D02*
X177282499Y-70275002D01*
%TO.C,R1*%
X173162742Y-60477501D02*
X173637258Y-60477501D01*
X173162742Y-61522501D02*
X173637258Y-61522501D01*
%TO.C,C12*%
X178477500Y-61762742D02*
X178477500Y-62237258D01*
X179522500Y-61762742D02*
X179522500Y-62237258D01*
%TO.C,J4*%
X170944998Y-50545000D02*
X172274998Y-50545000D01*
X170944998Y-51875000D02*
X170944998Y-50545000D01*
X170944998Y-53145001D02*
X173544998Y-53145000D01*
X170944998Y-55745000D02*
X170944998Y-53145001D01*
X173544998Y-53145000D02*
X173544999Y-50545000D01*
X178684997Y-50545000D02*
X173544999Y-50545000D01*
X178684998Y-55745000D02*
X170944998Y-55745000D01*
X178684998Y-55745000D02*
X178684997Y-50545000D01*
%TO.C,C7*%
X173589999Y-58453733D02*
X173589999Y-58746267D01*
X174609999Y-58453733D02*
X174609999Y-58746267D01*
D16*
%TO.C,U3*%
X175999999Y-78750001D02*
X178399999Y-78750000D01*
X175999999Y-82099999D02*
X175999999Y-78750001D01*
X175999999Y-82099999D02*
X175999999Y-83500000D01*
X175999999Y-83500000D02*
X176499999Y-84000000D01*
X176499999Y-84000000D02*
X183499999Y-84000000D01*
X181599999Y-78750000D02*
X183999999Y-78750001D01*
X183999999Y-78750001D02*
X183999999Y-82099999D01*
X183999999Y-82099999D02*
X183999999Y-83500000D01*
X183999999Y-83500000D02*
X183499999Y-84000000D01*
%TO.C,U1*%
X181349999Y-71100001D02*
G75*
G02*
X182849999Y-69600001I1500000J0D01*
G01*
X182849999Y-77600001D02*
G75*
G02*
X181349999Y-76100001I0J1500000D01*
G01*
X187849999Y-69600001D02*
G75*
G02*
X189349999Y-71100001I-1J-1500001D01*
G01*
X189349999Y-76100001D02*
G75*
G02*
X187849999Y-77600001I-1500001J1D01*
G01*
D15*
%TO.C,C1*%
X176559419Y-63640001D02*
X176840581Y-63640001D01*
X176559419Y-64660001D02*
X176840581Y-64660001D01*
%TO.C,J2*%
X171015000Y-77207501D02*
X172325000Y-77207501D01*
X171015000Y-82827501D02*
X171015000Y-77207501D01*
X171565000Y-77207501D02*
X171565000Y-82827501D01*
X172275000Y-76117501D02*
X172575000Y-76717501D01*
X172325000Y-77207501D02*
X172325000Y-77257501D01*
X172425000Y-82180002D02*
X172425000Y-80717501D01*
X172575000Y-76717501D02*
X172875000Y-76117501D01*
X172575000Y-82217501D02*
X172425000Y-82180002D01*
X172725000Y-80717501D02*
X172725000Y-82180002D01*
X172725000Y-82180002D02*
X172575000Y-82217501D01*
X172825000Y-77207501D02*
X172825000Y-77257501D01*
X172875000Y-76117501D02*
X172275000Y-76117501D01*
X173575000Y-77207501D02*
X172825000Y-77207501D01*
X173575000Y-77257501D02*
X173575000Y-77207501D01*
X173675000Y-82180001D02*
X173675000Y-80717500D01*
X173825000Y-82217502D02*
X173675000Y-82180001D01*
X173975000Y-80717500D02*
X173975000Y-82180001D01*
X173975000Y-82180001D02*
X173825000Y-82217502D01*
X174075000Y-77207501D02*
X175385000Y-77207501D01*
X174075000Y-77257501D02*
X174075000Y-77207501D01*
X174835000Y-77207501D02*
X174835000Y-82827501D01*
X174835000Y-79217501D02*
X171565000Y-79217501D01*
X174835000Y-80717501D02*
X171565000Y-80717501D01*
X175385000Y-77207501D02*
X175385000Y-82827501D01*
X175385000Y-82827501D02*
X171015000Y-82827501D01*
D19*
%TO.C,L1*%
X173434999Y-63950003D02*
X173434999Y-65550001D01*
X174764999Y-63950003D02*
X174764999Y-65550001D01*
D15*
%TO.C,C10*%
X181440000Y-58353734D02*
X181440000Y-58646268D01*
X182460000Y-58353734D02*
X182460000Y-58646268D01*
%TO.C,JP2*%
X176849999Y-75700000D02*
X176849999Y-72900000D01*
X177549999Y-72250000D02*
X178149999Y-72250000D01*
X178149999Y-76350000D02*
X177549999Y-76350000D01*
X178849999Y-72900000D02*
X178849999Y-75700000D01*
X179349999Y-72800000D02*
X179049999Y-73100000D01*
X179349999Y-73400000D02*
X179049999Y-73100000D01*
X179349999Y-73400000D02*
X179349999Y-72800000D01*
X176849999Y-72950000D02*
G75*
G02*
X177549999Y-72250000I699999J1D01*
G01*
X177549999Y-76350000D02*
G75*
G02*
X176849999Y-75650000I0J700000D01*
G01*
X178149999Y-72250000D02*
G75*
G02*
X178849999Y-72950000I1J-699999D01*
G01*
X178849999Y-75650000D02*
G75*
G02*
X178149999Y-76350000I-700000J0D01*
G01*
%TO.C,C8*%
X172090001Y-58453735D02*
X172090001Y-58746269D01*
X173110001Y-58453735D02*
X173110001Y-58746269D01*
%TO.C,C6*%
X173259419Y-61990001D02*
X173540581Y-61990001D01*
X173259419Y-63010001D02*
X173540581Y-63010001D01*
%TO.C,C11*%
X176462741Y-62127500D02*
X176937257Y-62127500D01*
X176462741Y-63172500D02*
X176937257Y-63172500D01*
%TO.C,J4*%
X114140000Y-116485000D02*
X119860000Y-116485000D01*
X119860000Y-116485000D02*
X119860000Y-115415000D01*
X120150000Y-115625000D02*
X120150000Y-115125000D01*
X119560000Y-115415000D02*
X119560000Y-113000000D01*
X119860000Y-115415000D02*
X119560000Y-115415000D01*
X120150000Y-115125000D02*
X119850000Y-115125000D01*
X114140000Y-113000000D02*
X114140000Y-116485000D01*
X114140000Y-113000000D02*
X114140000Y-109515000D01*
X119560000Y-110585000D02*
X119560000Y-113000000D01*
X119860000Y-110585000D02*
X119560000Y-110585000D01*
X114140000Y-109515000D02*
X119860000Y-109515000D01*
X119860000Y-109515000D02*
X119860000Y-110585000D01*
%TO.C,JP1*%
X130600000Y-108000001D02*
X127800000Y-108000001D01*
X127150000Y-107300001D02*
X127150000Y-106700001D01*
X131250000Y-106700001D02*
X131250000Y-107300001D01*
X127800000Y-106000001D02*
X130600000Y-106000001D01*
X127850000Y-108000001D02*
G75*
G02*
X127150000Y-107300001I0J700000D01*
G01*
X131250000Y-107300001D02*
G75*
G02*
X130550000Y-108000001I-699999J-1D01*
G01*
X127150000Y-106700001D02*
G75*
G02*
X127850000Y-106000001I700000J0D01*
G01*
X130550000Y-106000001D02*
G75*
G02*
X131250000Y-106700001I1J-699999D01*
G01*
%TO.C,J1*%
X115795000Y-125620001D02*
X115795000Y-124290001D01*
X117125000Y-125620001D02*
X115795000Y-125620001D01*
X118395001Y-125620001D02*
X118395000Y-123020001D01*
X136235001Y-125620001D02*
X118395001Y-125620001D01*
X136235001Y-125620001D02*
X136235000Y-120420001D01*
X115795000Y-123020000D02*
X115795000Y-120420001D01*
X118395000Y-123020001D02*
X115795000Y-123020000D01*
X136235000Y-120420001D02*
X115795000Y-120420001D01*
%TO.C,JP2*%
X124600000Y-108000001D02*
X121800000Y-108000001D01*
X121150000Y-107300001D02*
X121150000Y-106700001D01*
X125250000Y-106700001D02*
X125250000Y-107300001D01*
X121800000Y-106000001D02*
X124600000Y-106000001D01*
X121850000Y-108000001D02*
G75*
G02*
X121150000Y-107300001I0J700000D01*
G01*
X125250000Y-107300001D02*
G75*
G02*
X124550000Y-108000001I-699999J-1D01*
G01*
X121150000Y-106700001D02*
G75*
G02*
X121850000Y-106000001I700000J0D01*
G01*
X124550000Y-106000001D02*
G75*
G02*
X125250000Y-106700001I1J-699999D01*
G01*
%TO.C,J2*%
X118350000Y-108935001D02*
X118350000Y-98965002D01*
X120630000Y-108935001D02*
X118350000Y-108935001D01*
X123330000Y-108935001D02*
X123330000Y-108535001D01*
X133650000Y-108935001D02*
X123330000Y-108935001D01*
X120630000Y-108535001D02*
X120630000Y-108935001D01*
X123330000Y-108535001D02*
X120630000Y-108535001D01*
X118060000Y-101225001D02*
X118060000Y-105225001D01*
X118350000Y-98965002D02*
X118350000Y-97965001D01*
X133650000Y-98965001D02*
X118350000Y-98965002D01*
X118350000Y-97965001D02*
X133650000Y-97965001D01*
X133650000Y-97965001D02*
X133650000Y-108935001D01*
D13*
%TO.C,REF\u002A\u002A*%
G36*
X123572283Y-112193296D02*
G01*
X123585520Y-112217862D01*
X123586713Y-112269507D01*
X123575764Y-112351885D01*
X123552576Y-112468657D01*
X123544457Y-112508774D01*
X123518690Y-112691347D01*
X123505411Y-112890803D01*
X123505334Y-113089945D01*
X123519176Y-113271579D01*
X123525015Y-113315057D01*
X123588009Y-113623397D01*
X123686157Y-113918652D01*
X123817575Y-114197316D01*
X123980383Y-114455882D01*
X124172697Y-114690844D01*
X124392637Y-114898697D01*
X124437216Y-114934820D01*
X124578292Y-115040166D01*
X124722612Y-115136064D01*
X124859930Y-115215980D01*
X124980000Y-115273378D01*
X124987819Y-115276571D01*
X125067402Y-115311399D01*
X125114705Y-115338578D01*
X125135193Y-115362094D01*
X125134330Y-115385931D01*
X125128333Y-115394949D01*
X125086374Y-115415172D01*
X125006240Y-115428492D01*
X124998780Y-115429244D01*
X124789406Y-115452849D01*
X124587342Y-115481051D01*
X124381240Y-115515756D01*
X124159749Y-115558869D01*
X123911520Y-115612295D01*
X123839725Y-115628405D01*
X123567189Y-115691646D01*
X123326112Y-115751748D01*
X123109980Y-115810922D01*
X122912274Y-115871379D01*
X122726477Y-115935330D01*
X122546072Y-116004986D01*
X122364541Y-116082558D01*
X122175367Y-116170258D01*
X121972031Y-116270297D01*
X121841622Y-116334986D01*
X121726149Y-116389458D01*
X121637408Y-116427010D01*
X121571111Y-116449042D01*
X121522970Y-116456952D01*
X121488695Y-116452139D01*
X121464001Y-116436001D01*
X121451607Y-116415411D01*
X121439854Y-116353704D01*
X121439647Y-116264851D01*
X121450010Y-116155614D01*
X121469966Y-116032750D01*
X121498538Y-115903020D01*
X121534749Y-115773184D01*
X121577618Y-115650001D01*
X121584651Y-115632151D01*
X121651884Y-115473335D01*
X121738107Y-115286065D01*
X121840836Y-115074860D01*
X121957591Y-114844240D01*
X122085890Y-114598726D01*
X122223250Y-114342838D01*
X122367189Y-114081095D01*
X122515226Y-113818018D01*
X122664878Y-113558127D01*
X122813664Y-113305941D01*
X122959100Y-113065981D01*
X123098707Y-112842766D01*
X123230000Y-112640818D01*
X123307147Y-112526281D01*
X123383487Y-112415932D01*
X123449883Y-112323113D01*
X123503395Y-112251840D01*
X123541081Y-112206130D01*
X123560000Y-112190001D01*
X123572283Y-112193296D01*
G37*
G36*
X130091217Y-112923980D02*
G01*
X130073402Y-113033184D01*
X130051036Y-113110608D01*
X130043813Y-113126844D01*
X130010040Y-113183236D01*
X129962353Y-113234865D01*
X129896606Y-113284143D01*
X129808645Y-113333473D01*
X129694324Y-113385267D01*
X129549492Y-113441933D01*
X129370000Y-113505878D01*
X129319331Y-113523387D01*
X129147145Y-113583421D01*
X129005803Y-113633833D01*
X128889604Y-113676832D01*
X128792850Y-113714626D01*
X128709843Y-113749423D01*
X128634883Y-113783431D01*
X128562272Y-113818858D01*
X128466847Y-113868961D01*
X128184377Y-114041439D01*
X127898139Y-114251637D01*
X127610000Y-114498219D01*
X127507609Y-114588786D01*
X127269398Y-114773404D01*
X127030590Y-114920844D01*
X126787556Y-115032896D01*
X126536665Y-115111355D01*
X126274290Y-115158013D01*
X126215919Y-115164124D01*
X125969038Y-115173072D01*
X125725986Y-115152262D01*
X125472697Y-115100690D01*
X125250905Y-115029659D01*
X124997818Y-114912044D01*
X124760134Y-114761820D01*
X124541566Y-114582500D01*
X124345830Y-114377596D01*
X124176640Y-114150621D01*
X124037711Y-113905088D01*
X123932756Y-113644509D01*
X123920841Y-113607331D01*
X123883154Y-113478076D01*
X123857346Y-113361945D01*
X123841463Y-113245707D01*
X123833549Y-113116136D01*
X123831773Y-112970001D01*
X125170319Y-112970001D01*
X125170512Y-113015421D01*
X125173348Y-113110858D01*
X125180873Y-113182953D01*
X125194743Y-113243688D01*
X125216612Y-113305043D01*
X125290606Y-113447636D01*
X125403903Y-113587760D01*
X125544574Y-113701875D01*
X125708119Y-113785581D01*
X125775518Y-113806354D01*
X125902546Y-113827823D01*
X126040135Y-113834676D01*
X126172547Y-113826447D01*
X126284048Y-113802669D01*
X126406968Y-113754073D01*
X126543448Y-113672859D01*
X126663833Y-113564525D01*
X126772024Y-113421900D01*
X126848531Y-113260051D01*
X126890091Y-113087105D01*
X126895984Y-112908479D01*
X126865489Y-112729591D01*
X126797887Y-112555858D01*
X126777516Y-112520525D01*
X126713855Y-112434289D01*
X126633808Y-112346236D01*
X126549158Y-112268711D01*
X126471688Y-112214061D01*
X126455797Y-112205399D01*
X126289832Y-112138039D01*
X126115921Y-112105283D01*
X125940169Y-112106007D01*
X125768679Y-112139097D01*
X125607553Y-112203432D01*
X125462895Y-112297894D01*
X125340808Y-112421364D01*
X125300608Y-112475187D01*
X125238449Y-112580243D01*
X125198307Y-112690354D01*
X125176743Y-112816584D01*
X125170319Y-112970001D01*
X123831773Y-112970001D01*
X123831651Y-112960001D01*
X123838546Y-112755950D01*
X123860709Y-112566961D01*
X123900553Y-112387916D01*
X123960509Y-112204577D01*
X124040027Y-112020842D01*
X124179292Y-111780130D01*
X124349788Y-111555382D01*
X124546915Y-111351214D01*
X124766072Y-111172243D01*
X125002661Y-111023084D01*
X125252081Y-110908353D01*
X125343423Y-110875830D01*
X125452204Y-110843006D01*
X125564476Y-110816558D01*
X125684787Y-110796113D01*
X125817682Y-110781295D01*
X125967705Y-110771731D01*
X126139403Y-110767048D01*
X126337322Y-110766870D01*
X126566006Y-110770824D01*
X126830000Y-110778537D01*
X126974660Y-110783465D01*
X127230254Y-110792820D01*
X127452328Y-110802102D01*
X127645169Y-110811714D01*
X127813064Y-110822055D01*
X127960302Y-110833526D01*
X128091169Y-110846526D01*
X128209952Y-110861457D01*
X128320940Y-110878718D01*
X128428419Y-110898711D01*
X128536677Y-110921835D01*
X128650000Y-110948490D01*
X128839733Y-110998426D01*
X129127419Y-111091594D01*
X129377325Y-111196783D01*
X129589744Y-111314192D01*
X129764968Y-111444019D01*
X129903292Y-111586464D01*
X130005010Y-111741725D01*
X130070414Y-111910001D01*
X130077612Y-111939675D01*
X130095275Y-112048021D01*
X130107482Y-112180415D01*
X130114364Y-112328883D01*
X130116050Y-112485449D01*
X130112668Y-112642138D01*
X130104347Y-112790972D01*
X130092746Y-112908479D01*
X130091217Y-112923980D01*
G37*
D15*
%TO.C,J3*%
X132140000Y-116485001D02*
X132140000Y-115415001D01*
X137860000Y-116485001D02*
X132140000Y-116485001D01*
X132140000Y-115415001D02*
X132440000Y-115415001D01*
X132440000Y-115415001D02*
X132440000Y-113000001D01*
X137860000Y-113000001D02*
X137860000Y-116485001D01*
X137860000Y-113000001D02*
X137860000Y-109515001D01*
X131850000Y-110875001D02*
X132150000Y-110875001D01*
X132140000Y-110585001D02*
X132440000Y-110585001D01*
X132440000Y-110585001D02*
X132440000Y-113000001D01*
X131850000Y-110375001D02*
X131850000Y-110875001D01*
X132140000Y-109515001D02*
X132140000Y-110585001D01*
X137860000Y-109515001D02*
X132140000Y-109515001D01*
%TO.C,C5*%
X142740000Y-57859418D02*
X142740000Y-58140580D01*
X143760000Y-57859418D02*
X143760000Y-58140580D01*
D16*
%TO.C,U9*%
X104150000Y-60000000D02*
X104150000Y-73000000D01*
X104650001Y-59500000D02*
X104150000Y-60000000D01*
X104650001Y-73500000D02*
X104150000Y-73000000D01*
X106050000Y-59500000D02*
X104650001Y-59500000D01*
X106050000Y-59500000D02*
X109400000Y-59500000D01*
X106050000Y-73500000D02*
X104650001Y-73500000D01*
X109400000Y-59500000D02*
X109400000Y-61900000D01*
X109400000Y-71100000D02*
X109400000Y-73500000D01*
X109400000Y-73500000D02*
X106050000Y-73500000D01*
D15*
%TO.C,JP1*%
X126350000Y-72700000D02*
X126350000Y-72100000D01*
X126900000Y-70900000D02*
X127200000Y-71200000D01*
X127000000Y-71400000D02*
X129800000Y-71400000D01*
X127500000Y-70900000D02*
X126900000Y-70900000D01*
X127500000Y-70900000D02*
X127200000Y-71200000D01*
X129800000Y-73400000D02*
X127000000Y-73400000D01*
X130450000Y-72100000D02*
X130450000Y-72700000D01*
X126350000Y-72100000D02*
G75*
G02*
X127050000Y-71400000I699999J1D01*
G01*
X127050000Y-73400000D02*
G75*
G02*
X126350000Y-72700000I-1J699999D01*
G01*
X129750000Y-71400000D02*
G75*
G02*
X130450000Y-72100000I0J-700000D01*
G01*
X130450000Y-72700000D02*
G75*
G02*
X129750000Y-73400000I-700000J0D01*
G01*
D14*
%TO.C,U8*%
X141350000Y-60050000D02*
X139650000Y-60050000D01*
X139650000Y-56950000D01*
X141350000Y-56950000D01*
X141350000Y-60050000D01*
D15*
%TO.C,J2*%
X118320000Y-74170000D02*
X118320000Y-76830000D01*
X118320000Y-74170000D02*
X131079999Y-74170000D01*
X118320000Y-76830000D02*
X131079999Y-76830000D01*
X131079999Y-74170000D02*
X131079999Y-76830000D01*
X133680000Y-75500000D02*
X133680000Y-76830000D01*
X133680000Y-76830000D02*
X132350000Y-76830000D01*
%TO.C,C3*%
X137477500Y-58737258D02*
X137477500Y-58262742D01*
X138522500Y-58737258D02*
X138522500Y-58262742D01*
%TO.C,R3*%
X120977500Y-58887742D02*
X120977500Y-59362258D01*
X122022500Y-58887742D02*
X122022500Y-59362258D01*
D16*
%TO.C,U1*%
X122949999Y-62000000D02*
X122949999Y-69000000D01*
X123449999Y-61500000D02*
X122949999Y-62000000D01*
X123449999Y-69500000D02*
X122949999Y-69000000D01*
X124850000Y-61500000D02*
X123449999Y-61500000D01*
X124850000Y-61500000D02*
X128199998Y-61500000D01*
X124850000Y-69500000D02*
X123449999Y-69500000D01*
X128199998Y-61500000D02*
X128199999Y-63900000D01*
X128199998Y-69500000D02*
X124850000Y-69500000D01*
X128199999Y-67100000D02*
X128199998Y-69500000D01*
D15*
%TO.C,R2*%
X126854725Y-58677500D02*
X126345277Y-58677500D01*
X126854725Y-59722500D02*
X126345277Y-59722500D01*
%TO.C,C2*%
X122340000Y-58228733D02*
X122340000Y-58521267D01*
X123360000Y-58228733D02*
X123360000Y-58521267D01*
%TO.C,R1*%
X126854724Y-60177499D02*
X126345276Y-60177499D01*
X126854724Y-61222499D02*
X126345276Y-61222499D01*
%TO.C,R7*%
X110027500Y-74854724D02*
X110027500Y-74345276D01*
X111072500Y-74854724D02*
X111072500Y-74345276D01*
%TO.C,C4*%
X144227500Y-57762742D02*
X144227500Y-58237258D01*
X145272500Y-57762742D02*
X145272500Y-58237258D01*
%TO.C,C1*%
X123640000Y-58234419D02*
X123640000Y-58515581D01*
X124660000Y-58234419D02*
X124660000Y-58515581D01*
D19*
%TO.C,U2*%
X128999999Y-57995000D02*
X129000000Y-57700000D01*
X128999999Y-61405000D02*
X129000000Y-61700000D01*
X129295000Y-57699999D02*
X129000000Y-57700000D01*
X129295000Y-61700001D02*
X129000000Y-61700000D01*
X132705000Y-57699999D02*
X133000000Y-57700000D01*
X132705000Y-61700001D02*
X133000000Y-61700000D01*
X133000001Y-57995000D02*
X133000000Y-57700000D01*
X133000001Y-61405000D02*
X133000000Y-61700000D01*
D20*
X129850000Y-56725000D02*
G75*
G02*
X129650000Y-56725000I-100000J0D01*
G01*
X129650000Y-56725000D02*
G75*
G02*
X129850000Y-56725000I100000J0D01*
G01*
D16*
%TO.C,U7*%
X113950001Y-58500000D02*
X113950001Y-74500000D01*
X114450002Y-58000000D02*
X113950001Y-58500000D01*
X114450002Y-75000000D02*
X113950001Y-74500000D01*
X115850001Y-58000000D02*
X114450002Y-58000000D01*
X115850001Y-58000000D02*
X119200001Y-58000000D01*
X115850001Y-75000000D02*
X114450002Y-75000000D01*
X119200001Y-58000000D02*
X119200001Y-60400000D01*
X119200001Y-72600000D02*
X119200001Y-75000000D01*
X119200001Y-75000000D02*
X115850001Y-75000000D01*
%TO.C,U6*%
X142550001Y-59500000D02*
X145900001Y-59500000D01*
X142550001Y-61900000D02*
X142550001Y-59500000D01*
X142550001Y-73500000D02*
X142550001Y-71100000D01*
X145900001Y-59500000D02*
X147300000Y-59500000D01*
X145900001Y-73500000D02*
X142550001Y-73500000D01*
X145900001Y-73500000D02*
X147300000Y-73500000D01*
X147300000Y-59500000D02*
X147800001Y-60000000D01*
X147300000Y-73500000D02*
X147800001Y-73000000D01*
X147800001Y-73000000D02*
X147800001Y-60000000D01*
D15*
%TO.C,JP2*%
X121550000Y-72700000D02*
X121550000Y-72100000D01*
X122200000Y-71400000D02*
X125000000Y-71400000D01*
X124500000Y-73900000D02*
X124800000Y-73600000D01*
X124500000Y-73900000D02*
X125100000Y-73900000D01*
X125000000Y-73400000D02*
X122200000Y-73400000D01*
X125100000Y-73900000D02*
X124800000Y-73600000D01*
X125650000Y-72100000D02*
X125650000Y-72700000D01*
X121550000Y-72100000D02*
G75*
G02*
X122250000Y-71400000I700000J0D01*
G01*
X122250000Y-73400000D02*
G75*
G02*
X121550000Y-72700000I0J700000D01*
G01*
X124950000Y-71400000D02*
G75*
G02*
X125650000Y-72100000I1J-699999D01*
G01*
X125650000Y-72700000D02*
G75*
G02*
X124950000Y-73400000I-699999J-1D01*
G01*
%TO.C,R6*%
X140927500Y-74904724D02*
X140927500Y-74395276D01*
X141972500Y-74904724D02*
X141972500Y-74395276D01*
D16*
%TO.C,U5*%
X133800000Y-60000000D02*
X137150000Y-60000000D01*
X133800000Y-71000000D02*
X133800001Y-68600000D01*
X133800001Y-62400000D02*
X133800000Y-60000000D01*
X137150000Y-60000000D02*
X138550000Y-60000000D01*
X137150000Y-71000000D02*
X133800000Y-71000000D01*
X137150000Y-71000000D02*
X138550000Y-71000000D01*
X138550000Y-60000000D02*
X139050000Y-60500000D01*
X138550000Y-71000000D02*
X139050000Y-70500000D01*
X139050000Y-70500000D02*
X139050000Y-60500000D01*
%TO.C,U2*%
X146700000Y-109250000D02*
X146700000Y-119250000D01*
X147200000Y-108750000D02*
X146700000Y-109250000D01*
X147200000Y-119750000D02*
X146700000Y-119250000D01*
X148600000Y-108750000D02*
X147200000Y-108750000D01*
X148600000Y-108750000D02*
X151950000Y-108750000D01*
X148600000Y-119750000D02*
X147200000Y-119750000D01*
X151949999Y-117350000D02*
X151950000Y-119750000D01*
X151950000Y-108750000D02*
X151949999Y-111150000D01*
X151950000Y-119750000D02*
X148600000Y-119750000D01*
%TD*%
M02*
