%TF.GenerationSoftware,KiCad,Pcbnew,8.0.5*%
%TF.CreationDate,2024-12-31T14:00:20+11:00*%
%TF.ProjectId,Combined_Fabrication,436f6d62-696e-4656-945f-466162726963,rev?*%
%TF.SameCoordinates,Original*%
%TF.FileFunction,Drillmap*%
%TF.FilePolarity,Positive*%
%FSLAX45Y45*%
G04 Gerber Fmt 4.5, Leading zero omitted, Abs format (unit mm)*
G04 Created by KiCad (PCBNEW 8.0.5) date 2024-12-31 14:00:20*
%MOMM*%
%LPD*%
G01*
G04 APERTURE LIST*
%ADD10C,0.050000*%
%ADD11C,0.200000*%
%ADD12C,0.100000*%
%ADD13C,0.180000*%
G04 APERTURE END LIST*
D10*
X14940000Y-9860000D02*
X14940000Y-9960000D01*
X15660000Y-9860000D02*
X15660000Y-9960000D01*
X17640000Y-9860000D02*
X17640000Y-9960000D01*
X15860000Y-9660000D02*
X17440000Y-9660000D01*
X17640000Y-8440000D02*
X17640000Y-8320000D01*
X13160000Y-8640000D02*
X17440000Y-8640000D01*
X13160000Y-9660000D02*
X14740000Y-9660000D01*
X12960000Y-9960000D02*
X12960000Y-9860000D01*
X12960000Y-8320000D02*
X12960000Y-8440000D01*
X17440000Y-9660000D02*
G75*
G02*
X17640000Y-9860000I0J-200000D01*
G01*
X17640000Y-8440000D02*
G75*
G02*
X17440000Y-8640000I-200000J0D01*
G01*
X15660000Y-9860000D02*
G75*
G02*
X15860000Y-9660000I200000J0D01*
G01*
X14740000Y-9660000D02*
G75*
G02*
X14940000Y-9860000I0J-200000D01*
G01*
X12960000Y-9860000D02*
G75*
G02*
X13160000Y-9660000I200000J0D01*
G01*
X13160000Y-8640000D02*
G75*
G02*
X12960000Y-8440000I0J200000D01*
G01*
X12240000Y-9960000D02*
X12240000Y-8320000D01*
X18360000Y-9960000D02*
X18360000Y-8320000D01*
X18380000Y-8300000D02*
X18860000Y-8300000D01*
X17140000Y-8300000D02*
X17620000Y-8300000D01*
X17620000Y-8300000D02*
G75*
G02*
X17640000Y-8320000I20000J0D01*
G01*
X17840000Y-8300000D02*
G75*
G02*
X17800000Y-8300000I-20000J0D01*
G01*
X17800000Y-8300000D02*
G75*
G02*
X17840000Y-8300000I20000J0D01*
G01*
X18360000Y-8320000D02*
G75*
G02*
X18380000Y-8300000I0J20000D01*
G01*
X18140000Y-8300000D02*
G75*
G02*
X18100000Y-8300000I-20000J0D01*
G01*
X18100000Y-8300000D02*
G75*
G02*
X18140000Y-8300000I20000J0D01*
G01*
X17720000Y-8300000D02*
G75*
G02*
X17680000Y-8300000I-20000J0D01*
G01*
X17680000Y-8300000D02*
G75*
G02*
X17720000Y-8300000I20000J0D01*
G01*
X18260000Y-8300000D02*
G75*
G02*
X18220000Y-8300000I-20000J0D01*
G01*
X18220000Y-8300000D02*
G75*
G02*
X18260000Y-8300000I20000J0D01*
G01*
X17960000Y-8300000D02*
G75*
G02*
X17920000Y-8300000I-20000J0D01*
G01*
X17920000Y-8300000D02*
G75*
G02*
X17960000Y-8300000I20000J0D01*
G01*
X18320000Y-8300000D02*
G75*
G02*
X18280000Y-8300000I-20000J0D01*
G01*
X18280000Y-8300000D02*
G75*
G02*
X18320000Y-8300000I20000J0D01*
G01*
X17780000Y-8300000D02*
G75*
G02*
X17740000Y-8300000I-20000J0D01*
G01*
X17740000Y-8300000D02*
G75*
G02*
X17780000Y-8300000I20000J0D01*
G01*
X17900000Y-8300000D02*
G75*
G02*
X17860000Y-8300000I-20000J0D01*
G01*
X17860000Y-8300000D02*
G75*
G02*
X17900000Y-8300000I20000J0D01*
G01*
X18020000Y-8300000D02*
G75*
G02*
X17980000Y-8300000I-20000J0D01*
G01*
X17980000Y-8300000D02*
G75*
G02*
X18020000Y-8300000I20000J0D01*
G01*
X18080000Y-8300000D02*
G75*
G02*
X18040000Y-8300000I-20000J0D01*
G01*
X18040000Y-8300000D02*
G75*
G02*
X18080000Y-8300000I20000J0D01*
G01*
X18200000Y-8300000D02*
G75*
G02*
X18160000Y-8300000I-20000J0D01*
G01*
X18160000Y-8300000D02*
G75*
G02*
X18200000Y-8300000I20000J0D01*
G01*
X18360000Y-10000000D02*
X18900000Y-10000000D01*
X17100000Y-10000000D02*
X17640000Y-10000000D01*
X18360000Y-10000000D02*
G75*
G02*
X18360000Y-9960000I0J20000D01*
G01*
X18200000Y-9980000D02*
G75*
G02*
X18160000Y-9980000I-20000J0D01*
G01*
X18160000Y-9980000D02*
G75*
G02*
X18200000Y-9980000I20000J0D01*
G01*
X17640000Y-9960000D02*
G75*
G02*
X17640000Y-10000000I0J-20000D01*
G01*
X17900000Y-9980000D02*
G75*
G02*
X17860000Y-9980000I-20000J0D01*
G01*
X17860000Y-9980000D02*
G75*
G02*
X17900000Y-9980000I20000J0D01*
G01*
X18320000Y-9980000D02*
G75*
G02*
X18280000Y-9980000I-20000J0D01*
G01*
X18280000Y-9980000D02*
G75*
G02*
X18320000Y-9980000I20000J0D01*
G01*
X17780000Y-9980000D02*
G75*
G02*
X17740000Y-9980000I-20000J0D01*
G01*
X17740000Y-9980000D02*
G75*
G02*
X17780000Y-9980000I20000J0D01*
G01*
X18080000Y-9980000D02*
G75*
G02*
X18040000Y-9980000I-20000J0D01*
G01*
X18040000Y-9980000D02*
G75*
G02*
X18080000Y-9980000I20000J0D01*
G01*
X17720000Y-9980000D02*
G75*
G02*
X17680000Y-9980000I-20000J0D01*
G01*
X17680000Y-9980000D02*
G75*
G02*
X17720000Y-9980000I20000J0D01*
G01*
X18260000Y-9980000D02*
G75*
G02*
X18220000Y-9980000I-20000J0D01*
G01*
X18220000Y-9980000D02*
G75*
G02*
X18260000Y-9980000I20000J0D01*
G01*
X18140000Y-9980000D02*
G75*
G02*
X18100000Y-9980000I-20000J0D01*
G01*
X18100000Y-9980000D02*
G75*
G02*
X18140000Y-9980000I20000J0D01*
G01*
X18020000Y-9980000D02*
G75*
G02*
X17980000Y-9980000I-20000J0D01*
G01*
X17980000Y-9980000D02*
G75*
G02*
X18020000Y-9980000I20000J0D01*
G01*
X17960000Y-9980000D02*
G75*
G02*
X17920000Y-9980000I-20000J0D01*
G01*
X17920000Y-9980000D02*
G75*
G02*
X17960000Y-9980000I20000J0D01*
G01*
X17840000Y-9980000D02*
G75*
G02*
X17800000Y-9980000I-20000J0D01*
G01*
X17800000Y-9980000D02*
G75*
G02*
X17840000Y-9980000I20000J0D01*
G01*
X16175000Y-10000000D02*
X15660000Y-10000000D01*
X14425000Y-10000000D02*
X14940000Y-10000000D01*
X15660000Y-10000000D02*
G75*
G02*
X15660000Y-9960000I0J20000D01*
G01*
X15500000Y-9980000D02*
G75*
G02*
X15460000Y-9980000I-20000J0D01*
G01*
X15460000Y-9980000D02*
G75*
G02*
X15500000Y-9980000I20000J0D01*
G01*
X14940000Y-9960000D02*
G75*
G02*
X14940000Y-10000000I0J-20000D01*
G01*
X15200000Y-9980000D02*
G75*
G02*
X15160000Y-9980000I-20000J0D01*
G01*
X15160000Y-9980000D02*
G75*
G02*
X15200000Y-9980000I20000J0D01*
G01*
X15620000Y-9980000D02*
G75*
G02*
X15580000Y-9980000I-20000J0D01*
G01*
X15580000Y-9980000D02*
G75*
G02*
X15620000Y-9980000I20000J0D01*
G01*
X15080000Y-9980000D02*
G75*
G02*
X15040000Y-9980000I-20000J0D01*
G01*
X15040000Y-9980000D02*
G75*
G02*
X15080000Y-9980000I20000J0D01*
G01*
X15380000Y-9980000D02*
G75*
G02*
X15340000Y-9980000I-20000J0D01*
G01*
X15340000Y-9980000D02*
G75*
G02*
X15380000Y-9980000I20000J0D01*
G01*
X15020000Y-9980000D02*
G75*
G02*
X14980000Y-9980000I-20000J0D01*
G01*
X14980000Y-9980000D02*
G75*
G02*
X15020000Y-9980000I20000J0D01*
G01*
X15560000Y-9980000D02*
G75*
G02*
X15520000Y-9980000I-20000J0D01*
G01*
X15520000Y-9980000D02*
G75*
G02*
X15560000Y-9980000I20000J0D01*
G01*
X15440000Y-9980000D02*
G75*
G02*
X15400000Y-9980000I-20000J0D01*
G01*
X15400000Y-9980000D02*
G75*
G02*
X15440000Y-9980000I20000J0D01*
G01*
X15320000Y-9980000D02*
G75*
G02*
X15280000Y-9980000I-20000J0D01*
G01*
X15280000Y-9980000D02*
G75*
G02*
X15320000Y-9980000I20000J0D01*
G01*
X15260000Y-9980000D02*
G75*
G02*
X15220000Y-9980000I-20000J0D01*
G01*
X15220000Y-9980000D02*
G75*
G02*
X15260000Y-9980000I20000J0D01*
G01*
X15140000Y-9980000D02*
G75*
G02*
X15100000Y-9980000I-20000J0D01*
G01*
X15100000Y-9980000D02*
G75*
G02*
X15140000Y-9980000I20000J0D01*
G01*
X12960000Y-10000000D02*
X13550000Y-10000000D01*
X11650000Y-10000000D02*
X12240000Y-10000000D01*
X12960000Y-10000000D02*
G75*
G02*
X12960000Y-9960000I0J20000D01*
G01*
X12240000Y-9960000D02*
G75*
G02*
X12240000Y-10000000I0J-20000D01*
G01*
X12440000Y-9980000D02*
G75*
G02*
X12400000Y-9980000I-20000J0D01*
G01*
X12400000Y-9980000D02*
G75*
G02*
X12440000Y-9980000I20000J0D01*
G01*
X12920000Y-9980000D02*
G75*
G02*
X12880000Y-9980000I-20000J0D01*
G01*
X12880000Y-9980000D02*
G75*
G02*
X12920000Y-9980000I20000J0D01*
G01*
X12380000Y-9980000D02*
G75*
G02*
X12340000Y-9980000I-20000J0D01*
G01*
X12340000Y-9980000D02*
G75*
G02*
X12380000Y-9980000I20000J0D01*
G01*
X12680000Y-9980000D02*
G75*
G02*
X12640000Y-9980000I-20000J0D01*
G01*
X12640000Y-9980000D02*
G75*
G02*
X12680000Y-9980000I20000J0D01*
G01*
X12320000Y-9980000D02*
G75*
G02*
X12280000Y-9980000I-20000J0D01*
G01*
X12280000Y-9980000D02*
G75*
G02*
X12320000Y-9980000I20000J0D01*
G01*
X12620000Y-9980000D02*
G75*
G02*
X12580000Y-9980000I-20000J0D01*
G01*
X12580000Y-9980000D02*
G75*
G02*
X12620000Y-9980000I20000J0D01*
G01*
X12740000Y-9980000D02*
G75*
G02*
X12700000Y-9980000I-20000J0D01*
G01*
X12700000Y-9980000D02*
G75*
G02*
X12740000Y-9980000I20000J0D01*
G01*
X12800000Y-9980000D02*
G75*
G02*
X12760000Y-9980000I-20000J0D01*
G01*
X12760000Y-9980000D02*
G75*
G02*
X12800000Y-9980000I20000J0D01*
G01*
X12500000Y-9980000D02*
G75*
G02*
X12460000Y-9980000I-20000J0D01*
G01*
X12460000Y-9980000D02*
G75*
G02*
X12500000Y-9980000I20000J0D01*
G01*
X12860000Y-9980000D02*
G75*
G02*
X12820000Y-9980000I-20000J0D01*
G01*
X12820000Y-9980000D02*
G75*
G02*
X12860000Y-9980000I20000J0D01*
G01*
X12560000Y-9980000D02*
G75*
G02*
X12520000Y-9980000I-20000J0D01*
G01*
X12520000Y-9980000D02*
G75*
G02*
X12560000Y-9980000I20000J0D01*
G01*
X12980000Y-8300000D02*
X13250000Y-8300000D01*
X11950000Y-8300000D02*
X12220000Y-8300000D01*
X12960000Y-8320000D02*
G75*
G02*
X12980000Y-8300000I0J20000D01*
G01*
X12220000Y-8300000D02*
G75*
G02*
X12240000Y-8320000I20000J0D01*
G01*
X12680000Y-8300000D02*
G75*
G02*
X12640000Y-8300000I-20000J0D01*
G01*
X12640000Y-8300000D02*
G75*
G02*
X12680000Y-8300000I20000J0D01*
G01*
X12620000Y-8300000D02*
G75*
G02*
X12580000Y-8300000I-20000J0D01*
G01*
X12580000Y-8300000D02*
G75*
G02*
X12620000Y-8300000I20000J0D01*
G01*
X12560000Y-8300000D02*
G75*
G02*
X12520000Y-8300000I-20000J0D01*
G01*
X12520000Y-8300000D02*
G75*
G02*
X12560000Y-8300000I20000J0D01*
G01*
X12500000Y-8300000D02*
G75*
G02*
X12460000Y-8300000I-20000J0D01*
G01*
X12460000Y-8300000D02*
G75*
G02*
X12500000Y-8300000I20000J0D01*
G01*
X12440000Y-8300000D02*
G75*
G02*
X12400000Y-8300000I-20000J0D01*
G01*
X12400000Y-8300000D02*
G75*
G02*
X12440000Y-8300000I20000J0D01*
G01*
X12380000Y-8300000D02*
G75*
G02*
X12340000Y-8300000I-20000J0D01*
G01*
X12340000Y-8300000D02*
G75*
G02*
X12380000Y-8300000I20000J0D01*
G01*
X12320000Y-8300000D02*
G75*
G02*
X12280000Y-8300000I-20000J0D01*
G01*
X12280000Y-8300000D02*
G75*
G02*
X12320000Y-8300000I20000J0D01*
G01*
X16850000Y-7950000D02*
G75*
G02*
X16550000Y-7950000I-150000J0D01*
G01*
X16550000Y-7950000D02*
G75*
G02*
X16850000Y-7950000I150000J0D01*
G01*
X18360000Y-4500000D02*
X18360000Y-5000000D01*
X19550000Y-5500000D02*
G75*
G02*
X19450000Y-5600000I-100000J0D01*
G01*
X17140000Y-8300000D02*
G75*
G02*
X17040000Y-8200000I0J100000D01*
G01*
X17040000Y-7700000D02*
X17040000Y-5600000D01*
X19450000Y-5600000D02*
X18960000Y-5600000D01*
X18460000Y-4400000D02*
X18760000Y-4400000D01*
X19450000Y-5100000D02*
G75*
G02*
X19550000Y-5200000I0J-100000D01*
G01*
X19550000Y-8100000D02*
G75*
G02*
X19450000Y-8200000I-100000J0D01*
G01*
X18760000Y-4400000D02*
G75*
G02*
X18860000Y-4500000I0J-100000D01*
G01*
X16450000Y-8100000D02*
X16450000Y-7800000D01*
X18960000Y-8200000D02*
G75*
G02*
X18860000Y-8300000I-100000J0D01*
G01*
X18860000Y-4500000D02*
X18860000Y-5000000D01*
X19450000Y-8200000D02*
X18960000Y-8200000D01*
X19450000Y-5350000D02*
G75*
G02*
X19150000Y-5350000I-150000J0D01*
G01*
X19150000Y-5350000D02*
G75*
G02*
X19450000Y-5350000I150000J0D01*
G01*
X16450000Y-5500000D02*
X16450000Y-5200000D01*
X19450000Y-5100000D02*
X18960000Y-5100000D01*
X16550000Y-7700000D02*
X17040000Y-7700000D01*
X16550000Y-5600000D02*
X17040000Y-5600000D01*
X17040000Y-5100000D02*
G75*
G02*
X17140000Y-5000000I100000J0D01*
G01*
X16450000Y-7800000D02*
G75*
G02*
X16550000Y-7700000I100000J0D01*
G01*
X17240000Y-4400000D02*
X17540000Y-4400000D01*
X18960000Y-5600000D02*
X18960000Y-7700000D01*
X16450000Y-5200000D02*
G75*
G02*
X16550000Y-5100000I100000J0D01*
G01*
X17140000Y-4500000D02*
G75*
G02*
X17240000Y-4400000I100000J0D01*
G01*
X19450000Y-7700000D02*
X18960000Y-7700000D01*
X16550000Y-5600000D02*
G75*
G02*
X16450000Y-5500000I0J100000D01*
G01*
X18760000Y-4650000D02*
G75*
G02*
X18460000Y-4650000I-150000J0D01*
G01*
X18460000Y-4650000D02*
G75*
G02*
X18760000Y-4650000I150000J0D01*
G01*
X16550000Y-8200000D02*
X17040000Y-8200000D01*
X17540000Y-4650000D02*
G75*
G02*
X17240000Y-4650000I-150000J0D01*
G01*
X17240000Y-4650000D02*
G75*
G02*
X17540000Y-4650000I150000J0D01*
G01*
X17640000Y-4500000D02*
X17640000Y-5000000D01*
X17140000Y-4500000D02*
X17140000Y-5000000D01*
X19450000Y-7950000D02*
G75*
G02*
X19150000Y-7950000I-150000J0D01*
G01*
X19150000Y-7950000D02*
G75*
G02*
X19450000Y-7950000I150000J0D01*
G01*
X19450000Y-7700000D02*
G75*
G02*
X19550000Y-7800000I0J-100000D01*
G01*
X19550000Y-5200000D02*
X19550000Y-5500000D01*
X19550000Y-7800000D02*
X19550000Y-8100000D01*
X17540000Y-4400000D02*
G75*
G02*
X17640000Y-4500000I0J-100000D01*
G01*
X17640000Y-5000000D02*
X18360000Y-5000000D01*
X16550000Y-8200000D02*
G75*
G02*
X16450000Y-8100000I0J100000D01*
G01*
X16850000Y-5350000D02*
G75*
G02*
X16550000Y-5350000I-150000J0D01*
G01*
X16550000Y-5350000D02*
G75*
G02*
X16850000Y-5350000I150000J0D01*
G01*
X18360000Y-4500000D02*
G75*
G02*
X18460000Y-4400000I100000J0D01*
G01*
X18860000Y-5000000D02*
G75*
G02*
X18960000Y-5100000I0J-100000D01*
G01*
X16550000Y-5100000D02*
X17040000Y-5100000D01*
X18900000Y-10000000D02*
G75*
G02*
X19100000Y-10200000I0J-200000D01*
G01*
X16900000Y-11950000D02*
X16900000Y-10200000D01*
X19100000Y-11950000D02*
G75*
G02*
X18900000Y-12150000I-200000J0D01*
G01*
X16900000Y-10200000D02*
G75*
G02*
X17100000Y-10000000I200000J0D01*
G01*
X17100000Y-12150000D02*
G75*
G02*
X16900000Y-11950000I0J200000D01*
G01*
X18900000Y-12150000D02*
X17100000Y-12150000D01*
X19100000Y-10200000D02*
X19100000Y-11950000D01*
X11650000Y-12650000D02*
X13550000Y-12650000D01*
X11450000Y-10200000D02*
G75*
G02*
X11650000Y-10000000I200000J0D01*
G01*
X13550000Y-10000000D02*
G75*
G02*
X13750000Y-10200000I0J-200000D01*
G01*
X13750000Y-12450000D02*
X13750000Y-10200000D01*
X11450000Y-12450000D02*
X11450000Y-10200000D01*
X11650000Y-12650000D02*
G75*
G02*
X11450000Y-12450000I0J200000D01*
G01*
X13750000Y-12450000D02*
G75*
G02*
X13550000Y-12650000I-200000J0D01*
G01*
X10550000Y-7700000D02*
G75*
G02*
X10350000Y-7500000I0J200000D01*
G01*
X10550000Y-7700000D02*
X11650000Y-7700000D01*
X10350000Y-7500000D02*
X10350000Y-5800000D01*
X13550000Y-7700000D02*
X14650000Y-7700000D01*
X10550000Y-5600000D02*
X14650000Y-5600000D01*
X10350000Y-5800000D02*
G75*
G02*
X10550000Y-5600000I200000J0D01*
G01*
X11950000Y-8300000D02*
G75*
G02*
X11800000Y-8150000I0J150000D01*
G01*
X13400000Y-8150000D02*
G75*
G02*
X13250000Y-8300000I-150000J0D01*
G01*
X13200000Y-8050000D02*
G75*
G02*
X13000000Y-8050000I-100000J0D01*
G01*
X13000000Y-8050000D02*
G75*
G02*
X13200000Y-8050000I100000J0D01*
G01*
X14850000Y-5800000D02*
X14850000Y-7500000D01*
X11650000Y-7700000D02*
G75*
G02*
X11800000Y-7850000I0J-150000D01*
G01*
X14850000Y-7500000D02*
G75*
G02*
X14650000Y-7700000I-200000J0D01*
G01*
X11800000Y-7850000D02*
X11800000Y-8150000D01*
X14650000Y-5600000D02*
G75*
G02*
X14850000Y-5800000I0J-200000D01*
G01*
X13400000Y-7850000D02*
G75*
G02*
X13550000Y-7700000I150000J0D01*
G01*
X12200000Y-8050000D02*
G75*
G02*
X12000000Y-8050000I-100000J0D01*
G01*
X12000000Y-8050000D02*
G75*
G02*
X12200000Y-8050000I100000J0D01*
G01*
X13400000Y-8150000D02*
X13400000Y-7850000D01*
X14175000Y-12075000D02*
X14175000Y-10250000D01*
X16425000Y-10250000D02*
X16425000Y-12075000D01*
X16425000Y-12075000D02*
G75*
G02*
X16175000Y-12325000I-250000J0D01*
G01*
X16175000Y-12325000D02*
X14425000Y-12325000D01*
X14425000Y-12325000D02*
G75*
G02*
X14175000Y-12075000I0J250000D01*
G01*
X16175000Y-10000000D02*
G75*
G02*
X16425000Y-10250000I0J-250000D01*
G01*
X14175000Y-10250000D02*
G75*
G02*
X14425000Y-10000000I250000J0D01*
G01*
X12920000Y-8300000D02*
G75*
G02*
X12880000Y-8300000I-20000J0D01*
G01*
X12880000Y-8300000D02*
G75*
G02*
X12920000Y-8300000I20000J0D01*
G01*
X12740000Y-8300000D02*
G75*
G02*
X12700000Y-8300000I-20000J0D01*
G01*
X12700000Y-8300000D02*
G75*
G02*
X12740000Y-8300000I20000J0D01*
G01*
X12860000Y-8300000D02*
G75*
G02*
X12820000Y-8300000I-20000J0D01*
G01*
X12820000Y-8300000D02*
G75*
G02*
X12860000Y-8300000I20000J0D01*
G01*
X12800000Y-8300000D02*
G75*
G02*
X12760000Y-8300000I-20000J0D01*
G01*
X12760000Y-8300000D02*
G75*
G02*
X12800000Y-8300000I20000J0D01*
G01*
D11*
D12*
X10905000Y-6310000D02*
X10935000Y-6340000D01*
X10935000Y-6310000D02*
X10905000Y-6340000D01*
X11060000Y-6090000D02*
X11090000Y-6120000D01*
X11090000Y-6090000D02*
X11060000Y-6120000D01*
X11075000Y-6460000D02*
X11105000Y-6490000D01*
X11105000Y-6460000D02*
X11075000Y-6490000D01*
X11075000Y-6710000D02*
X11105000Y-6740000D01*
X11105000Y-6710000D02*
X11075000Y-6740000D01*
X11075000Y-6560000D02*
X11105000Y-6590000D01*
X11105000Y-6560000D02*
X11075000Y-6590000D01*
X11085000Y-6000000D02*
X11115000Y-6030000D01*
X11115000Y-6000000D02*
X11085000Y-6030000D01*
X11095000Y-5920000D02*
X11125000Y-5950000D01*
X11125000Y-5920000D02*
X11095000Y-5950000D01*
X11108167Y-6410000D02*
X11138167Y-6440000D01*
X11138167Y-6410000D02*
X11108167Y-6440000D01*
X11142101Y-6360518D02*
X11172101Y-6390518D01*
X11172101Y-6360518D02*
X11142101Y-6390518D01*
X11173456Y-6309362D02*
X11203456Y-6339362D01*
X11203456Y-6309362D02*
X11173456Y-6339362D01*
X11175000Y-6190000D02*
X11205000Y-6220000D01*
X11205000Y-6190000D02*
X11175000Y-6220000D01*
X11208226Y-6260464D02*
X11238226Y-6290464D01*
X11238226Y-6260464D02*
X11208226Y-6290464D01*
X11305000Y-6510000D02*
X11335000Y-6540000D01*
X11335000Y-6510000D02*
X11305000Y-6540000D01*
X11420000Y-6460000D02*
X11450000Y-6490000D01*
X11450000Y-6460000D02*
X11420000Y-6490000D01*
X11535000Y-6410000D02*
X11565000Y-6440000D01*
X11565000Y-6410000D02*
X11535000Y-6440000D01*
X11585000Y-6360000D02*
X11615000Y-6390000D01*
X11615000Y-6360000D02*
X11585000Y-6390000D01*
X11630000Y-6310000D02*
X11660000Y-6340000D01*
X11660000Y-6310000D02*
X11630000Y-6340000D01*
X11635000Y-6585000D02*
X11665000Y-6615000D01*
X11665000Y-6585000D02*
X11635000Y-6615000D01*
X11660000Y-5895000D02*
X11690000Y-5925000D01*
X11690000Y-5895000D02*
X11660000Y-5925000D01*
X11675000Y-6260000D02*
X11705000Y-6290000D01*
X11705000Y-6260000D02*
X11675000Y-6290000D01*
X11675000Y-6630000D02*
X11705000Y-6660000D01*
X11705000Y-6630000D02*
X11675000Y-6660000D01*
X11710000Y-6510000D02*
X11740000Y-6540000D01*
X11740000Y-6510000D02*
X11710000Y-6540000D01*
X11715000Y-6675000D02*
X11745000Y-6705000D01*
X11745000Y-6675000D02*
X11715000Y-6705000D01*
X11720000Y-6210000D02*
X11750000Y-6240000D01*
X11750000Y-6210000D02*
X11720000Y-6240000D01*
X11745000Y-7535000D02*
X11775000Y-7565000D01*
X11775000Y-7535000D02*
X11745000Y-7565000D01*
X11755000Y-6720000D02*
X11785000Y-6750000D01*
X11785000Y-6720000D02*
X11755000Y-6750000D01*
X11760000Y-6460000D02*
X11790000Y-6490000D01*
X11790000Y-6460000D02*
X11760000Y-6490000D01*
X11765000Y-6160000D02*
X11795000Y-6190000D01*
X11795000Y-6160000D02*
X11765000Y-6190000D01*
X11795000Y-6765000D02*
X11825000Y-6795000D01*
X11825000Y-6765000D02*
X11795000Y-6795000D01*
X11810000Y-6410000D02*
X11840000Y-6440000D01*
X11840000Y-6410000D02*
X11810000Y-6440000D01*
X11855000Y-6260000D02*
X11885000Y-6290000D01*
X11885000Y-6260000D02*
X11855000Y-6290000D01*
X11855000Y-6360000D02*
X11885000Y-6390000D01*
X11885000Y-6360000D02*
X11855000Y-6390000D01*
X11870000Y-6160000D02*
X11900000Y-6190000D01*
X11900000Y-6160000D02*
X11870000Y-6190000D01*
X11890000Y-6310000D02*
X11920000Y-6340000D01*
X11920000Y-6310000D02*
X11890000Y-6340000D01*
X11903282Y-6209923D02*
X11933282Y-6239923D01*
X11933282Y-6209923D02*
X11903282Y-6239923D01*
X11905000Y-6060000D02*
X11935000Y-6090000D01*
X11935000Y-6060000D02*
X11905000Y-6090000D01*
X11905000Y-6560000D02*
X11935000Y-6590000D01*
X11935000Y-6560000D02*
X11905000Y-6590000D01*
X11905000Y-6710000D02*
X11935000Y-6740000D01*
X11935000Y-6710000D02*
X11905000Y-6740000D01*
X11989286Y-11659993D02*
X12019286Y-11689993D01*
X12019286Y-11659993D02*
X11989286Y-11689993D01*
X12085000Y-10845000D02*
X12115000Y-10875000D01*
X12115000Y-10845000D02*
X12085000Y-10875000D01*
X12085000Y-11725000D02*
X12115000Y-11755000D01*
X12115000Y-11725000D02*
X12085000Y-11755000D01*
X12090000Y-6405000D02*
X12120000Y-6435000D01*
X12120000Y-6405000D02*
X12090000Y-6435000D01*
X12090000Y-6470000D02*
X12120000Y-6500000D01*
X12120000Y-6470000D02*
X12090000Y-6500000D01*
X12124874Y-6518824D02*
X12154874Y-6548824D01*
X12154874Y-6518824D02*
X12124874Y-6548824D01*
X12129048Y-6359444D02*
X12159048Y-6389444D01*
X12159048Y-6359444D02*
X12129048Y-6389444D01*
X12135000Y-6602500D02*
X12165000Y-6632500D01*
X12165000Y-6602500D02*
X12135000Y-6632500D01*
X12135000Y-6667500D02*
X12165000Y-6697500D01*
X12165000Y-6667500D02*
X12135000Y-6697500D01*
X12144998Y-11885000D02*
X12174998Y-11915000D01*
X12174998Y-11885000D02*
X12144998Y-11915000D01*
X12155000Y-6760000D02*
X12185000Y-6790000D01*
X12185000Y-6760000D02*
X12155000Y-6790000D01*
X12163835Y-6310558D02*
X12193835Y-6340558D01*
X12193835Y-6310558D02*
X12163835Y-6340558D01*
X12190000Y-6810000D02*
X12220000Y-6840000D01*
X12220000Y-6810000D02*
X12190000Y-6840000D01*
X12194090Y-10900511D02*
X12224090Y-10930511D01*
X12224090Y-10900511D02*
X12194090Y-10930511D01*
X12197998Y-6261233D02*
X12227998Y-6291233D01*
X12227998Y-6261233D02*
X12197998Y-6291233D01*
X12215000Y-7225000D02*
X12245000Y-7255000D01*
X12245000Y-7225000D02*
X12215000Y-7255000D01*
X12224999Y-11885000D02*
X12254999Y-11915000D01*
X12254999Y-11885000D02*
X12224999Y-11915000D01*
X12225000Y-6860000D02*
X12255000Y-6890000D01*
X12255000Y-6860000D02*
X12225000Y-6890000D01*
X12230000Y-6210000D02*
X12260000Y-6240000D01*
X12260000Y-6210000D02*
X12230000Y-6240000D01*
X12265000Y-6160000D02*
X12295000Y-6190000D01*
X12295000Y-6160000D02*
X12265000Y-6190000D01*
X12265000Y-6910000D02*
X12295000Y-6940000D01*
X12295000Y-6910000D02*
X12265000Y-6940000D01*
X12298282Y-6959923D02*
X12328282Y-6989923D01*
X12328282Y-6959923D02*
X12298282Y-6989923D01*
X12300000Y-6110000D02*
X12330000Y-6140000D01*
X12330000Y-6110000D02*
X12300000Y-6140000D01*
X12304999Y-11885000D02*
X12334999Y-11915000D01*
X12334999Y-11885000D02*
X12304999Y-11915000D01*
X12305000Y-10685000D02*
X12335000Y-10715000D01*
X12335000Y-10685000D02*
X12305000Y-10715000D01*
X12384999Y-11885000D02*
X12414999Y-11915000D01*
X12414999Y-11885000D02*
X12384999Y-11915000D01*
X12465000Y-11885000D02*
X12495000Y-11915000D01*
X12495000Y-11885000D02*
X12465000Y-11915000D01*
X12545000Y-11885000D02*
X12575000Y-11915000D01*
X12575000Y-11885000D02*
X12545000Y-11915000D01*
X12552500Y-7225000D02*
X12582500Y-7255000D01*
X12582500Y-7225000D02*
X12552500Y-7255000D01*
X12553750Y-5905000D02*
X12583750Y-5935000D01*
X12583750Y-5905000D02*
X12553750Y-5935000D01*
X12617500Y-7225000D02*
X12647500Y-7255000D01*
X12647500Y-7225000D02*
X12617500Y-7255000D01*
X12625000Y-11885000D02*
X12655000Y-11915000D01*
X12655000Y-11885000D02*
X12625000Y-11915000D01*
X12705000Y-11885000D02*
X12735000Y-11915000D01*
X12735000Y-11885000D02*
X12705000Y-11915000D01*
X12735000Y-5905000D02*
X12765000Y-5935000D01*
X12765000Y-5905000D02*
X12735000Y-5935000D01*
X12770000Y-6160000D02*
X12800000Y-6190000D01*
X12800000Y-6160000D02*
X12770000Y-6190000D01*
X12775000Y-6455000D02*
X12805000Y-6485000D01*
X12805000Y-6455000D02*
X12775000Y-6485000D01*
X12785000Y-11885000D02*
X12815000Y-11915000D01*
X12815000Y-11885000D02*
X12785000Y-11915000D01*
X12825000Y-6125000D02*
X12855000Y-6155000D01*
X12855000Y-6125000D02*
X12825000Y-6155000D01*
X12845000Y-11009993D02*
X12875000Y-11039993D01*
X12875000Y-11009993D02*
X12845000Y-11039993D01*
X12865001Y-11885000D02*
X12895001Y-11915000D01*
X12895001Y-11885000D02*
X12865001Y-11915000D01*
X12905000Y-10685000D02*
X12935000Y-10715000D01*
X12935000Y-10685000D02*
X12905000Y-10715000D01*
X12915000Y-11242665D02*
X12945000Y-11272665D01*
X12945000Y-11242665D02*
X12915000Y-11272665D01*
X12915000Y-11325000D02*
X12945000Y-11355000D01*
X12945000Y-11325000D02*
X12915000Y-11355000D01*
X12925000Y-11070000D02*
X12955000Y-11100000D01*
X12955000Y-11070000D02*
X12925000Y-11100000D01*
X12940000Y-6145000D02*
X12970000Y-6175000D01*
X12970000Y-6145000D02*
X12940000Y-6175000D01*
X12945001Y-11885000D02*
X12975001Y-11915000D01*
X12975001Y-11885000D02*
X12945001Y-11915000D01*
X12985000Y-11425000D02*
X13015000Y-11455000D01*
X13015000Y-11425000D02*
X12985000Y-11455000D01*
X12986493Y-11132873D02*
X13016493Y-11162873D01*
X13016493Y-11132873D02*
X12986493Y-11162873D01*
X12999286Y-10909993D02*
X13029286Y-10939993D01*
X13029286Y-10909993D02*
X12999286Y-10939993D01*
X12999286Y-11559993D02*
X13029286Y-11589993D01*
X13029286Y-11559993D02*
X12999286Y-11589993D01*
X13025001Y-11885000D02*
X13055001Y-11915000D01*
X13055001Y-11885000D02*
X13025001Y-11915000D01*
X13050000Y-6255000D02*
X13080000Y-6285000D01*
X13080000Y-6255000D02*
X13050000Y-6285000D01*
X13085000Y-11725000D02*
X13115000Y-11755000D01*
X13115000Y-11725000D02*
X13085000Y-11755000D01*
X13085000Y-10845000D02*
X13115000Y-10875000D01*
X13115000Y-10845000D02*
X13085000Y-10875000D01*
X13100000Y-6460000D02*
X13130000Y-6490000D01*
X13130000Y-6460000D02*
X13100000Y-6490000D01*
X13180707Y-10960000D02*
X13210707Y-10990000D01*
X13210707Y-10960000D02*
X13180707Y-10990000D01*
X13180707Y-11610000D02*
X13210707Y-11640000D01*
X13210707Y-11610000D02*
X13180707Y-11640000D01*
X13180713Y-11510005D02*
X13210713Y-11540005D01*
X13210713Y-11510005D02*
X13180713Y-11540005D01*
X13185000Y-6435000D02*
X13215000Y-6465000D01*
X13215000Y-6435000D02*
X13185000Y-6465000D01*
X13193101Y-11430970D02*
X13223101Y-11460970D01*
X13223101Y-11430970D02*
X13193101Y-11460970D01*
X13195000Y-11145000D02*
X13225000Y-11175000D01*
X13225000Y-11145000D02*
X13195000Y-11175000D01*
X13285000Y-6825000D02*
X13315000Y-6855000D01*
X13315000Y-6825000D02*
X13285000Y-6855000D01*
X13315000Y-7240000D02*
X13345000Y-7270000D01*
X13345000Y-7240000D02*
X13315000Y-7270000D01*
X13390000Y-6460000D02*
X13420000Y-6490000D01*
X13420000Y-6460000D02*
X13390000Y-6490000D01*
X13390000Y-6340000D02*
X13420000Y-6370000D01*
X13420000Y-6340000D02*
X13390000Y-6370000D01*
X13565000Y-11025000D02*
X13595000Y-11055000D01*
X13595000Y-11025000D02*
X13565000Y-11055000D01*
X13570000Y-7490000D02*
X13600000Y-7520000D01*
X13600000Y-7490000D02*
X13570000Y-7520000D01*
X13610000Y-6095000D02*
X13640000Y-6125000D01*
X13640000Y-6095000D02*
X13610000Y-6125000D01*
X13610000Y-6975000D02*
X13640000Y-7005000D01*
X13640000Y-6975000D02*
X13610000Y-7005000D01*
X13670000Y-5950000D02*
X13700000Y-5980000D01*
X13700000Y-5950000D02*
X13670000Y-5980000D01*
X13770000Y-6025000D02*
X13800000Y-6055000D01*
X13800000Y-6025000D02*
X13770000Y-6055000D01*
X13785000Y-5750000D02*
X13815000Y-5780000D01*
X13815000Y-5750000D02*
X13785000Y-5780000D01*
X13785000Y-5920000D02*
X13815000Y-5950000D01*
X13815000Y-5920000D02*
X13785000Y-5950000D01*
X13800000Y-6255000D02*
X13830000Y-6285000D01*
X13830000Y-6255000D02*
X13800000Y-6285000D01*
X13900000Y-5745000D02*
X13930000Y-5775000D01*
X13930000Y-5745000D02*
X13900000Y-5775000D01*
X13905000Y-5930000D02*
X13935000Y-5960000D01*
X13935000Y-5930000D02*
X13905000Y-5960000D01*
X13905000Y-5835000D02*
X13935000Y-5865000D01*
X13935000Y-5835000D02*
X13905000Y-5865000D01*
X13923457Y-6260562D02*
X13953457Y-6290562D01*
X13953457Y-6260562D02*
X13923457Y-6290562D01*
X13923608Y-7009465D02*
X13953608Y-7039465D01*
X13953608Y-7009465D02*
X13923608Y-7039465D01*
X13935000Y-6130000D02*
X13965000Y-6160000D01*
X13965000Y-6130000D02*
X13935000Y-6160000D01*
X13957188Y-6959742D02*
X13987188Y-6989742D01*
X13987188Y-6959742D02*
X13957188Y-6989742D01*
X13957641Y-6309873D02*
X13987641Y-6339873D01*
X13987641Y-6309873D02*
X13957641Y-6339873D01*
X13987793Y-6908135D02*
X14017793Y-6938135D01*
X14017793Y-6908135D02*
X13987793Y-6938135D01*
X13989037Y-6361003D02*
X14019037Y-6391003D01*
X14019037Y-6361003D02*
X13989037Y-6391003D01*
X14022182Y-6411017D02*
X14052182Y-6441017D01*
X14052182Y-6411017D02*
X14022182Y-6441017D01*
X14022335Y-6859075D02*
X14052335Y-6889075D01*
X14052335Y-6859075D02*
X14022335Y-6889075D01*
X14040000Y-6125000D02*
X14070000Y-6155000D01*
X14070000Y-6125000D02*
X14040000Y-6155000D01*
X14055174Y-6808859D02*
X14085174Y-6838859D01*
X14085174Y-6808859D02*
X14055174Y-6838859D01*
X14056833Y-6460000D02*
X14086833Y-6490000D01*
X14086833Y-6460000D02*
X14056833Y-6490000D01*
X14075000Y-6675000D02*
X14105000Y-6705000D01*
X14105000Y-6675000D02*
X14075000Y-6705000D01*
X14075000Y-6595000D02*
X14105000Y-6625000D01*
X14105000Y-6595000D02*
X14075000Y-6625000D01*
X14090000Y-6510000D02*
X14120000Y-6540000D01*
X14120000Y-6510000D02*
X14090000Y-6540000D01*
X14090000Y-6760000D02*
X14120000Y-6790000D01*
X14120000Y-6760000D02*
X14090000Y-6790000D01*
X14265000Y-6635000D02*
X14295000Y-6665000D01*
X14295000Y-6635000D02*
X14265000Y-6665000D01*
X14310000Y-5710000D02*
X14340000Y-5740000D01*
X14340000Y-5710000D02*
X14310000Y-5740000D01*
X14460000Y-5705000D02*
X14490000Y-5735000D01*
X14490000Y-5705000D02*
X14460000Y-5735000D01*
X14460000Y-5867500D02*
X14490000Y-5897500D01*
X14490000Y-5867500D02*
X14460000Y-5897500D01*
X14535000Y-11935000D02*
X14565000Y-11965000D01*
X14565000Y-11935000D02*
X14535000Y-11965000D01*
X15153095Y-11367319D02*
X15183095Y-11397319D01*
X15183095Y-11367319D02*
X15153095Y-11397319D01*
X15155458Y-11447284D02*
X15185458Y-11477284D01*
X15185458Y-11447284D02*
X15155458Y-11477284D01*
X15164290Y-11285003D02*
X15194290Y-11315003D01*
X15194290Y-11285003D02*
X15164290Y-11315003D01*
X15164290Y-11535003D02*
X15194290Y-11565003D01*
X15194290Y-11535003D02*
X15164290Y-11565003D01*
X15164290Y-11184997D02*
X15194290Y-11214997D01*
X15194290Y-11184997D02*
X15164290Y-11214997D01*
X15385000Y-11360000D02*
X15415000Y-11390000D01*
X15415000Y-11360000D02*
X15385000Y-11390000D01*
X15389923Y-11263282D02*
X15419923Y-11293282D01*
X15419923Y-11263282D02*
X15389923Y-11293282D01*
X15435000Y-11485000D02*
X15465000Y-11515000D01*
X15465000Y-11485000D02*
X15435000Y-11515000D01*
X17025000Y-5335000D02*
X17055000Y-5365000D01*
X17055000Y-5335000D02*
X17025000Y-5365000D01*
X17025000Y-5085000D02*
X17055000Y-5115000D01*
X17055000Y-5085000D02*
X17025000Y-5115000D01*
X17025000Y-7685000D02*
X17055000Y-7715000D01*
X17055000Y-7685000D02*
X17025000Y-7715000D01*
X17025000Y-7747500D02*
X17055000Y-7777500D01*
X17055000Y-7747500D02*
X17025000Y-7777500D01*
X17025000Y-7935000D02*
X17055000Y-7965000D01*
X17055000Y-7935000D02*
X17025000Y-7965000D01*
X17025000Y-7997500D02*
X17055000Y-8027500D01*
X17055000Y-7997500D02*
X17025000Y-8027500D01*
X17025000Y-5147500D02*
X17055000Y-5177500D01*
X17055000Y-5147500D02*
X17025000Y-5177500D01*
X17025000Y-5210000D02*
X17055000Y-5240000D01*
X17055000Y-5210000D02*
X17025000Y-5240000D01*
X17025000Y-5272500D02*
X17055000Y-5302500D01*
X17055000Y-5272500D02*
X17025000Y-5302500D01*
X17025000Y-5397500D02*
X17055000Y-5427500D01*
X17055000Y-5397500D02*
X17025000Y-5427500D01*
X17025000Y-5460000D02*
X17055000Y-5490000D01*
X17055000Y-5460000D02*
X17025000Y-5490000D01*
X17025000Y-5522500D02*
X17055000Y-5552500D01*
X17055000Y-5522500D02*
X17025000Y-5552500D01*
X17025000Y-5585000D02*
X17055000Y-5615000D01*
X17055000Y-5585000D02*
X17025000Y-5615000D01*
X17025000Y-7810000D02*
X17055000Y-7840000D01*
X17055000Y-7810000D02*
X17025000Y-7840000D01*
X17025000Y-7872500D02*
X17055000Y-7902500D01*
X17055000Y-7872500D02*
X17025000Y-7902500D01*
X17025000Y-8060000D02*
X17055000Y-8090000D01*
X17055000Y-8060000D02*
X17025000Y-8090000D01*
X17025000Y-8122500D02*
X17055000Y-8152500D01*
X17055000Y-8122500D02*
X17025000Y-8152500D01*
X17025000Y-8185000D02*
X17055000Y-8215000D01*
X17055000Y-8185000D02*
X17025000Y-8215000D01*
X17095000Y-7540000D02*
X17125000Y-7570000D01*
X17125000Y-7540000D02*
X17095000Y-7570000D01*
X17110000Y-6301000D02*
X17140000Y-6331000D01*
X17140000Y-6301000D02*
X17110000Y-6331000D01*
X17110000Y-5790000D02*
X17140000Y-5820000D01*
X17140000Y-5790000D02*
X17110000Y-5820000D01*
X17110000Y-5920000D02*
X17140000Y-5950000D01*
X17140000Y-5920000D02*
X17110000Y-5950000D01*
X17110000Y-6174000D02*
X17140000Y-6204000D01*
X17140000Y-6174000D02*
X17110000Y-6204000D01*
X17110000Y-6428000D02*
X17140000Y-6458000D01*
X17140000Y-6428000D02*
X17110000Y-6458000D01*
X17110000Y-6555000D02*
X17140000Y-6585000D01*
X17140000Y-6555000D02*
X17110000Y-6585000D01*
X17110000Y-6045000D02*
X17140000Y-6075000D01*
X17140000Y-6045000D02*
X17110000Y-6075000D01*
X17110000Y-7317000D02*
X17140000Y-7347000D01*
X17140000Y-7317000D02*
X17110000Y-7347000D01*
X17125000Y-4985000D02*
X17155000Y-5015000D01*
X17155000Y-4985000D02*
X17125000Y-5015000D01*
X17187500Y-4985000D02*
X17217500Y-5015000D01*
X17217500Y-4985000D02*
X17187500Y-5015000D01*
X17200000Y-7545000D02*
X17230000Y-7575000D01*
X17230000Y-7545000D02*
X17200000Y-7575000D01*
X17250000Y-4985000D02*
X17280000Y-5015000D01*
X17280000Y-4985000D02*
X17250000Y-5015000D01*
X17312500Y-4985000D02*
X17342500Y-5015000D01*
X17342500Y-4985000D02*
X17312500Y-5015000D01*
X17375000Y-4985000D02*
X17405000Y-5015000D01*
X17405000Y-4985000D02*
X17375000Y-5015000D01*
X17385000Y-11980000D02*
X17415000Y-12010000D01*
X17415000Y-11980000D02*
X17385000Y-12010000D01*
X17395000Y-11155000D02*
X17425000Y-11185000D01*
X17425000Y-11155000D02*
X17395000Y-11185000D01*
X17405000Y-6235000D02*
X17435000Y-6265000D01*
X17435000Y-6235000D02*
X17405000Y-6265000D01*
X17437500Y-4985000D02*
X17467500Y-5015000D01*
X17467500Y-4985000D02*
X17437500Y-5015000D01*
X17460000Y-7705000D02*
X17490000Y-7735000D01*
X17490000Y-7705000D02*
X17460000Y-7735000D01*
X17500000Y-4985000D02*
X17530000Y-5015000D01*
X17530000Y-4985000D02*
X17500000Y-5015000D01*
X17510000Y-7870000D02*
X17540000Y-7900000D01*
X17540000Y-7870000D02*
X17510000Y-7900000D01*
X17520000Y-6955000D02*
X17550000Y-6985000D01*
X17550000Y-6955000D02*
X17520000Y-6985000D01*
X17560000Y-7705000D02*
X17590000Y-7735000D01*
X17590000Y-7705000D02*
X17560000Y-7735000D01*
X17562500Y-4985000D02*
X17592500Y-5015000D01*
X17592500Y-4985000D02*
X17562500Y-5015000D01*
X17575000Y-6245000D02*
X17605000Y-6275000D01*
X17605000Y-6245000D02*
X17575000Y-6275000D01*
X17610000Y-7870000D02*
X17640000Y-7900000D01*
X17640000Y-7870000D02*
X17610000Y-7900000D01*
X17625000Y-4985000D02*
X17655000Y-5015000D01*
X17655000Y-4985000D02*
X17625000Y-5015000D01*
X17640000Y-6120000D02*
X17670000Y-6150000D01*
X17670000Y-6120000D02*
X17640000Y-6150000D01*
X17695000Y-6565000D02*
X17725000Y-6595000D01*
X17725000Y-6565000D02*
X17695000Y-6595000D01*
X17695000Y-6705000D02*
X17725000Y-6735000D01*
X17725000Y-6705000D02*
X17695000Y-6735000D01*
X17735000Y-5860000D02*
X17765000Y-5890000D01*
X17765000Y-5860000D02*
X17735000Y-5890000D01*
X17770000Y-7212500D02*
X17800000Y-7242500D01*
X17800000Y-7212500D02*
X17770000Y-7242500D01*
X17770000Y-7147500D02*
X17800000Y-7177500D01*
X17800000Y-7147500D02*
X17770000Y-7177500D01*
X17835000Y-6425000D02*
X17865000Y-6455000D01*
X17865000Y-6425000D02*
X17835000Y-6455000D01*
X17835000Y-6705000D02*
X17865000Y-6735000D01*
X17865000Y-6705000D02*
X17835000Y-6735000D01*
X17835000Y-6565000D02*
X17865000Y-6595000D01*
X17865000Y-6565000D02*
X17835000Y-6595000D01*
X17878612Y-6869496D02*
X17908612Y-6899496D01*
X17908612Y-6869496D02*
X17878612Y-6899496D01*
X17885000Y-6105000D02*
X17915000Y-6135000D01*
X17915000Y-6105000D02*
X17885000Y-6135000D01*
X17900000Y-7880000D02*
X17930000Y-7910000D01*
X17930000Y-7880000D02*
X17900000Y-7910000D01*
X17911928Y-11247500D02*
X17941928Y-11277500D01*
X17941928Y-11247500D02*
X17911928Y-11277500D01*
X17915000Y-7435000D02*
X17945000Y-7465000D01*
X17945000Y-7435000D02*
X17915000Y-7465000D01*
X17935000Y-6890000D02*
X17965000Y-6920000D01*
X17965000Y-6890000D02*
X17935000Y-6920000D01*
X17935000Y-11395000D02*
X17965000Y-11425000D01*
X17965000Y-11395000D02*
X17935000Y-11425000D01*
X17935000Y-11980000D02*
X17965000Y-12010000D01*
X17965000Y-11980000D02*
X17935000Y-12010000D01*
X17975000Y-6565000D02*
X18005000Y-6595000D01*
X18005000Y-6565000D02*
X17975000Y-6595000D01*
X17975000Y-6425000D02*
X18005000Y-6455000D01*
X18005000Y-6425000D02*
X17975000Y-6455000D01*
X17975000Y-6705000D02*
X18005000Y-6735000D01*
X18005000Y-6705000D02*
X17975000Y-6735000D01*
X18045000Y-6845000D02*
X18075000Y-6875000D01*
X18075000Y-6845000D02*
X18045000Y-6875000D01*
X18075000Y-5650000D02*
X18105000Y-5680000D01*
X18105000Y-5650000D02*
X18075000Y-5680000D01*
X18120000Y-7295000D02*
X18150000Y-7325000D01*
X18150000Y-7295000D02*
X18120000Y-7325000D01*
X18120000Y-7395000D02*
X18150000Y-7425000D01*
X18150000Y-7395000D02*
X18120000Y-7425000D01*
X18120000Y-7195000D02*
X18150000Y-7225000D01*
X18150000Y-7195000D02*
X18120000Y-7225000D01*
X18295000Y-7025000D02*
X18325000Y-7055000D01*
X18325000Y-7025000D02*
X18295000Y-7055000D01*
X18345000Y-4985000D02*
X18375000Y-5015000D01*
X18375000Y-4985000D02*
X18345000Y-5015000D01*
X18407500Y-4985000D02*
X18437500Y-5015000D01*
X18437500Y-4985000D02*
X18407500Y-5015000D01*
X18435000Y-7155000D02*
X18465000Y-7185000D01*
X18465000Y-7155000D02*
X18435000Y-7185000D01*
X18465000Y-7955000D02*
X18495000Y-7985000D01*
X18495000Y-7955000D02*
X18465000Y-7985000D01*
X18470000Y-4985000D02*
X18500000Y-5015000D01*
X18500000Y-4985000D02*
X18470000Y-5015000D01*
X18480000Y-7005000D02*
X18510000Y-7035000D01*
X18510000Y-7005000D02*
X18480000Y-7035000D01*
X18532500Y-4985000D02*
X18562500Y-5015000D01*
X18562500Y-4985000D02*
X18532500Y-5015000D01*
X18575000Y-11155000D02*
X18605000Y-11185000D01*
X18605000Y-11155000D02*
X18575000Y-11185000D01*
X18595000Y-4985000D02*
X18625000Y-5015000D01*
X18625000Y-4985000D02*
X18595000Y-5015000D01*
X18610000Y-7160000D02*
X18640000Y-7190000D01*
X18640000Y-7160000D02*
X18610000Y-7190000D01*
X18627500Y-7805000D02*
X18657500Y-7835000D01*
X18657500Y-7805000D02*
X18627500Y-7835000D01*
X18657500Y-4985000D02*
X18687500Y-5015000D01*
X18687500Y-4985000D02*
X18657500Y-5015000D01*
X18720000Y-4985000D02*
X18750000Y-5015000D01*
X18750000Y-4985000D02*
X18720000Y-5015000D01*
X18782500Y-4985000D02*
X18812500Y-5015000D01*
X18812500Y-4985000D02*
X18782500Y-5015000D01*
X18845000Y-4985000D02*
X18875000Y-5015000D01*
X18875000Y-4985000D02*
X18845000Y-5015000D01*
X18860000Y-5795000D02*
X18890000Y-5825000D01*
X18890000Y-5795000D02*
X18860000Y-5825000D01*
X18860000Y-6682000D02*
X18890000Y-6712000D01*
X18890000Y-6682000D02*
X18860000Y-6712000D01*
X18860000Y-7063000D02*
X18890000Y-7093000D01*
X18890000Y-7063000D02*
X18860000Y-7093000D01*
X18860000Y-6555000D02*
X18890000Y-6585000D01*
X18890000Y-6555000D02*
X18860000Y-6585000D01*
X18860000Y-6809000D02*
X18890000Y-6839000D01*
X18890000Y-6809000D02*
X18860000Y-6839000D01*
X18860000Y-6936000D02*
X18890000Y-6966000D01*
X18890000Y-6936000D02*
X18860000Y-6966000D01*
X18860000Y-7444000D02*
X18890000Y-7474000D01*
X18890000Y-7444000D02*
X18860000Y-7474000D01*
X18870000Y-6425000D02*
X18900000Y-6455000D01*
X18900000Y-6425000D02*
X18870000Y-6455000D01*
X18945000Y-5460000D02*
X18975000Y-5490000D01*
X18975000Y-5460000D02*
X18945000Y-5490000D01*
X18945000Y-7685000D02*
X18975000Y-7715000D01*
X18975000Y-7685000D02*
X18945000Y-7715000D01*
X18945000Y-7935000D02*
X18975000Y-7965000D01*
X18975000Y-7935000D02*
X18945000Y-7965000D01*
X18945000Y-5210000D02*
X18975000Y-5240000D01*
X18975000Y-5210000D02*
X18945000Y-5240000D01*
X18945000Y-5272500D02*
X18975000Y-5302500D01*
X18975000Y-5272500D02*
X18945000Y-5302500D01*
X18945000Y-5522500D02*
X18975000Y-5552500D01*
X18975000Y-5522500D02*
X18945000Y-5552500D01*
X18945000Y-5585000D02*
X18975000Y-5615000D01*
X18975000Y-5585000D02*
X18945000Y-5615000D01*
X18945000Y-7872500D02*
X18975000Y-7902500D01*
X18975000Y-7872500D02*
X18945000Y-7902500D01*
X18945000Y-8122500D02*
X18975000Y-8152500D01*
X18975000Y-8122500D02*
X18945000Y-8152500D01*
X18945000Y-8185000D02*
X18975000Y-8215000D01*
X18975000Y-8185000D02*
X18945000Y-8215000D01*
X18945000Y-5085000D02*
X18975000Y-5115000D01*
X18975000Y-5085000D02*
X18945000Y-5115000D01*
X18945000Y-5147500D02*
X18975000Y-5177500D01*
X18975000Y-5147500D02*
X18945000Y-5177500D01*
X18945000Y-5335000D02*
X18975000Y-5365000D01*
X18975000Y-5335000D02*
X18945000Y-5365000D01*
X18945000Y-5397500D02*
X18975000Y-5427500D01*
X18975000Y-5397500D02*
X18945000Y-5427500D01*
X18945000Y-7747500D02*
X18975000Y-7777500D01*
X18975000Y-7747500D02*
X18945000Y-7777500D01*
X18945000Y-7810000D02*
X18975000Y-7840000D01*
X18975000Y-7810000D02*
X18945000Y-7840000D01*
X18945000Y-7997500D02*
X18975000Y-8027500D01*
X18975000Y-7997500D02*
X18945000Y-8027500D01*
X18945000Y-8060000D02*
X18975000Y-8090000D01*
X18975000Y-8060000D02*
X18945000Y-8090000D01*
X11187500Y-7230000D02*
G75*
G02*
X11137500Y-7230000I-25000J0D01*
G01*
X11137500Y-7230000D02*
G75*
G02*
X11187500Y-7230000I25000J0D01*
G01*
X11312500Y-7230000D02*
G75*
G02*
X11262500Y-7230000I-25000J0D01*
G01*
X11262500Y-7230000D02*
G75*
G02*
X11312500Y-7230000I25000J0D01*
G01*
X11437500Y-7230000D02*
G75*
G02*
X11387500Y-7230000I-25000J0D01*
G01*
X11387500Y-7230000D02*
G75*
G02*
X11437500Y-7230000I25000J0D01*
G01*
X11562500Y-7230000D02*
G75*
G02*
X11512500Y-7230000I-25000J0D01*
G01*
X11512500Y-7230000D02*
G75*
G02*
X11562500Y-7230000I25000J0D01*
G01*
X11895000Y-11112500D02*
G75*
G02*
X11845000Y-11112500I-25000J0D01*
G01*
X11845000Y-11112500D02*
G75*
G02*
X11895000Y-11112500I25000J0D01*
G01*
X11895000Y-11237500D02*
G75*
G02*
X11845000Y-11237500I-25000J0D01*
G01*
X11845000Y-11237500D02*
G75*
G02*
X11895000Y-11237500I25000J0D01*
G01*
X11895000Y-11362500D02*
G75*
G02*
X11845000Y-11362500I-25000J0D01*
G01*
X11845000Y-11362500D02*
G75*
G02*
X11895000Y-11362500I25000J0D01*
G01*
X11895000Y-11487500D02*
G75*
G02*
X11845000Y-11487500I-25000J0D01*
G01*
X11845000Y-11487500D02*
G75*
G02*
X11895000Y-11487500I25000J0D01*
G01*
X13355000Y-11112500D02*
G75*
G02*
X13305000Y-11112500I-25000J0D01*
G01*
X13305000Y-11112500D02*
G75*
G02*
X13355000Y-11112500I25000J0D01*
G01*
X13355000Y-11237500D02*
G75*
G02*
X13305000Y-11237500I-25000J0D01*
G01*
X13305000Y-11237500D02*
G75*
G02*
X13355000Y-11237500I25000J0D01*
G01*
X13355000Y-11362500D02*
G75*
G02*
X13305000Y-11362500I-25000J0D01*
G01*
X13305000Y-11362500D02*
G75*
G02*
X13355000Y-11362500I25000J0D01*
G01*
X13355000Y-11487500D02*
G75*
G02*
X13305000Y-11487500I-25000J0D01*
G01*
X13305000Y-11487500D02*
G75*
G02*
X13355000Y-11487500I25000J0D01*
G01*
X13687500Y-7230000D02*
G75*
G02*
X13637500Y-7230000I-25000J0D01*
G01*
X13637500Y-7230000D02*
G75*
G02*
X13687500Y-7230000I25000J0D01*
G01*
X13812500Y-7230000D02*
G75*
G02*
X13762500Y-7230000I-25000J0D01*
G01*
X13762500Y-7230000D02*
G75*
G02*
X13812500Y-7230000I25000J0D01*
G01*
X13937500Y-7230000D02*
G75*
G02*
X13887500Y-7230000I-25000J0D01*
G01*
X13887500Y-7230000D02*
G75*
G02*
X13937500Y-7230000I25000J0D01*
G01*
X14062500Y-7230000D02*
G75*
G02*
X14012500Y-7230000I-25000J0D01*
G01*
X14012500Y-7230000D02*
G75*
G02*
X14062500Y-7230000I25000J0D01*
G01*
X10535000Y-7520000D02*
X10535000Y-7580000D01*
X10505000Y-7550000D02*
X10565000Y-7550000D01*
X10818250Y-6432500D02*
X10818250Y-6492500D01*
X10788250Y-6462500D02*
X10848250Y-6462500D01*
X10818250Y-6557500D02*
X10818250Y-6617500D01*
X10788250Y-6587500D02*
X10848250Y-6587500D01*
X10818250Y-6682500D02*
X10818250Y-6742500D01*
X10788250Y-6712500D02*
X10848250Y-6712500D01*
X10818250Y-6807500D02*
X10818250Y-6867500D01*
X10788250Y-6837500D02*
X10848250Y-6837500D01*
X10818250Y-6932500D02*
X10818250Y-6992500D01*
X10788250Y-6962500D02*
X10848250Y-6962500D01*
X10818250Y-7057500D02*
X10818250Y-7117500D01*
X10788250Y-7087500D02*
X10848250Y-7087500D01*
X10865000Y-7520000D02*
X10865000Y-7580000D01*
X10835000Y-7550000D02*
X10895000Y-7550000D01*
X10903250Y-5732500D02*
X10903250Y-5792500D01*
X10873250Y-5762500D02*
X10933250Y-5762500D01*
X10903250Y-5857500D02*
X10903250Y-5917500D01*
X10873250Y-5887500D02*
X10933250Y-5887500D01*
X10903250Y-5982500D02*
X10903250Y-6042500D01*
X10873250Y-6012500D02*
X10933250Y-6012500D01*
X10903250Y-6107500D02*
X10903250Y-6167500D01*
X10873250Y-6137500D02*
X10933250Y-6137500D01*
X14335000Y-7520000D02*
X14335000Y-7580000D01*
X14305000Y-7550000D02*
X14365000Y-7550000D01*
X14381750Y-6432500D02*
X14381750Y-6492500D01*
X14351750Y-6462500D02*
X14411750Y-6462500D01*
X14381750Y-6557500D02*
X14381750Y-6617500D01*
X14351750Y-6587500D02*
X14411750Y-6587500D01*
X14381750Y-6682500D02*
X14381750Y-6742500D01*
X14351750Y-6712500D02*
X14411750Y-6712500D01*
X14381750Y-6807500D02*
X14381750Y-6867500D01*
X14351750Y-6837500D02*
X14411750Y-6837500D01*
X14381750Y-6932500D02*
X14381750Y-6992500D01*
X14351750Y-6962500D02*
X14411750Y-6962500D01*
X14381750Y-7057500D02*
X14381750Y-7117500D01*
X14351750Y-7087500D02*
X14411750Y-7087500D01*
X14665000Y-7520000D02*
X14665000Y-7580000D01*
X14635000Y-7550000D02*
X14695000Y-7550000D01*
X17257500Y-7791750D02*
X17257500Y-7851750D01*
X17227500Y-7821750D02*
X17287500Y-7821750D01*
X17382500Y-7791750D02*
X17382500Y-7851750D01*
X17352500Y-7821750D02*
X17412500Y-7821750D01*
X17518250Y-7027500D02*
X17518250Y-7087500D01*
X17488250Y-7057500D02*
X17548250Y-7057500D01*
X17518250Y-7152500D02*
X17518250Y-7212500D01*
X17488250Y-7182500D02*
X17548250Y-7182500D01*
X17518250Y-7277500D02*
X17518250Y-7337500D01*
X17488250Y-7307500D02*
X17548250Y-7307500D01*
X17518250Y-7402500D02*
X17518250Y-7462500D01*
X17488250Y-7432500D02*
X17548250Y-7432500D01*
X11747856Y-12210356D02*
X11747856Y-12139644D01*
X11677144Y-12139644D01*
X11677144Y-12210356D01*
X11747856Y-12210356D01*
X11747856Y-12464356D02*
X11747856Y-12393644D01*
X11677144Y-12393644D01*
X11677144Y-12464356D01*
X11747856Y-12464356D01*
X12000356Y-7585356D02*
X12000356Y-7514644D01*
X11929644Y-7514644D01*
X11929644Y-7585356D01*
X12000356Y-7585356D01*
X12001856Y-12210356D02*
X12001856Y-12139644D01*
X11931144Y-12139644D01*
X11931144Y-12210356D01*
X12001856Y-12210356D01*
X12001856Y-12464356D02*
X12001856Y-12393644D01*
X11931144Y-12393644D01*
X11931144Y-12464356D01*
X12001856Y-12464356D01*
X12254356Y-7585356D02*
X12254356Y-7514644D01*
X12183644Y-7514644D01*
X12183644Y-7585356D01*
X12254356Y-7585356D01*
X12255856Y-12464356D02*
X12255856Y-12393644D01*
X12185144Y-12393644D01*
X12185144Y-12464356D01*
X12255856Y-12464356D01*
X12255856Y-12210356D02*
X12255856Y-12139644D01*
X12185144Y-12139644D01*
X12185144Y-12210356D01*
X12255856Y-12210356D01*
X12508356Y-7585356D02*
X12508356Y-7514644D01*
X12437644Y-7514644D01*
X12437644Y-7585356D01*
X12508356Y-7585356D01*
X12509856Y-12210356D02*
X12509856Y-12139644D01*
X12439144Y-12139644D01*
X12439144Y-12210356D01*
X12509856Y-12210356D01*
X12509856Y-12464356D02*
X12509856Y-12393644D01*
X12439144Y-12393644D01*
X12439144Y-12464356D01*
X12509856Y-12464356D01*
X12762356Y-7585356D02*
X12762356Y-7514644D01*
X12691644Y-7514644D01*
X12691644Y-7585356D01*
X12762356Y-7585356D01*
X12763856Y-12210356D02*
X12763856Y-12139644D01*
X12693144Y-12139644D01*
X12693144Y-12210356D01*
X12763856Y-12210356D01*
X12763856Y-12464356D02*
X12763856Y-12393644D01*
X12693144Y-12393644D01*
X12693144Y-12464356D01*
X12763856Y-12464356D01*
X13016356Y-7585356D02*
X13016356Y-7514644D01*
X12945644Y-7514644D01*
X12945644Y-7585356D01*
X13016356Y-7585356D01*
X13017856Y-12210356D02*
X13017856Y-12139644D01*
X12947144Y-12139644D01*
X12947144Y-12210356D01*
X13017856Y-12210356D01*
X13017856Y-12464356D02*
X13017856Y-12393644D01*
X12947144Y-12393644D01*
X12947144Y-12464356D01*
X13017856Y-12464356D01*
X13270356Y-7585356D02*
X13270356Y-7514644D01*
X13199644Y-7514644D01*
X13199644Y-7585356D01*
X13270356Y-7585356D01*
X13271856Y-12210356D02*
X13271856Y-12139644D01*
X13201144Y-12139644D01*
X13201144Y-12210356D01*
X13271856Y-12210356D01*
X13271856Y-12464356D02*
X13271856Y-12393644D01*
X13201144Y-12393644D01*
X13201144Y-12464356D01*
X13271856Y-12464356D01*
X13525856Y-12210356D02*
X13525856Y-12139644D01*
X13455144Y-12139644D01*
X13455144Y-12210356D01*
X13525856Y-12210356D01*
X13525856Y-12464356D02*
X13525856Y-12393644D01*
X13455144Y-12393644D01*
X13455144Y-12464356D01*
X13525856Y-12464356D01*
X14410356Y-10394356D02*
X14410356Y-10323644D01*
X14339644Y-10323644D01*
X14339644Y-10394356D01*
X14410356Y-10394356D01*
X14410356Y-10648356D02*
X14410356Y-10577644D01*
X14339644Y-10577644D01*
X14339644Y-10648356D01*
X14410356Y-10648356D01*
X14410356Y-10902356D02*
X14410356Y-10831644D01*
X14339644Y-10831644D01*
X14339644Y-10902356D01*
X14410356Y-10902356D01*
X14410356Y-11156356D02*
X14410356Y-11085644D01*
X14339644Y-11085644D01*
X14339644Y-11156356D01*
X14410356Y-11156356D01*
X14410356Y-11410356D02*
X14410356Y-11339644D01*
X14339644Y-11339644D01*
X14339644Y-11410356D01*
X14410356Y-11410356D01*
X14410356Y-11664356D02*
X14410356Y-11593644D01*
X14339644Y-11593644D01*
X14339644Y-11664356D01*
X14410356Y-11664356D01*
X14410356Y-11918356D02*
X14410356Y-11847644D01*
X14339644Y-11847644D01*
X14339644Y-11918356D01*
X14410356Y-11918356D01*
X14410356Y-12172356D02*
X14410356Y-12101644D01*
X14339644Y-12101644D01*
X14339644Y-12172356D01*
X14410356Y-12172356D01*
X14682356Y-10235356D02*
X14682356Y-10164644D01*
X14611644Y-10164644D01*
X14611644Y-10235356D01*
X14682356Y-10235356D01*
X14735356Y-10502356D02*
X14735356Y-10431644D01*
X14664644Y-10431644D01*
X14664644Y-10502356D01*
X14735356Y-10502356D01*
X14735356Y-10756356D02*
X14735356Y-10685644D01*
X14664644Y-10685644D01*
X14664644Y-10756356D01*
X14735356Y-10756356D01*
X14735356Y-11010356D02*
X14735356Y-10939644D01*
X14664644Y-10939644D01*
X14664644Y-11010356D01*
X14735356Y-11010356D01*
X14735356Y-11264356D02*
X14735356Y-11193644D01*
X14664644Y-11193644D01*
X14664644Y-11264356D01*
X14735356Y-11264356D01*
X14735356Y-11518356D02*
X14735356Y-11447644D01*
X14664644Y-11447644D01*
X14664644Y-11518356D01*
X14735356Y-11518356D01*
X14735356Y-11772356D02*
X14735356Y-11701644D01*
X14664644Y-11701644D01*
X14664644Y-11772356D01*
X14735356Y-11772356D01*
X14735356Y-12026356D02*
X14735356Y-11955644D01*
X14664644Y-11955644D01*
X14664644Y-12026356D01*
X14735356Y-12026356D01*
X14936356Y-10235356D02*
X14936356Y-10164644D01*
X14865644Y-10164644D01*
X14865644Y-10235356D01*
X14936356Y-10235356D01*
X15001356Y-10785356D02*
X15001356Y-10714644D01*
X14930644Y-10714644D01*
X14930644Y-10785356D01*
X15001356Y-10785356D01*
X15002356Y-10510356D02*
X15002356Y-10439644D01*
X14931644Y-10439644D01*
X14931644Y-10510356D01*
X15002356Y-10510356D01*
X15190356Y-10235356D02*
X15190356Y-10164644D01*
X15119644Y-10164644D01*
X15119644Y-10235356D01*
X15190356Y-10235356D01*
X15255356Y-10785356D02*
X15255356Y-10714644D01*
X15184644Y-10714644D01*
X15184644Y-10785356D01*
X15255356Y-10785356D01*
X15256356Y-10510356D02*
X15256356Y-10439644D01*
X15185644Y-10439644D01*
X15185644Y-10510356D01*
X15256356Y-10510356D01*
X15444356Y-10235356D02*
X15444356Y-10164644D01*
X15373644Y-10164644D01*
X15373644Y-10235356D01*
X15444356Y-10235356D01*
X15509356Y-10785356D02*
X15509356Y-10714644D01*
X15438644Y-10714644D01*
X15438644Y-10785356D01*
X15509356Y-10785356D01*
X15510356Y-10510356D02*
X15510356Y-10439644D01*
X15439644Y-10439644D01*
X15439644Y-10510356D01*
X15510356Y-10510356D01*
X15698356Y-10235356D02*
X15698356Y-10164644D01*
X15627644Y-10164644D01*
X15627644Y-10235356D01*
X15698356Y-10235356D01*
X15763356Y-10785356D02*
X15763356Y-10714644D01*
X15692644Y-10714644D01*
X15692644Y-10785356D01*
X15763356Y-10785356D01*
X15764356Y-10510356D02*
X15764356Y-10439644D01*
X15693644Y-10439644D01*
X15693644Y-10510356D01*
X15764356Y-10510356D01*
X15952356Y-10235356D02*
X15952356Y-10164644D01*
X15881644Y-10164644D01*
X15881644Y-10235356D01*
X15952356Y-10235356D01*
X16206356Y-10235356D02*
X16206356Y-10164644D01*
X16135644Y-10164644D01*
X16135644Y-10235356D01*
X16206356Y-10235356D01*
X17144856Y-10232856D02*
X17144856Y-10162144D01*
X17074144Y-10162144D01*
X17074144Y-10232856D01*
X17144856Y-10232856D01*
X17144856Y-10486856D02*
X17144856Y-10416144D01*
X17074144Y-10416144D01*
X17074144Y-10486856D01*
X17144856Y-10486856D01*
X17160356Y-11482856D02*
X17160356Y-11412144D01*
X17089644Y-11412144D01*
X17089644Y-11482856D01*
X17160356Y-11482856D01*
X17160356Y-11736856D02*
X17160356Y-11666144D01*
X17089644Y-11666144D01*
X17089644Y-11736856D01*
X17160356Y-11736856D01*
X17160356Y-11990856D02*
X17160356Y-11920144D01*
X17089644Y-11920144D01*
X17089644Y-11990856D01*
X17160356Y-11990856D01*
X17262856Y-5222856D02*
X17262856Y-5152144D01*
X17192144Y-5152144D01*
X17192144Y-5222856D01*
X17262856Y-5222856D01*
X17262856Y-5476856D02*
X17262856Y-5406144D01*
X17192144Y-5406144D01*
X17192144Y-5476856D01*
X17262856Y-5476856D01*
X17398856Y-10232856D02*
X17398856Y-10162144D01*
X17328144Y-10162144D01*
X17328144Y-10232856D01*
X17398856Y-10232856D01*
X17398856Y-10486856D02*
X17398856Y-10416144D01*
X17328144Y-10416144D01*
X17328144Y-10486856D01*
X17398856Y-10486856D01*
X17516856Y-5222856D02*
X17516856Y-5152144D01*
X17446144Y-5152144D01*
X17446144Y-5222856D01*
X17516856Y-5222856D01*
X17516856Y-5476856D02*
X17516856Y-5406144D01*
X17446144Y-5406144D01*
X17446144Y-5476856D01*
X17516856Y-5476856D01*
X17652856Y-10232856D02*
X17652856Y-10162144D01*
X17582144Y-10162144D01*
X17582144Y-10232856D01*
X17652856Y-10232856D01*
X17652856Y-10486856D02*
X17652856Y-10416144D01*
X17582144Y-10416144D01*
X17582144Y-10486856D01*
X17652856Y-10486856D01*
X17710356Y-11481356D02*
X17710356Y-11410644D01*
X17639644Y-11410644D01*
X17639644Y-11481356D01*
X17710356Y-11481356D01*
X17710356Y-11735356D02*
X17710356Y-11664644D01*
X17639644Y-11664644D01*
X17639644Y-11735356D01*
X17710356Y-11735356D01*
X17710356Y-11989356D02*
X17710356Y-11918644D01*
X17639644Y-11918644D01*
X17639644Y-11989356D01*
X17710356Y-11989356D01*
X17770855Y-5222856D02*
X17770855Y-5152144D01*
X17700144Y-5152144D01*
X17700144Y-5222856D01*
X17770855Y-5222856D01*
X17770856Y-5476856D02*
X17770856Y-5406144D01*
X17700144Y-5406144D01*
X17700144Y-5476856D01*
X17770856Y-5476856D01*
X17906856Y-10232856D02*
X17906856Y-10162144D01*
X17836144Y-10162144D01*
X17836144Y-10232856D01*
X17906856Y-10232856D01*
X17906856Y-10486856D02*
X17906856Y-10416144D01*
X17836144Y-10416144D01*
X17836144Y-10486856D01*
X17906856Y-10486856D01*
X18160856Y-10232856D02*
X18160856Y-10162144D01*
X18090144Y-10162144D01*
X18090144Y-10232856D01*
X18160856Y-10232856D01*
X18160856Y-10486856D02*
X18160856Y-10416144D01*
X18090144Y-10416144D01*
X18090144Y-10486856D01*
X18160856Y-10486856D01*
X18282856Y-11935356D02*
X18282856Y-11864644D01*
X18212144Y-11864644D01*
X18212144Y-11935356D01*
X18282856Y-11935356D01*
X18302856Y-5222856D02*
X18302856Y-5152145D01*
X18232144Y-5152145D01*
X18232144Y-5222856D01*
X18302856Y-5222856D01*
X18302856Y-5476856D02*
X18302856Y-5406145D01*
X18232144Y-5406145D01*
X18232144Y-5476856D01*
X18302856Y-5476856D01*
X18414856Y-10486856D02*
X18414856Y-10416144D01*
X18344144Y-10416144D01*
X18344144Y-10486856D01*
X18414856Y-10486856D01*
X18414856Y-10232856D02*
X18414856Y-10162144D01*
X18344144Y-10162144D01*
X18344144Y-10232856D01*
X18414856Y-10232856D01*
X18536856Y-11935356D02*
X18536856Y-11864644D01*
X18466144Y-11864644D01*
X18466144Y-11935356D01*
X18536856Y-11935356D01*
X18556856Y-5222856D02*
X18556856Y-5152145D01*
X18486144Y-5152145D01*
X18486144Y-5222856D01*
X18556856Y-5222856D01*
X18556856Y-5476856D02*
X18556856Y-5406145D01*
X18486144Y-5406145D01*
X18486144Y-5476856D01*
X18556856Y-5476856D01*
X18668856Y-10232856D02*
X18668856Y-10162144D01*
X18598144Y-10162144D01*
X18598144Y-10232856D01*
X18668856Y-10232856D01*
X18668856Y-10486856D02*
X18668856Y-10416144D01*
X18598144Y-10416144D01*
X18598144Y-10486856D01*
X18668856Y-10486856D01*
X18810855Y-5222856D02*
X18810855Y-5152145D01*
X18740144Y-5152145D01*
X18740144Y-5222856D01*
X18810855Y-5222856D01*
X18810856Y-5476856D02*
X18810856Y-5406145D01*
X18740144Y-5406145D01*
X18740144Y-5476856D01*
X18810856Y-5476856D01*
X18922856Y-10232856D02*
X18922856Y-10162144D01*
X18852144Y-10162144D01*
X18852144Y-10232856D01*
X18922856Y-10232856D01*
X18922856Y-10486856D02*
X18922856Y-10416144D01*
X18852144Y-10416144D01*
X18852144Y-10486856D01*
X18922856Y-10486856D01*
X18935356Y-11356356D02*
X18935356Y-11285644D01*
X18864644Y-11285644D01*
X18864644Y-11356356D01*
X18935356Y-11356356D01*
X18935356Y-11610356D02*
X18935356Y-11539644D01*
X18864644Y-11539644D01*
X18864644Y-11610356D01*
X18935356Y-11610356D01*
X18935356Y-11864356D02*
X18935356Y-11793644D01*
X18864644Y-11793644D01*
X18864644Y-11864356D01*
X18935356Y-11864356D01*
D13*
X12006000Y-10412500D02*
X12096000Y-10322500D01*
X12006000Y-10232500D01*
X11916000Y-10322500D01*
X12006000Y-10412500D01*
X12402000Y-10412500D02*
X12492000Y-10322500D01*
X12402000Y-10232500D01*
X12312000Y-10322500D01*
X12402000Y-10412500D01*
X12798000Y-10412500D02*
X12888000Y-10322500D01*
X12798000Y-10232500D01*
X12708000Y-10322500D01*
X12798000Y-10412500D01*
X13194000Y-10412500D02*
X13284000Y-10322500D01*
X13194000Y-10232500D01*
X13104000Y-10322500D01*
X13194000Y-10412500D01*
D11*
X10608277Y-12963984D02*
X10608277Y-12763984D01*
X10608277Y-12763984D02*
X10655896Y-12763984D01*
X10655896Y-12763984D02*
X10684467Y-12773508D01*
X10684467Y-12773508D02*
X10703515Y-12792555D01*
X10703515Y-12792555D02*
X10713039Y-12811603D01*
X10713039Y-12811603D02*
X10722562Y-12849698D01*
X10722562Y-12849698D02*
X10722562Y-12878270D01*
X10722562Y-12878270D02*
X10713039Y-12916365D01*
X10713039Y-12916365D02*
X10703515Y-12935412D01*
X10703515Y-12935412D02*
X10684467Y-12954460D01*
X10684467Y-12954460D02*
X10655896Y-12963984D01*
X10655896Y-12963984D02*
X10608277Y-12963984D01*
X10808277Y-12963984D02*
X10808277Y-12830651D01*
X10808277Y-12868746D02*
X10817801Y-12849698D01*
X10817801Y-12849698D02*
X10827324Y-12840174D01*
X10827324Y-12840174D02*
X10846372Y-12830651D01*
X10846372Y-12830651D02*
X10865420Y-12830651D01*
X10932086Y-12963984D02*
X10932086Y-12830651D01*
X10932086Y-12763984D02*
X10922562Y-12773508D01*
X10922562Y-12773508D02*
X10932086Y-12783032D01*
X10932086Y-12783032D02*
X10941610Y-12773508D01*
X10941610Y-12773508D02*
X10932086Y-12763984D01*
X10932086Y-12763984D02*
X10932086Y-12783032D01*
X11055896Y-12963984D02*
X11036848Y-12954460D01*
X11036848Y-12954460D02*
X11027324Y-12935412D01*
X11027324Y-12935412D02*
X11027324Y-12763984D01*
X11160658Y-12963984D02*
X11141610Y-12954460D01*
X11141610Y-12954460D02*
X11132086Y-12935412D01*
X11132086Y-12935412D02*
X11132086Y-12763984D01*
X11389229Y-12963984D02*
X11389229Y-12763984D01*
X11389229Y-12763984D02*
X11455896Y-12906841D01*
X11455896Y-12906841D02*
X11522562Y-12763984D01*
X11522562Y-12763984D02*
X11522562Y-12963984D01*
X11703515Y-12963984D02*
X11703515Y-12859222D01*
X11703515Y-12859222D02*
X11693991Y-12840174D01*
X11693991Y-12840174D02*
X11674943Y-12830651D01*
X11674943Y-12830651D02*
X11636848Y-12830651D01*
X11636848Y-12830651D02*
X11617800Y-12840174D01*
X11703515Y-12954460D02*
X11684467Y-12963984D01*
X11684467Y-12963984D02*
X11636848Y-12963984D01*
X11636848Y-12963984D02*
X11617800Y-12954460D01*
X11617800Y-12954460D02*
X11608277Y-12935412D01*
X11608277Y-12935412D02*
X11608277Y-12916365D01*
X11608277Y-12916365D02*
X11617800Y-12897317D01*
X11617800Y-12897317D02*
X11636848Y-12887793D01*
X11636848Y-12887793D02*
X11684467Y-12887793D01*
X11684467Y-12887793D02*
X11703515Y-12878270D01*
X11798753Y-12830651D02*
X11798753Y-13030651D01*
X11798753Y-12840174D02*
X11817800Y-12830651D01*
X11817800Y-12830651D02*
X11855896Y-12830651D01*
X11855896Y-12830651D02*
X11874943Y-12840174D01*
X11874943Y-12840174D02*
X11884467Y-12849698D01*
X11884467Y-12849698D02*
X11893991Y-12868746D01*
X11893991Y-12868746D02*
X11893991Y-12925889D01*
X11893991Y-12925889D02*
X11884467Y-12944936D01*
X11884467Y-12944936D02*
X11874943Y-12954460D01*
X11874943Y-12954460D02*
X11855896Y-12963984D01*
X11855896Y-12963984D02*
X11817800Y-12963984D01*
X11817800Y-12963984D02*
X11798753Y-12954460D01*
X11979705Y-12944936D02*
X11989229Y-12954460D01*
X11989229Y-12954460D02*
X11979705Y-12963984D01*
X11979705Y-12963984D02*
X11970181Y-12954460D01*
X11970181Y-12954460D02*
X11979705Y-12944936D01*
X11979705Y-12944936D02*
X11979705Y-12963984D01*
X11979705Y-12840174D02*
X11989229Y-12849698D01*
X11989229Y-12849698D02*
X11979705Y-12859222D01*
X11979705Y-12859222D02*
X11970181Y-12849698D01*
X11970181Y-12849698D02*
X11979705Y-12840174D01*
X11979705Y-12840174D02*
X11979705Y-12859222D01*
D12*
X10317500Y-13277500D02*
X10347500Y-13307500D01*
X10347500Y-13277500D02*
X10317500Y-13307500D01*
D11*
X10646372Y-13183984D02*
X10665420Y-13183984D01*
X10665420Y-13183984D02*
X10684467Y-13193508D01*
X10684467Y-13193508D02*
X10693991Y-13203032D01*
X10693991Y-13203032D02*
X10703515Y-13222079D01*
X10703515Y-13222079D02*
X10713039Y-13260174D01*
X10713039Y-13260174D02*
X10713039Y-13307793D01*
X10713039Y-13307793D02*
X10703515Y-13345889D01*
X10703515Y-13345889D02*
X10693991Y-13364936D01*
X10693991Y-13364936D02*
X10684467Y-13374460D01*
X10684467Y-13374460D02*
X10665420Y-13383984D01*
X10665420Y-13383984D02*
X10646372Y-13383984D01*
X10646372Y-13383984D02*
X10627324Y-13374460D01*
X10627324Y-13374460D02*
X10617801Y-13364936D01*
X10617801Y-13364936D02*
X10608277Y-13345889D01*
X10608277Y-13345889D02*
X10598753Y-13307793D01*
X10598753Y-13307793D02*
X10598753Y-13260174D01*
X10598753Y-13260174D02*
X10608277Y-13222079D01*
X10608277Y-13222079D02*
X10617801Y-13203032D01*
X10617801Y-13203032D02*
X10627324Y-13193508D01*
X10627324Y-13193508D02*
X10646372Y-13183984D01*
X10798753Y-13364936D02*
X10808277Y-13374460D01*
X10808277Y-13374460D02*
X10798753Y-13383984D01*
X10798753Y-13383984D02*
X10789229Y-13374460D01*
X10789229Y-13374460D02*
X10798753Y-13364936D01*
X10798753Y-13364936D02*
X10798753Y-13383984D01*
X10874943Y-13183984D02*
X10998753Y-13183984D01*
X10998753Y-13183984D02*
X10932086Y-13260174D01*
X10932086Y-13260174D02*
X10960658Y-13260174D01*
X10960658Y-13260174D02*
X10979705Y-13269698D01*
X10979705Y-13269698D02*
X10989229Y-13279222D01*
X10989229Y-13279222D02*
X10998753Y-13298270D01*
X10998753Y-13298270D02*
X10998753Y-13345889D01*
X10998753Y-13345889D02*
X10989229Y-13364936D01*
X10989229Y-13364936D02*
X10979705Y-13374460D01*
X10979705Y-13374460D02*
X10960658Y-13383984D01*
X10960658Y-13383984D02*
X10903515Y-13383984D01*
X10903515Y-13383984D02*
X10884467Y-13374460D01*
X10884467Y-13374460D02*
X10874943Y-13364936D01*
X11122562Y-13183984D02*
X11141610Y-13183984D01*
X11141610Y-13183984D02*
X11160658Y-13193508D01*
X11160658Y-13193508D02*
X11170182Y-13203032D01*
X11170182Y-13203032D02*
X11179705Y-13222079D01*
X11179705Y-13222079D02*
X11189229Y-13260174D01*
X11189229Y-13260174D02*
X11189229Y-13307793D01*
X11189229Y-13307793D02*
X11179705Y-13345889D01*
X11179705Y-13345889D02*
X11170182Y-13364936D01*
X11170182Y-13364936D02*
X11160658Y-13374460D01*
X11160658Y-13374460D02*
X11141610Y-13383984D01*
X11141610Y-13383984D02*
X11122562Y-13383984D01*
X11122562Y-13383984D02*
X11103515Y-13374460D01*
X11103515Y-13374460D02*
X11093991Y-13364936D01*
X11093991Y-13364936D02*
X11084467Y-13345889D01*
X11084467Y-13345889D02*
X11074943Y-13307793D01*
X11074943Y-13307793D02*
X11074943Y-13260174D01*
X11074943Y-13260174D02*
X11084467Y-13222079D01*
X11084467Y-13222079D02*
X11093991Y-13203032D01*
X11093991Y-13203032D02*
X11103515Y-13193508D01*
X11103515Y-13193508D02*
X11122562Y-13183984D01*
X11313039Y-13183984D02*
X11332086Y-13183984D01*
X11332086Y-13183984D02*
X11351134Y-13193508D01*
X11351134Y-13193508D02*
X11360658Y-13203032D01*
X11360658Y-13203032D02*
X11370181Y-13222079D01*
X11370181Y-13222079D02*
X11379705Y-13260174D01*
X11379705Y-13260174D02*
X11379705Y-13307793D01*
X11379705Y-13307793D02*
X11370181Y-13345889D01*
X11370181Y-13345889D02*
X11360658Y-13364936D01*
X11360658Y-13364936D02*
X11351134Y-13374460D01*
X11351134Y-13374460D02*
X11332086Y-13383984D01*
X11332086Y-13383984D02*
X11313039Y-13383984D01*
X11313039Y-13383984D02*
X11293991Y-13374460D01*
X11293991Y-13374460D02*
X11284467Y-13364936D01*
X11284467Y-13364936D02*
X11274943Y-13345889D01*
X11274943Y-13345889D02*
X11265420Y-13307793D01*
X11265420Y-13307793D02*
X11265420Y-13260174D01*
X11265420Y-13260174D02*
X11274943Y-13222079D01*
X11274943Y-13222079D02*
X11284467Y-13203032D01*
X11284467Y-13203032D02*
X11293991Y-13193508D01*
X11293991Y-13193508D02*
X11313039Y-13183984D01*
X11465420Y-13383984D02*
X11465420Y-13250651D01*
X11465420Y-13269698D02*
X11474943Y-13260174D01*
X11474943Y-13260174D02*
X11493991Y-13250651D01*
X11493991Y-13250651D02*
X11522562Y-13250651D01*
X11522562Y-13250651D02*
X11541610Y-13260174D01*
X11541610Y-13260174D02*
X11551134Y-13279222D01*
X11551134Y-13279222D02*
X11551134Y-13383984D01*
X11551134Y-13279222D02*
X11560658Y-13260174D01*
X11560658Y-13260174D02*
X11579705Y-13250651D01*
X11579705Y-13250651D02*
X11608277Y-13250651D01*
X11608277Y-13250651D02*
X11627324Y-13260174D01*
X11627324Y-13260174D02*
X11636848Y-13279222D01*
X11636848Y-13279222D02*
X11636848Y-13383984D01*
X11732086Y-13383984D02*
X11732086Y-13250651D01*
X11732086Y-13269698D02*
X11741610Y-13260174D01*
X11741610Y-13260174D02*
X11760658Y-13250651D01*
X11760658Y-13250651D02*
X11789229Y-13250651D01*
X11789229Y-13250651D02*
X11808277Y-13260174D01*
X11808277Y-13260174D02*
X11817801Y-13279222D01*
X11817801Y-13279222D02*
X11817801Y-13383984D01*
X11817801Y-13279222D02*
X11827324Y-13260174D01*
X11827324Y-13260174D02*
X11846372Y-13250651D01*
X11846372Y-13250651D02*
X11874943Y-13250651D01*
X11874943Y-13250651D02*
X11893991Y-13260174D01*
X11893991Y-13260174D02*
X11903515Y-13279222D01*
X11903515Y-13279222D02*
X11903515Y-13383984D01*
X12293991Y-13174460D02*
X12122563Y-13431603D01*
X12551134Y-13183984D02*
X12570182Y-13183984D01*
X12570182Y-13183984D02*
X12589229Y-13193508D01*
X12589229Y-13193508D02*
X12598753Y-13203032D01*
X12598753Y-13203032D02*
X12608277Y-13222079D01*
X12608277Y-13222079D02*
X12617801Y-13260174D01*
X12617801Y-13260174D02*
X12617801Y-13307793D01*
X12617801Y-13307793D02*
X12608277Y-13345889D01*
X12608277Y-13345889D02*
X12598753Y-13364936D01*
X12598753Y-13364936D02*
X12589229Y-13374460D01*
X12589229Y-13374460D02*
X12570182Y-13383984D01*
X12570182Y-13383984D02*
X12551134Y-13383984D01*
X12551134Y-13383984D02*
X12532086Y-13374460D01*
X12532086Y-13374460D02*
X12522563Y-13364936D01*
X12522563Y-13364936D02*
X12513039Y-13345889D01*
X12513039Y-13345889D02*
X12503515Y-13307793D01*
X12503515Y-13307793D02*
X12503515Y-13260174D01*
X12503515Y-13260174D02*
X12513039Y-13222079D01*
X12513039Y-13222079D02*
X12522563Y-13203032D01*
X12522563Y-13203032D02*
X12532086Y-13193508D01*
X12532086Y-13193508D02*
X12551134Y-13183984D01*
X12703515Y-13364936D02*
X12713039Y-13374460D01*
X12713039Y-13374460D02*
X12703515Y-13383984D01*
X12703515Y-13383984D02*
X12693991Y-13374460D01*
X12693991Y-13374460D02*
X12703515Y-13364936D01*
X12703515Y-13364936D02*
X12703515Y-13383984D01*
X12836848Y-13183984D02*
X12855896Y-13183984D01*
X12855896Y-13183984D02*
X12874944Y-13193508D01*
X12874944Y-13193508D02*
X12884467Y-13203032D01*
X12884467Y-13203032D02*
X12893991Y-13222079D01*
X12893991Y-13222079D02*
X12903515Y-13260174D01*
X12903515Y-13260174D02*
X12903515Y-13307793D01*
X12903515Y-13307793D02*
X12893991Y-13345889D01*
X12893991Y-13345889D02*
X12884467Y-13364936D01*
X12884467Y-13364936D02*
X12874944Y-13374460D01*
X12874944Y-13374460D02*
X12855896Y-13383984D01*
X12855896Y-13383984D02*
X12836848Y-13383984D01*
X12836848Y-13383984D02*
X12817801Y-13374460D01*
X12817801Y-13374460D02*
X12808277Y-13364936D01*
X12808277Y-13364936D02*
X12798753Y-13345889D01*
X12798753Y-13345889D02*
X12789229Y-13307793D01*
X12789229Y-13307793D02*
X12789229Y-13260174D01*
X12789229Y-13260174D02*
X12798753Y-13222079D01*
X12798753Y-13222079D02*
X12808277Y-13203032D01*
X12808277Y-13203032D02*
X12817801Y-13193508D01*
X12817801Y-13193508D02*
X12836848Y-13183984D01*
X13093991Y-13383984D02*
X12979705Y-13383984D01*
X13036848Y-13383984D02*
X13036848Y-13183984D01*
X13036848Y-13183984D02*
X13017801Y-13212555D01*
X13017801Y-13212555D02*
X12998753Y-13231603D01*
X12998753Y-13231603D02*
X12979705Y-13241127D01*
X13284467Y-13383984D02*
X13170182Y-13383984D01*
X13227324Y-13383984D02*
X13227324Y-13183984D01*
X13227324Y-13183984D02*
X13208277Y-13212555D01*
X13208277Y-13212555D02*
X13189229Y-13231603D01*
X13189229Y-13231603D02*
X13170182Y-13241127D01*
X13398753Y-13269698D02*
X13379705Y-13260174D01*
X13379705Y-13260174D02*
X13370182Y-13250651D01*
X13370182Y-13250651D02*
X13360658Y-13231603D01*
X13360658Y-13231603D02*
X13360658Y-13222079D01*
X13360658Y-13222079D02*
X13370182Y-13203032D01*
X13370182Y-13203032D02*
X13379705Y-13193508D01*
X13379705Y-13193508D02*
X13398753Y-13183984D01*
X13398753Y-13183984D02*
X13436848Y-13183984D01*
X13436848Y-13183984D02*
X13455896Y-13193508D01*
X13455896Y-13193508D02*
X13465420Y-13203032D01*
X13465420Y-13203032D02*
X13474944Y-13222079D01*
X13474944Y-13222079D02*
X13474944Y-13231603D01*
X13474944Y-13231603D02*
X13465420Y-13250651D01*
X13465420Y-13250651D02*
X13455896Y-13260174D01*
X13455896Y-13260174D02*
X13436848Y-13269698D01*
X13436848Y-13269698D02*
X13398753Y-13269698D01*
X13398753Y-13269698D02*
X13379705Y-13279222D01*
X13379705Y-13279222D02*
X13370182Y-13288746D01*
X13370182Y-13288746D02*
X13360658Y-13307793D01*
X13360658Y-13307793D02*
X13360658Y-13345889D01*
X13360658Y-13345889D02*
X13370182Y-13364936D01*
X13370182Y-13364936D02*
X13379705Y-13374460D01*
X13379705Y-13374460D02*
X13398753Y-13383984D01*
X13398753Y-13383984D02*
X13436848Y-13383984D01*
X13436848Y-13383984D02*
X13455896Y-13374460D01*
X13455896Y-13374460D02*
X13465420Y-13364936D01*
X13465420Y-13364936D02*
X13474944Y-13345889D01*
X13474944Y-13345889D02*
X13474944Y-13307793D01*
X13474944Y-13307793D02*
X13465420Y-13288746D01*
X13465420Y-13288746D02*
X13455896Y-13279222D01*
X13455896Y-13279222D02*
X13436848Y-13269698D01*
X13551134Y-13183984D02*
X13551134Y-13222079D01*
X13627325Y-13183984D02*
X13627325Y-13222079D01*
X13922563Y-13460174D02*
X13913039Y-13450651D01*
X13913039Y-13450651D02*
X13893991Y-13422079D01*
X13893991Y-13422079D02*
X13884467Y-13403032D01*
X13884467Y-13403032D02*
X13874944Y-13374460D01*
X13874944Y-13374460D02*
X13865420Y-13326841D01*
X13865420Y-13326841D02*
X13865420Y-13288746D01*
X13865420Y-13288746D02*
X13874944Y-13241127D01*
X13874944Y-13241127D02*
X13884467Y-13212555D01*
X13884467Y-13212555D02*
X13893991Y-13193508D01*
X13893991Y-13193508D02*
X13913039Y-13164936D01*
X13913039Y-13164936D02*
X13922563Y-13155412D01*
X13989229Y-13203032D02*
X13998753Y-13193508D01*
X13998753Y-13193508D02*
X14017801Y-13183984D01*
X14017801Y-13183984D02*
X14065420Y-13183984D01*
X14065420Y-13183984D02*
X14084467Y-13193508D01*
X14084467Y-13193508D02*
X14093991Y-13203032D01*
X14093991Y-13203032D02*
X14103515Y-13222079D01*
X14103515Y-13222079D02*
X14103515Y-13241127D01*
X14103515Y-13241127D02*
X14093991Y-13269698D01*
X14093991Y-13269698D02*
X13979706Y-13383984D01*
X13979706Y-13383984D02*
X14103515Y-13383984D01*
X14284467Y-13183984D02*
X14189229Y-13183984D01*
X14189229Y-13183984D02*
X14179706Y-13279222D01*
X14179706Y-13279222D02*
X14189229Y-13269698D01*
X14189229Y-13269698D02*
X14208277Y-13260174D01*
X14208277Y-13260174D02*
X14255896Y-13260174D01*
X14255896Y-13260174D02*
X14274944Y-13269698D01*
X14274944Y-13269698D02*
X14284467Y-13279222D01*
X14284467Y-13279222D02*
X14293991Y-13298270D01*
X14293991Y-13298270D02*
X14293991Y-13345889D01*
X14293991Y-13345889D02*
X14284467Y-13364936D01*
X14284467Y-13364936D02*
X14274944Y-13374460D01*
X14274944Y-13374460D02*
X14255896Y-13383984D01*
X14255896Y-13383984D02*
X14208277Y-13383984D01*
X14208277Y-13383984D02*
X14189229Y-13374460D01*
X14189229Y-13374460D02*
X14179706Y-13364936D01*
X14360658Y-13183984D02*
X14493991Y-13183984D01*
X14493991Y-13183984D02*
X14408277Y-13383984D01*
X14722563Y-13383984D02*
X14722563Y-13183984D01*
X14808277Y-13383984D02*
X14808277Y-13279222D01*
X14808277Y-13279222D02*
X14798753Y-13260174D01*
X14798753Y-13260174D02*
X14779706Y-13250651D01*
X14779706Y-13250651D02*
X14751134Y-13250651D01*
X14751134Y-13250651D02*
X14732087Y-13260174D01*
X14732087Y-13260174D02*
X14722563Y-13269698D01*
X14932087Y-13383984D02*
X14913039Y-13374460D01*
X14913039Y-13374460D02*
X14903515Y-13364936D01*
X14903515Y-13364936D02*
X14893991Y-13345889D01*
X14893991Y-13345889D02*
X14893991Y-13288746D01*
X14893991Y-13288746D02*
X14903515Y-13269698D01*
X14903515Y-13269698D02*
X14913039Y-13260174D01*
X14913039Y-13260174D02*
X14932087Y-13250651D01*
X14932087Y-13250651D02*
X14960658Y-13250651D01*
X14960658Y-13250651D02*
X14979706Y-13260174D01*
X14979706Y-13260174D02*
X14989229Y-13269698D01*
X14989229Y-13269698D02*
X14998753Y-13288746D01*
X14998753Y-13288746D02*
X14998753Y-13345889D01*
X14998753Y-13345889D02*
X14989229Y-13364936D01*
X14989229Y-13364936D02*
X14979706Y-13374460D01*
X14979706Y-13374460D02*
X14960658Y-13383984D01*
X14960658Y-13383984D02*
X14932087Y-13383984D01*
X15113039Y-13383984D02*
X15093991Y-13374460D01*
X15093991Y-13374460D02*
X15084468Y-13355412D01*
X15084468Y-13355412D02*
X15084468Y-13183984D01*
X15265420Y-13374460D02*
X15246372Y-13383984D01*
X15246372Y-13383984D02*
X15208277Y-13383984D01*
X15208277Y-13383984D02*
X15189229Y-13374460D01*
X15189229Y-13374460D02*
X15179706Y-13355412D01*
X15179706Y-13355412D02*
X15179706Y-13279222D01*
X15179706Y-13279222D02*
X15189229Y-13260174D01*
X15189229Y-13260174D02*
X15208277Y-13250651D01*
X15208277Y-13250651D02*
X15246372Y-13250651D01*
X15246372Y-13250651D02*
X15265420Y-13260174D01*
X15265420Y-13260174D02*
X15274944Y-13279222D01*
X15274944Y-13279222D02*
X15274944Y-13298270D01*
X15274944Y-13298270D02*
X15179706Y-13317317D01*
X15351134Y-13374460D02*
X15370182Y-13383984D01*
X15370182Y-13383984D02*
X15408277Y-13383984D01*
X15408277Y-13383984D02*
X15427325Y-13374460D01*
X15427325Y-13374460D02*
X15436849Y-13355412D01*
X15436849Y-13355412D02*
X15436849Y-13345889D01*
X15436849Y-13345889D02*
X15427325Y-13326841D01*
X15427325Y-13326841D02*
X15408277Y-13317317D01*
X15408277Y-13317317D02*
X15379706Y-13317317D01*
X15379706Y-13317317D02*
X15360658Y-13307793D01*
X15360658Y-13307793D02*
X15351134Y-13288746D01*
X15351134Y-13288746D02*
X15351134Y-13279222D01*
X15351134Y-13279222D02*
X15360658Y-13260174D01*
X15360658Y-13260174D02*
X15379706Y-13250651D01*
X15379706Y-13250651D02*
X15408277Y-13250651D01*
X15408277Y-13250651D02*
X15427325Y-13260174D01*
X15503515Y-13460174D02*
X15513039Y-13450651D01*
X15513039Y-13450651D02*
X15532087Y-13422079D01*
X15532087Y-13422079D02*
X15541610Y-13403032D01*
X15541610Y-13403032D02*
X15551134Y-13374460D01*
X15551134Y-13374460D02*
X15560658Y-13326841D01*
X15560658Y-13326841D02*
X15560658Y-13288746D01*
X15560658Y-13288746D02*
X15551134Y-13241127D01*
X15551134Y-13241127D02*
X15541610Y-13212555D01*
X15541610Y-13212555D02*
X15532087Y-13193508D01*
X15532087Y-13193508D02*
X15513039Y-13164936D01*
X15513039Y-13164936D02*
X15503515Y-13155412D01*
D12*
X10347500Y-13556500D02*
G75*
G02*
X10297500Y-13556500I-25000J0D01*
G01*
X10297500Y-13556500D02*
G75*
G02*
X10347500Y-13556500I25000J0D01*
G01*
D11*
X10646372Y-13447984D02*
X10665420Y-13447984D01*
X10665420Y-13447984D02*
X10684467Y-13457508D01*
X10684467Y-13457508D02*
X10693991Y-13467032D01*
X10693991Y-13467032D02*
X10703515Y-13486079D01*
X10703515Y-13486079D02*
X10713039Y-13524174D01*
X10713039Y-13524174D02*
X10713039Y-13571793D01*
X10713039Y-13571793D02*
X10703515Y-13609889D01*
X10703515Y-13609889D02*
X10693991Y-13628936D01*
X10693991Y-13628936D02*
X10684467Y-13638460D01*
X10684467Y-13638460D02*
X10665420Y-13647984D01*
X10665420Y-13647984D02*
X10646372Y-13647984D01*
X10646372Y-13647984D02*
X10627324Y-13638460D01*
X10627324Y-13638460D02*
X10617801Y-13628936D01*
X10617801Y-13628936D02*
X10608277Y-13609889D01*
X10608277Y-13609889D02*
X10598753Y-13571793D01*
X10598753Y-13571793D02*
X10598753Y-13524174D01*
X10598753Y-13524174D02*
X10608277Y-13486079D01*
X10608277Y-13486079D02*
X10617801Y-13467032D01*
X10617801Y-13467032D02*
X10627324Y-13457508D01*
X10627324Y-13457508D02*
X10646372Y-13447984D01*
X10798753Y-13628936D02*
X10808277Y-13638460D01*
X10808277Y-13638460D02*
X10798753Y-13647984D01*
X10798753Y-13647984D02*
X10789229Y-13638460D01*
X10789229Y-13638460D02*
X10798753Y-13628936D01*
X10798753Y-13628936D02*
X10798753Y-13647984D01*
X10989229Y-13447984D02*
X10893991Y-13447984D01*
X10893991Y-13447984D02*
X10884467Y-13543222D01*
X10884467Y-13543222D02*
X10893991Y-13533698D01*
X10893991Y-13533698D02*
X10913039Y-13524174D01*
X10913039Y-13524174D02*
X10960658Y-13524174D01*
X10960658Y-13524174D02*
X10979705Y-13533698D01*
X10979705Y-13533698D02*
X10989229Y-13543222D01*
X10989229Y-13543222D02*
X10998753Y-13562270D01*
X10998753Y-13562270D02*
X10998753Y-13609889D01*
X10998753Y-13609889D02*
X10989229Y-13628936D01*
X10989229Y-13628936D02*
X10979705Y-13638460D01*
X10979705Y-13638460D02*
X10960658Y-13647984D01*
X10960658Y-13647984D02*
X10913039Y-13647984D01*
X10913039Y-13647984D02*
X10893991Y-13638460D01*
X10893991Y-13638460D02*
X10884467Y-13628936D01*
X11122562Y-13447984D02*
X11141610Y-13447984D01*
X11141610Y-13447984D02*
X11160658Y-13457508D01*
X11160658Y-13457508D02*
X11170182Y-13467032D01*
X11170182Y-13467032D02*
X11179705Y-13486079D01*
X11179705Y-13486079D02*
X11189229Y-13524174D01*
X11189229Y-13524174D02*
X11189229Y-13571793D01*
X11189229Y-13571793D02*
X11179705Y-13609889D01*
X11179705Y-13609889D02*
X11170182Y-13628936D01*
X11170182Y-13628936D02*
X11160658Y-13638460D01*
X11160658Y-13638460D02*
X11141610Y-13647984D01*
X11141610Y-13647984D02*
X11122562Y-13647984D01*
X11122562Y-13647984D02*
X11103515Y-13638460D01*
X11103515Y-13638460D02*
X11093991Y-13628936D01*
X11093991Y-13628936D02*
X11084467Y-13609889D01*
X11084467Y-13609889D02*
X11074943Y-13571793D01*
X11074943Y-13571793D02*
X11074943Y-13524174D01*
X11074943Y-13524174D02*
X11084467Y-13486079D01*
X11084467Y-13486079D02*
X11093991Y-13467032D01*
X11093991Y-13467032D02*
X11103515Y-13457508D01*
X11103515Y-13457508D02*
X11122562Y-13447984D01*
X11313039Y-13447984D02*
X11332086Y-13447984D01*
X11332086Y-13447984D02*
X11351134Y-13457508D01*
X11351134Y-13457508D02*
X11360658Y-13467032D01*
X11360658Y-13467032D02*
X11370181Y-13486079D01*
X11370181Y-13486079D02*
X11379705Y-13524174D01*
X11379705Y-13524174D02*
X11379705Y-13571793D01*
X11379705Y-13571793D02*
X11370181Y-13609889D01*
X11370181Y-13609889D02*
X11360658Y-13628936D01*
X11360658Y-13628936D02*
X11351134Y-13638460D01*
X11351134Y-13638460D02*
X11332086Y-13647984D01*
X11332086Y-13647984D02*
X11313039Y-13647984D01*
X11313039Y-13647984D02*
X11293991Y-13638460D01*
X11293991Y-13638460D02*
X11284467Y-13628936D01*
X11284467Y-13628936D02*
X11274943Y-13609889D01*
X11274943Y-13609889D02*
X11265420Y-13571793D01*
X11265420Y-13571793D02*
X11265420Y-13524174D01*
X11265420Y-13524174D02*
X11274943Y-13486079D01*
X11274943Y-13486079D02*
X11284467Y-13467032D01*
X11284467Y-13467032D02*
X11293991Y-13457508D01*
X11293991Y-13457508D02*
X11313039Y-13447984D01*
X11465420Y-13647984D02*
X11465420Y-13514651D01*
X11465420Y-13533698D02*
X11474943Y-13524174D01*
X11474943Y-13524174D02*
X11493991Y-13514651D01*
X11493991Y-13514651D02*
X11522562Y-13514651D01*
X11522562Y-13514651D02*
X11541610Y-13524174D01*
X11541610Y-13524174D02*
X11551134Y-13543222D01*
X11551134Y-13543222D02*
X11551134Y-13647984D01*
X11551134Y-13543222D02*
X11560658Y-13524174D01*
X11560658Y-13524174D02*
X11579705Y-13514651D01*
X11579705Y-13514651D02*
X11608277Y-13514651D01*
X11608277Y-13514651D02*
X11627324Y-13524174D01*
X11627324Y-13524174D02*
X11636848Y-13543222D01*
X11636848Y-13543222D02*
X11636848Y-13647984D01*
X11732086Y-13647984D02*
X11732086Y-13514651D01*
X11732086Y-13533698D02*
X11741610Y-13524174D01*
X11741610Y-13524174D02*
X11760658Y-13514651D01*
X11760658Y-13514651D02*
X11789229Y-13514651D01*
X11789229Y-13514651D02*
X11808277Y-13524174D01*
X11808277Y-13524174D02*
X11817801Y-13543222D01*
X11817801Y-13543222D02*
X11817801Y-13647984D01*
X11817801Y-13543222D02*
X11827324Y-13524174D01*
X11827324Y-13524174D02*
X11846372Y-13514651D01*
X11846372Y-13514651D02*
X11874943Y-13514651D01*
X11874943Y-13514651D02*
X11893991Y-13524174D01*
X11893991Y-13524174D02*
X11903515Y-13543222D01*
X11903515Y-13543222D02*
X11903515Y-13647984D01*
X12293991Y-13438460D02*
X12122563Y-13695603D01*
X12551134Y-13447984D02*
X12570182Y-13447984D01*
X12570182Y-13447984D02*
X12589229Y-13457508D01*
X12589229Y-13457508D02*
X12598753Y-13467032D01*
X12598753Y-13467032D02*
X12608277Y-13486079D01*
X12608277Y-13486079D02*
X12617801Y-13524174D01*
X12617801Y-13524174D02*
X12617801Y-13571793D01*
X12617801Y-13571793D02*
X12608277Y-13609889D01*
X12608277Y-13609889D02*
X12598753Y-13628936D01*
X12598753Y-13628936D02*
X12589229Y-13638460D01*
X12589229Y-13638460D02*
X12570182Y-13647984D01*
X12570182Y-13647984D02*
X12551134Y-13647984D01*
X12551134Y-13647984D02*
X12532086Y-13638460D01*
X12532086Y-13638460D02*
X12522563Y-13628936D01*
X12522563Y-13628936D02*
X12513039Y-13609889D01*
X12513039Y-13609889D02*
X12503515Y-13571793D01*
X12503515Y-13571793D02*
X12503515Y-13524174D01*
X12503515Y-13524174D02*
X12513039Y-13486079D01*
X12513039Y-13486079D02*
X12522563Y-13467032D01*
X12522563Y-13467032D02*
X12532086Y-13457508D01*
X12532086Y-13457508D02*
X12551134Y-13447984D01*
X12703515Y-13628936D02*
X12713039Y-13638460D01*
X12713039Y-13638460D02*
X12703515Y-13647984D01*
X12703515Y-13647984D02*
X12693991Y-13638460D01*
X12693991Y-13638460D02*
X12703515Y-13628936D01*
X12703515Y-13628936D02*
X12703515Y-13647984D01*
X12836848Y-13447984D02*
X12855896Y-13447984D01*
X12855896Y-13447984D02*
X12874944Y-13457508D01*
X12874944Y-13457508D02*
X12884467Y-13467032D01*
X12884467Y-13467032D02*
X12893991Y-13486079D01*
X12893991Y-13486079D02*
X12903515Y-13524174D01*
X12903515Y-13524174D02*
X12903515Y-13571793D01*
X12903515Y-13571793D02*
X12893991Y-13609889D01*
X12893991Y-13609889D02*
X12884467Y-13628936D01*
X12884467Y-13628936D02*
X12874944Y-13638460D01*
X12874944Y-13638460D02*
X12855896Y-13647984D01*
X12855896Y-13647984D02*
X12836848Y-13647984D01*
X12836848Y-13647984D02*
X12817801Y-13638460D01*
X12817801Y-13638460D02*
X12808277Y-13628936D01*
X12808277Y-13628936D02*
X12798753Y-13609889D01*
X12798753Y-13609889D02*
X12789229Y-13571793D01*
X12789229Y-13571793D02*
X12789229Y-13524174D01*
X12789229Y-13524174D02*
X12798753Y-13486079D01*
X12798753Y-13486079D02*
X12808277Y-13467032D01*
X12808277Y-13467032D02*
X12817801Y-13457508D01*
X12817801Y-13457508D02*
X12836848Y-13447984D01*
X13093991Y-13647984D02*
X12979705Y-13647984D01*
X13036848Y-13647984D02*
X13036848Y-13447984D01*
X13036848Y-13447984D02*
X13017801Y-13476555D01*
X13017801Y-13476555D02*
X12998753Y-13495603D01*
X12998753Y-13495603D02*
X12979705Y-13505127D01*
X13189229Y-13647984D02*
X13227324Y-13647984D01*
X13227324Y-13647984D02*
X13246372Y-13638460D01*
X13246372Y-13638460D02*
X13255896Y-13628936D01*
X13255896Y-13628936D02*
X13274944Y-13600365D01*
X13274944Y-13600365D02*
X13284467Y-13562270D01*
X13284467Y-13562270D02*
X13284467Y-13486079D01*
X13284467Y-13486079D02*
X13274944Y-13467032D01*
X13274944Y-13467032D02*
X13265420Y-13457508D01*
X13265420Y-13457508D02*
X13246372Y-13447984D01*
X13246372Y-13447984D02*
X13208277Y-13447984D01*
X13208277Y-13447984D02*
X13189229Y-13457508D01*
X13189229Y-13457508D02*
X13179705Y-13467032D01*
X13179705Y-13467032D02*
X13170182Y-13486079D01*
X13170182Y-13486079D02*
X13170182Y-13533698D01*
X13170182Y-13533698D02*
X13179705Y-13552746D01*
X13179705Y-13552746D02*
X13189229Y-13562270D01*
X13189229Y-13562270D02*
X13208277Y-13571793D01*
X13208277Y-13571793D02*
X13246372Y-13571793D01*
X13246372Y-13571793D02*
X13265420Y-13562270D01*
X13265420Y-13562270D02*
X13274944Y-13552746D01*
X13274944Y-13552746D02*
X13284467Y-13533698D01*
X13351134Y-13447984D02*
X13484467Y-13447984D01*
X13484467Y-13447984D02*
X13398753Y-13647984D01*
X13551134Y-13447984D02*
X13551134Y-13486079D01*
X13627325Y-13447984D02*
X13627325Y-13486079D01*
X13922563Y-13724174D02*
X13913039Y-13714651D01*
X13913039Y-13714651D02*
X13893991Y-13686079D01*
X13893991Y-13686079D02*
X13884467Y-13667032D01*
X13884467Y-13667032D02*
X13874944Y-13638460D01*
X13874944Y-13638460D02*
X13865420Y-13590841D01*
X13865420Y-13590841D02*
X13865420Y-13552746D01*
X13865420Y-13552746D02*
X13874944Y-13505127D01*
X13874944Y-13505127D02*
X13884467Y-13476555D01*
X13884467Y-13476555D02*
X13893991Y-13457508D01*
X13893991Y-13457508D02*
X13913039Y-13428936D01*
X13913039Y-13428936D02*
X13922563Y-13419412D01*
X14103515Y-13647984D02*
X13989229Y-13647984D01*
X14046372Y-13647984D02*
X14046372Y-13447984D01*
X14046372Y-13447984D02*
X14027325Y-13476555D01*
X14027325Y-13476555D02*
X14008277Y-13495603D01*
X14008277Y-13495603D02*
X13989229Y-13505127D01*
X14274944Y-13447984D02*
X14236848Y-13447984D01*
X14236848Y-13447984D02*
X14217801Y-13457508D01*
X14217801Y-13457508D02*
X14208277Y-13467032D01*
X14208277Y-13467032D02*
X14189229Y-13495603D01*
X14189229Y-13495603D02*
X14179706Y-13533698D01*
X14179706Y-13533698D02*
X14179706Y-13609889D01*
X14179706Y-13609889D02*
X14189229Y-13628936D01*
X14189229Y-13628936D02*
X14198753Y-13638460D01*
X14198753Y-13638460D02*
X14217801Y-13647984D01*
X14217801Y-13647984D02*
X14255896Y-13647984D01*
X14255896Y-13647984D02*
X14274944Y-13638460D01*
X14274944Y-13638460D02*
X14284467Y-13628936D01*
X14284467Y-13628936D02*
X14293991Y-13609889D01*
X14293991Y-13609889D02*
X14293991Y-13562270D01*
X14293991Y-13562270D02*
X14284467Y-13543222D01*
X14284467Y-13543222D02*
X14274944Y-13533698D01*
X14274944Y-13533698D02*
X14255896Y-13524174D01*
X14255896Y-13524174D02*
X14217801Y-13524174D01*
X14217801Y-13524174D02*
X14198753Y-13533698D01*
X14198753Y-13533698D02*
X14189229Y-13543222D01*
X14189229Y-13543222D02*
X14179706Y-13562270D01*
X14532087Y-13647984D02*
X14532087Y-13447984D01*
X14617801Y-13647984D02*
X14617801Y-13543222D01*
X14617801Y-13543222D02*
X14608277Y-13524174D01*
X14608277Y-13524174D02*
X14589229Y-13514651D01*
X14589229Y-13514651D02*
X14560658Y-13514651D01*
X14560658Y-13514651D02*
X14541610Y-13524174D01*
X14541610Y-13524174D02*
X14532087Y-13533698D01*
X14741610Y-13647984D02*
X14722563Y-13638460D01*
X14722563Y-13638460D02*
X14713039Y-13628936D01*
X14713039Y-13628936D02*
X14703515Y-13609889D01*
X14703515Y-13609889D02*
X14703515Y-13552746D01*
X14703515Y-13552746D02*
X14713039Y-13533698D01*
X14713039Y-13533698D02*
X14722563Y-13524174D01*
X14722563Y-13524174D02*
X14741610Y-13514651D01*
X14741610Y-13514651D02*
X14770182Y-13514651D01*
X14770182Y-13514651D02*
X14789229Y-13524174D01*
X14789229Y-13524174D02*
X14798753Y-13533698D01*
X14798753Y-13533698D02*
X14808277Y-13552746D01*
X14808277Y-13552746D02*
X14808277Y-13609889D01*
X14808277Y-13609889D02*
X14798753Y-13628936D01*
X14798753Y-13628936D02*
X14789229Y-13638460D01*
X14789229Y-13638460D02*
X14770182Y-13647984D01*
X14770182Y-13647984D02*
X14741610Y-13647984D01*
X14922563Y-13647984D02*
X14903515Y-13638460D01*
X14903515Y-13638460D02*
X14893991Y-13619412D01*
X14893991Y-13619412D02*
X14893991Y-13447984D01*
X15074944Y-13638460D02*
X15055896Y-13647984D01*
X15055896Y-13647984D02*
X15017801Y-13647984D01*
X15017801Y-13647984D02*
X14998753Y-13638460D01*
X14998753Y-13638460D02*
X14989229Y-13619412D01*
X14989229Y-13619412D02*
X14989229Y-13543222D01*
X14989229Y-13543222D02*
X14998753Y-13524174D01*
X14998753Y-13524174D02*
X15017801Y-13514651D01*
X15017801Y-13514651D02*
X15055896Y-13514651D01*
X15055896Y-13514651D02*
X15074944Y-13524174D01*
X15074944Y-13524174D02*
X15084468Y-13543222D01*
X15084468Y-13543222D02*
X15084468Y-13562270D01*
X15084468Y-13562270D02*
X14989229Y-13581317D01*
X15160658Y-13638460D02*
X15179706Y-13647984D01*
X15179706Y-13647984D02*
X15217801Y-13647984D01*
X15217801Y-13647984D02*
X15236849Y-13638460D01*
X15236849Y-13638460D02*
X15246372Y-13619412D01*
X15246372Y-13619412D02*
X15246372Y-13609889D01*
X15246372Y-13609889D02*
X15236849Y-13590841D01*
X15236849Y-13590841D02*
X15217801Y-13581317D01*
X15217801Y-13581317D02*
X15189229Y-13581317D01*
X15189229Y-13581317D02*
X15170182Y-13571793D01*
X15170182Y-13571793D02*
X15160658Y-13552746D01*
X15160658Y-13552746D02*
X15160658Y-13543222D01*
X15160658Y-13543222D02*
X15170182Y-13524174D01*
X15170182Y-13524174D02*
X15189229Y-13514651D01*
X15189229Y-13514651D02*
X15217801Y-13514651D01*
X15217801Y-13514651D02*
X15236849Y-13524174D01*
X15313039Y-13724174D02*
X15322563Y-13714651D01*
X15322563Y-13714651D02*
X15341610Y-13686079D01*
X15341610Y-13686079D02*
X15351134Y-13667032D01*
X15351134Y-13667032D02*
X15360658Y-13638460D01*
X15360658Y-13638460D02*
X15370182Y-13590841D01*
X15370182Y-13590841D02*
X15370182Y-13552746D01*
X15370182Y-13552746D02*
X15360658Y-13505127D01*
X15360658Y-13505127D02*
X15351134Y-13476555D01*
X15351134Y-13476555D02*
X15341610Y-13457508D01*
X15341610Y-13457508D02*
X15322563Y-13428936D01*
X15322563Y-13428936D02*
X15313039Y-13419412D01*
D12*
X10317500Y-13790500D02*
X10317500Y-13850500D01*
X10287500Y-13820500D02*
X10347500Y-13820500D01*
D11*
X10646372Y-13711984D02*
X10665420Y-13711984D01*
X10665420Y-13711984D02*
X10684467Y-13721508D01*
X10684467Y-13721508D02*
X10693991Y-13731032D01*
X10693991Y-13731032D02*
X10703515Y-13750079D01*
X10703515Y-13750079D02*
X10713039Y-13788174D01*
X10713039Y-13788174D02*
X10713039Y-13835793D01*
X10713039Y-13835793D02*
X10703515Y-13873889D01*
X10703515Y-13873889D02*
X10693991Y-13892936D01*
X10693991Y-13892936D02*
X10684467Y-13902460D01*
X10684467Y-13902460D02*
X10665420Y-13911984D01*
X10665420Y-13911984D02*
X10646372Y-13911984D01*
X10646372Y-13911984D02*
X10627324Y-13902460D01*
X10627324Y-13902460D02*
X10617801Y-13892936D01*
X10617801Y-13892936D02*
X10608277Y-13873889D01*
X10608277Y-13873889D02*
X10598753Y-13835793D01*
X10598753Y-13835793D02*
X10598753Y-13788174D01*
X10598753Y-13788174D02*
X10608277Y-13750079D01*
X10608277Y-13750079D02*
X10617801Y-13731032D01*
X10617801Y-13731032D02*
X10627324Y-13721508D01*
X10627324Y-13721508D02*
X10646372Y-13711984D01*
X10798753Y-13892936D02*
X10808277Y-13902460D01*
X10808277Y-13902460D02*
X10798753Y-13911984D01*
X10798753Y-13911984D02*
X10789229Y-13902460D01*
X10789229Y-13902460D02*
X10798753Y-13892936D01*
X10798753Y-13892936D02*
X10798753Y-13911984D01*
X10979705Y-13711984D02*
X10941610Y-13711984D01*
X10941610Y-13711984D02*
X10922562Y-13721508D01*
X10922562Y-13721508D02*
X10913039Y-13731032D01*
X10913039Y-13731032D02*
X10893991Y-13759603D01*
X10893991Y-13759603D02*
X10884467Y-13797698D01*
X10884467Y-13797698D02*
X10884467Y-13873889D01*
X10884467Y-13873889D02*
X10893991Y-13892936D01*
X10893991Y-13892936D02*
X10903515Y-13902460D01*
X10903515Y-13902460D02*
X10922562Y-13911984D01*
X10922562Y-13911984D02*
X10960658Y-13911984D01*
X10960658Y-13911984D02*
X10979705Y-13902460D01*
X10979705Y-13902460D02*
X10989229Y-13892936D01*
X10989229Y-13892936D02*
X10998753Y-13873889D01*
X10998753Y-13873889D02*
X10998753Y-13826270D01*
X10998753Y-13826270D02*
X10989229Y-13807222D01*
X10989229Y-13807222D02*
X10979705Y-13797698D01*
X10979705Y-13797698D02*
X10960658Y-13788174D01*
X10960658Y-13788174D02*
X10922562Y-13788174D01*
X10922562Y-13788174D02*
X10903515Y-13797698D01*
X10903515Y-13797698D02*
X10893991Y-13807222D01*
X10893991Y-13807222D02*
X10884467Y-13826270D01*
X11122562Y-13711984D02*
X11141610Y-13711984D01*
X11141610Y-13711984D02*
X11160658Y-13721508D01*
X11160658Y-13721508D02*
X11170182Y-13731032D01*
X11170182Y-13731032D02*
X11179705Y-13750079D01*
X11179705Y-13750079D02*
X11189229Y-13788174D01*
X11189229Y-13788174D02*
X11189229Y-13835793D01*
X11189229Y-13835793D02*
X11179705Y-13873889D01*
X11179705Y-13873889D02*
X11170182Y-13892936D01*
X11170182Y-13892936D02*
X11160658Y-13902460D01*
X11160658Y-13902460D02*
X11141610Y-13911984D01*
X11141610Y-13911984D02*
X11122562Y-13911984D01*
X11122562Y-13911984D02*
X11103515Y-13902460D01*
X11103515Y-13902460D02*
X11093991Y-13892936D01*
X11093991Y-13892936D02*
X11084467Y-13873889D01*
X11084467Y-13873889D02*
X11074943Y-13835793D01*
X11074943Y-13835793D02*
X11074943Y-13788174D01*
X11074943Y-13788174D02*
X11084467Y-13750079D01*
X11084467Y-13750079D02*
X11093991Y-13731032D01*
X11093991Y-13731032D02*
X11103515Y-13721508D01*
X11103515Y-13721508D02*
X11122562Y-13711984D01*
X11313039Y-13711984D02*
X11332086Y-13711984D01*
X11332086Y-13711984D02*
X11351134Y-13721508D01*
X11351134Y-13721508D02*
X11360658Y-13731032D01*
X11360658Y-13731032D02*
X11370181Y-13750079D01*
X11370181Y-13750079D02*
X11379705Y-13788174D01*
X11379705Y-13788174D02*
X11379705Y-13835793D01*
X11379705Y-13835793D02*
X11370181Y-13873889D01*
X11370181Y-13873889D02*
X11360658Y-13892936D01*
X11360658Y-13892936D02*
X11351134Y-13902460D01*
X11351134Y-13902460D02*
X11332086Y-13911984D01*
X11332086Y-13911984D02*
X11313039Y-13911984D01*
X11313039Y-13911984D02*
X11293991Y-13902460D01*
X11293991Y-13902460D02*
X11284467Y-13892936D01*
X11284467Y-13892936D02*
X11274943Y-13873889D01*
X11274943Y-13873889D02*
X11265420Y-13835793D01*
X11265420Y-13835793D02*
X11265420Y-13788174D01*
X11265420Y-13788174D02*
X11274943Y-13750079D01*
X11274943Y-13750079D02*
X11284467Y-13731032D01*
X11284467Y-13731032D02*
X11293991Y-13721508D01*
X11293991Y-13721508D02*
X11313039Y-13711984D01*
X11465420Y-13911984D02*
X11465420Y-13778651D01*
X11465420Y-13797698D02*
X11474943Y-13788174D01*
X11474943Y-13788174D02*
X11493991Y-13778651D01*
X11493991Y-13778651D02*
X11522562Y-13778651D01*
X11522562Y-13778651D02*
X11541610Y-13788174D01*
X11541610Y-13788174D02*
X11551134Y-13807222D01*
X11551134Y-13807222D02*
X11551134Y-13911984D01*
X11551134Y-13807222D02*
X11560658Y-13788174D01*
X11560658Y-13788174D02*
X11579705Y-13778651D01*
X11579705Y-13778651D02*
X11608277Y-13778651D01*
X11608277Y-13778651D02*
X11627324Y-13788174D01*
X11627324Y-13788174D02*
X11636848Y-13807222D01*
X11636848Y-13807222D02*
X11636848Y-13911984D01*
X11732086Y-13911984D02*
X11732086Y-13778651D01*
X11732086Y-13797698D02*
X11741610Y-13788174D01*
X11741610Y-13788174D02*
X11760658Y-13778651D01*
X11760658Y-13778651D02*
X11789229Y-13778651D01*
X11789229Y-13778651D02*
X11808277Y-13788174D01*
X11808277Y-13788174D02*
X11817801Y-13807222D01*
X11817801Y-13807222D02*
X11817801Y-13911984D01*
X11817801Y-13807222D02*
X11827324Y-13788174D01*
X11827324Y-13788174D02*
X11846372Y-13778651D01*
X11846372Y-13778651D02*
X11874943Y-13778651D01*
X11874943Y-13778651D02*
X11893991Y-13788174D01*
X11893991Y-13788174D02*
X11903515Y-13807222D01*
X11903515Y-13807222D02*
X11903515Y-13911984D01*
X12293991Y-13702460D02*
X12122563Y-13959603D01*
X12551134Y-13711984D02*
X12570182Y-13711984D01*
X12570182Y-13711984D02*
X12589229Y-13721508D01*
X12589229Y-13721508D02*
X12598753Y-13731032D01*
X12598753Y-13731032D02*
X12608277Y-13750079D01*
X12608277Y-13750079D02*
X12617801Y-13788174D01*
X12617801Y-13788174D02*
X12617801Y-13835793D01*
X12617801Y-13835793D02*
X12608277Y-13873889D01*
X12608277Y-13873889D02*
X12598753Y-13892936D01*
X12598753Y-13892936D02*
X12589229Y-13902460D01*
X12589229Y-13902460D02*
X12570182Y-13911984D01*
X12570182Y-13911984D02*
X12551134Y-13911984D01*
X12551134Y-13911984D02*
X12532086Y-13902460D01*
X12532086Y-13902460D02*
X12522563Y-13892936D01*
X12522563Y-13892936D02*
X12513039Y-13873889D01*
X12513039Y-13873889D02*
X12503515Y-13835793D01*
X12503515Y-13835793D02*
X12503515Y-13788174D01*
X12503515Y-13788174D02*
X12513039Y-13750079D01*
X12513039Y-13750079D02*
X12522563Y-13731032D01*
X12522563Y-13731032D02*
X12532086Y-13721508D01*
X12532086Y-13721508D02*
X12551134Y-13711984D01*
X12703515Y-13892936D02*
X12713039Y-13902460D01*
X12713039Y-13902460D02*
X12703515Y-13911984D01*
X12703515Y-13911984D02*
X12693991Y-13902460D01*
X12693991Y-13902460D02*
X12703515Y-13892936D01*
X12703515Y-13892936D02*
X12703515Y-13911984D01*
X12836848Y-13711984D02*
X12855896Y-13711984D01*
X12855896Y-13711984D02*
X12874944Y-13721508D01*
X12874944Y-13721508D02*
X12884467Y-13731032D01*
X12884467Y-13731032D02*
X12893991Y-13750079D01*
X12893991Y-13750079D02*
X12903515Y-13788174D01*
X12903515Y-13788174D02*
X12903515Y-13835793D01*
X12903515Y-13835793D02*
X12893991Y-13873889D01*
X12893991Y-13873889D02*
X12884467Y-13892936D01*
X12884467Y-13892936D02*
X12874944Y-13902460D01*
X12874944Y-13902460D02*
X12855896Y-13911984D01*
X12855896Y-13911984D02*
X12836848Y-13911984D01*
X12836848Y-13911984D02*
X12817801Y-13902460D01*
X12817801Y-13902460D02*
X12808277Y-13892936D01*
X12808277Y-13892936D02*
X12798753Y-13873889D01*
X12798753Y-13873889D02*
X12789229Y-13835793D01*
X12789229Y-13835793D02*
X12789229Y-13788174D01*
X12789229Y-13788174D02*
X12798753Y-13750079D01*
X12798753Y-13750079D02*
X12808277Y-13731032D01*
X12808277Y-13731032D02*
X12817801Y-13721508D01*
X12817801Y-13721508D02*
X12836848Y-13711984D01*
X12979705Y-13731032D02*
X12989229Y-13721508D01*
X12989229Y-13721508D02*
X13008277Y-13711984D01*
X13008277Y-13711984D02*
X13055896Y-13711984D01*
X13055896Y-13711984D02*
X13074944Y-13721508D01*
X13074944Y-13721508D02*
X13084467Y-13731032D01*
X13084467Y-13731032D02*
X13093991Y-13750079D01*
X13093991Y-13750079D02*
X13093991Y-13769127D01*
X13093991Y-13769127D02*
X13084467Y-13797698D01*
X13084467Y-13797698D02*
X12970182Y-13911984D01*
X12970182Y-13911984D02*
X13093991Y-13911984D01*
X13160658Y-13711984D02*
X13284467Y-13711984D01*
X13284467Y-13711984D02*
X13217801Y-13788174D01*
X13217801Y-13788174D02*
X13246372Y-13788174D01*
X13246372Y-13788174D02*
X13265420Y-13797698D01*
X13265420Y-13797698D02*
X13274944Y-13807222D01*
X13274944Y-13807222D02*
X13284467Y-13826270D01*
X13284467Y-13826270D02*
X13284467Y-13873889D01*
X13284467Y-13873889D02*
X13274944Y-13892936D01*
X13274944Y-13892936D02*
X13265420Y-13902460D01*
X13265420Y-13902460D02*
X13246372Y-13911984D01*
X13246372Y-13911984D02*
X13189229Y-13911984D01*
X13189229Y-13911984D02*
X13170182Y-13902460D01*
X13170182Y-13902460D02*
X13160658Y-13892936D01*
X13455896Y-13711984D02*
X13417801Y-13711984D01*
X13417801Y-13711984D02*
X13398753Y-13721508D01*
X13398753Y-13721508D02*
X13389229Y-13731032D01*
X13389229Y-13731032D02*
X13370182Y-13759603D01*
X13370182Y-13759603D02*
X13360658Y-13797698D01*
X13360658Y-13797698D02*
X13360658Y-13873889D01*
X13360658Y-13873889D02*
X13370182Y-13892936D01*
X13370182Y-13892936D02*
X13379705Y-13902460D01*
X13379705Y-13902460D02*
X13398753Y-13911984D01*
X13398753Y-13911984D02*
X13436848Y-13911984D01*
X13436848Y-13911984D02*
X13455896Y-13902460D01*
X13455896Y-13902460D02*
X13465420Y-13892936D01*
X13465420Y-13892936D02*
X13474944Y-13873889D01*
X13474944Y-13873889D02*
X13474944Y-13826270D01*
X13474944Y-13826270D02*
X13465420Y-13807222D01*
X13465420Y-13807222D02*
X13455896Y-13797698D01*
X13455896Y-13797698D02*
X13436848Y-13788174D01*
X13436848Y-13788174D02*
X13398753Y-13788174D01*
X13398753Y-13788174D02*
X13379705Y-13797698D01*
X13379705Y-13797698D02*
X13370182Y-13807222D01*
X13370182Y-13807222D02*
X13360658Y-13826270D01*
X13551134Y-13711984D02*
X13551134Y-13750079D01*
X13627325Y-13711984D02*
X13627325Y-13750079D01*
X13922563Y-13988174D02*
X13913039Y-13978651D01*
X13913039Y-13978651D02*
X13893991Y-13950079D01*
X13893991Y-13950079D02*
X13884467Y-13931032D01*
X13884467Y-13931032D02*
X13874944Y-13902460D01*
X13874944Y-13902460D02*
X13865420Y-13854841D01*
X13865420Y-13854841D02*
X13865420Y-13816746D01*
X13865420Y-13816746D02*
X13874944Y-13769127D01*
X13874944Y-13769127D02*
X13884467Y-13740555D01*
X13884467Y-13740555D02*
X13893991Y-13721508D01*
X13893991Y-13721508D02*
X13913039Y-13692936D01*
X13913039Y-13692936D02*
X13922563Y-13683412D01*
X13989229Y-13731032D02*
X13998753Y-13721508D01*
X13998753Y-13721508D02*
X14017801Y-13711984D01*
X14017801Y-13711984D02*
X14065420Y-13711984D01*
X14065420Y-13711984D02*
X14084467Y-13721508D01*
X14084467Y-13721508D02*
X14093991Y-13731032D01*
X14093991Y-13731032D02*
X14103515Y-13750079D01*
X14103515Y-13750079D02*
X14103515Y-13769127D01*
X14103515Y-13769127D02*
X14093991Y-13797698D01*
X14093991Y-13797698D02*
X13979706Y-13911984D01*
X13979706Y-13911984D02*
X14103515Y-13911984D01*
X14274944Y-13711984D02*
X14236848Y-13711984D01*
X14236848Y-13711984D02*
X14217801Y-13721508D01*
X14217801Y-13721508D02*
X14208277Y-13731032D01*
X14208277Y-13731032D02*
X14189229Y-13759603D01*
X14189229Y-13759603D02*
X14179706Y-13797698D01*
X14179706Y-13797698D02*
X14179706Y-13873889D01*
X14179706Y-13873889D02*
X14189229Y-13892936D01*
X14189229Y-13892936D02*
X14198753Y-13902460D01*
X14198753Y-13902460D02*
X14217801Y-13911984D01*
X14217801Y-13911984D02*
X14255896Y-13911984D01*
X14255896Y-13911984D02*
X14274944Y-13902460D01*
X14274944Y-13902460D02*
X14284467Y-13892936D01*
X14284467Y-13892936D02*
X14293991Y-13873889D01*
X14293991Y-13873889D02*
X14293991Y-13826270D01*
X14293991Y-13826270D02*
X14284467Y-13807222D01*
X14284467Y-13807222D02*
X14274944Y-13797698D01*
X14274944Y-13797698D02*
X14255896Y-13788174D01*
X14255896Y-13788174D02*
X14217801Y-13788174D01*
X14217801Y-13788174D02*
X14198753Y-13797698D01*
X14198753Y-13797698D02*
X14189229Y-13807222D01*
X14189229Y-13807222D02*
X14179706Y-13826270D01*
X14532087Y-13911984D02*
X14532087Y-13711984D01*
X14617801Y-13911984D02*
X14617801Y-13807222D01*
X14617801Y-13807222D02*
X14608277Y-13788174D01*
X14608277Y-13788174D02*
X14589229Y-13778651D01*
X14589229Y-13778651D02*
X14560658Y-13778651D01*
X14560658Y-13778651D02*
X14541610Y-13788174D01*
X14541610Y-13788174D02*
X14532087Y-13797698D01*
X14741610Y-13911984D02*
X14722563Y-13902460D01*
X14722563Y-13902460D02*
X14713039Y-13892936D01*
X14713039Y-13892936D02*
X14703515Y-13873889D01*
X14703515Y-13873889D02*
X14703515Y-13816746D01*
X14703515Y-13816746D02*
X14713039Y-13797698D01*
X14713039Y-13797698D02*
X14722563Y-13788174D01*
X14722563Y-13788174D02*
X14741610Y-13778651D01*
X14741610Y-13778651D02*
X14770182Y-13778651D01*
X14770182Y-13778651D02*
X14789229Y-13788174D01*
X14789229Y-13788174D02*
X14798753Y-13797698D01*
X14798753Y-13797698D02*
X14808277Y-13816746D01*
X14808277Y-13816746D02*
X14808277Y-13873889D01*
X14808277Y-13873889D02*
X14798753Y-13892936D01*
X14798753Y-13892936D02*
X14789229Y-13902460D01*
X14789229Y-13902460D02*
X14770182Y-13911984D01*
X14770182Y-13911984D02*
X14741610Y-13911984D01*
X14922563Y-13911984D02*
X14903515Y-13902460D01*
X14903515Y-13902460D02*
X14893991Y-13883412D01*
X14893991Y-13883412D02*
X14893991Y-13711984D01*
X15074944Y-13902460D02*
X15055896Y-13911984D01*
X15055896Y-13911984D02*
X15017801Y-13911984D01*
X15017801Y-13911984D02*
X14998753Y-13902460D01*
X14998753Y-13902460D02*
X14989229Y-13883412D01*
X14989229Y-13883412D02*
X14989229Y-13807222D01*
X14989229Y-13807222D02*
X14998753Y-13788174D01*
X14998753Y-13788174D02*
X15017801Y-13778651D01*
X15017801Y-13778651D02*
X15055896Y-13778651D01*
X15055896Y-13778651D02*
X15074944Y-13788174D01*
X15074944Y-13788174D02*
X15084468Y-13807222D01*
X15084468Y-13807222D02*
X15084468Y-13826270D01*
X15084468Y-13826270D02*
X14989229Y-13845317D01*
X15160658Y-13902460D02*
X15179706Y-13911984D01*
X15179706Y-13911984D02*
X15217801Y-13911984D01*
X15217801Y-13911984D02*
X15236849Y-13902460D01*
X15236849Y-13902460D02*
X15246372Y-13883412D01*
X15246372Y-13883412D02*
X15246372Y-13873889D01*
X15246372Y-13873889D02*
X15236849Y-13854841D01*
X15236849Y-13854841D02*
X15217801Y-13845317D01*
X15217801Y-13845317D02*
X15189229Y-13845317D01*
X15189229Y-13845317D02*
X15170182Y-13835793D01*
X15170182Y-13835793D02*
X15160658Y-13816746D01*
X15160658Y-13816746D02*
X15160658Y-13807222D01*
X15160658Y-13807222D02*
X15170182Y-13788174D01*
X15170182Y-13788174D02*
X15189229Y-13778651D01*
X15189229Y-13778651D02*
X15217801Y-13778651D01*
X15217801Y-13778651D02*
X15236849Y-13788174D01*
X15313039Y-13988174D02*
X15322563Y-13978651D01*
X15322563Y-13978651D02*
X15341610Y-13950079D01*
X15341610Y-13950079D02*
X15351134Y-13931032D01*
X15351134Y-13931032D02*
X15360658Y-13902460D01*
X15360658Y-13902460D02*
X15370182Y-13854841D01*
X15370182Y-13854841D02*
X15370182Y-13816746D01*
X15370182Y-13816746D02*
X15360658Y-13769127D01*
X15360658Y-13769127D02*
X15351134Y-13740555D01*
X15351134Y-13740555D02*
X15341610Y-13721508D01*
X15341610Y-13721508D02*
X15322563Y-13692936D01*
X15322563Y-13692936D02*
X15313039Y-13683412D01*
D12*
X10332856Y-14119856D02*
X10332856Y-14049144D01*
X10262144Y-14049144D01*
X10262144Y-14119856D01*
X10332856Y-14119856D01*
D11*
X10713039Y-14175984D02*
X10598753Y-14175984D01*
X10655896Y-14175984D02*
X10655896Y-13975984D01*
X10655896Y-13975984D02*
X10636848Y-14004555D01*
X10636848Y-14004555D02*
X10617801Y-14023603D01*
X10617801Y-14023603D02*
X10598753Y-14033127D01*
X10798753Y-14156936D02*
X10808277Y-14166460D01*
X10808277Y-14166460D02*
X10798753Y-14175984D01*
X10798753Y-14175984D02*
X10789229Y-14166460D01*
X10789229Y-14166460D02*
X10798753Y-14156936D01*
X10798753Y-14156936D02*
X10798753Y-14175984D01*
X10932086Y-13975984D02*
X10951134Y-13975984D01*
X10951134Y-13975984D02*
X10970182Y-13985508D01*
X10970182Y-13985508D02*
X10979705Y-13995032D01*
X10979705Y-13995032D02*
X10989229Y-14014079D01*
X10989229Y-14014079D02*
X10998753Y-14052174D01*
X10998753Y-14052174D02*
X10998753Y-14099793D01*
X10998753Y-14099793D02*
X10989229Y-14137889D01*
X10989229Y-14137889D02*
X10979705Y-14156936D01*
X10979705Y-14156936D02*
X10970182Y-14166460D01*
X10970182Y-14166460D02*
X10951134Y-14175984D01*
X10951134Y-14175984D02*
X10932086Y-14175984D01*
X10932086Y-14175984D02*
X10913039Y-14166460D01*
X10913039Y-14166460D02*
X10903515Y-14156936D01*
X10903515Y-14156936D02*
X10893991Y-14137889D01*
X10893991Y-14137889D02*
X10884467Y-14099793D01*
X10884467Y-14099793D02*
X10884467Y-14052174D01*
X10884467Y-14052174D02*
X10893991Y-14014079D01*
X10893991Y-14014079D02*
X10903515Y-13995032D01*
X10903515Y-13995032D02*
X10913039Y-13985508D01*
X10913039Y-13985508D02*
X10932086Y-13975984D01*
X11122562Y-13975984D02*
X11141610Y-13975984D01*
X11141610Y-13975984D02*
X11160658Y-13985508D01*
X11160658Y-13985508D02*
X11170182Y-13995032D01*
X11170182Y-13995032D02*
X11179705Y-14014079D01*
X11179705Y-14014079D02*
X11189229Y-14052174D01*
X11189229Y-14052174D02*
X11189229Y-14099793D01*
X11189229Y-14099793D02*
X11179705Y-14137889D01*
X11179705Y-14137889D02*
X11170182Y-14156936D01*
X11170182Y-14156936D02*
X11160658Y-14166460D01*
X11160658Y-14166460D02*
X11141610Y-14175984D01*
X11141610Y-14175984D02*
X11122562Y-14175984D01*
X11122562Y-14175984D02*
X11103515Y-14166460D01*
X11103515Y-14166460D02*
X11093991Y-14156936D01*
X11093991Y-14156936D02*
X11084467Y-14137889D01*
X11084467Y-14137889D02*
X11074943Y-14099793D01*
X11074943Y-14099793D02*
X11074943Y-14052174D01*
X11074943Y-14052174D02*
X11084467Y-14014079D01*
X11084467Y-14014079D02*
X11093991Y-13995032D01*
X11093991Y-13995032D02*
X11103515Y-13985508D01*
X11103515Y-13985508D02*
X11122562Y-13975984D01*
X11313039Y-13975984D02*
X11332086Y-13975984D01*
X11332086Y-13975984D02*
X11351134Y-13985508D01*
X11351134Y-13985508D02*
X11360658Y-13995032D01*
X11360658Y-13995032D02*
X11370181Y-14014079D01*
X11370181Y-14014079D02*
X11379705Y-14052174D01*
X11379705Y-14052174D02*
X11379705Y-14099793D01*
X11379705Y-14099793D02*
X11370181Y-14137889D01*
X11370181Y-14137889D02*
X11360658Y-14156936D01*
X11360658Y-14156936D02*
X11351134Y-14166460D01*
X11351134Y-14166460D02*
X11332086Y-14175984D01*
X11332086Y-14175984D02*
X11313039Y-14175984D01*
X11313039Y-14175984D02*
X11293991Y-14166460D01*
X11293991Y-14166460D02*
X11284467Y-14156936D01*
X11284467Y-14156936D02*
X11274943Y-14137889D01*
X11274943Y-14137889D02*
X11265420Y-14099793D01*
X11265420Y-14099793D02*
X11265420Y-14052174D01*
X11265420Y-14052174D02*
X11274943Y-14014079D01*
X11274943Y-14014079D02*
X11284467Y-13995032D01*
X11284467Y-13995032D02*
X11293991Y-13985508D01*
X11293991Y-13985508D02*
X11313039Y-13975984D01*
X11465420Y-14175984D02*
X11465420Y-14042651D01*
X11465420Y-14061698D02*
X11474943Y-14052174D01*
X11474943Y-14052174D02*
X11493991Y-14042651D01*
X11493991Y-14042651D02*
X11522562Y-14042651D01*
X11522562Y-14042651D02*
X11541610Y-14052174D01*
X11541610Y-14052174D02*
X11551134Y-14071222D01*
X11551134Y-14071222D02*
X11551134Y-14175984D01*
X11551134Y-14071222D02*
X11560658Y-14052174D01*
X11560658Y-14052174D02*
X11579705Y-14042651D01*
X11579705Y-14042651D02*
X11608277Y-14042651D01*
X11608277Y-14042651D02*
X11627324Y-14052174D01*
X11627324Y-14052174D02*
X11636848Y-14071222D01*
X11636848Y-14071222D02*
X11636848Y-14175984D01*
X11732086Y-14175984D02*
X11732086Y-14042651D01*
X11732086Y-14061698D02*
X11741610Y-14052174D01*
X11741610Y-14052174D02*
X11760658Y-14042651D01*
X11760658Y-14042651D02*
X11789229Y-14042651D01*
X11789229Y-14042651D02*
X11808277Y-14052174D01*
X11808277Y-14052174D02*
X11817801Y-14071222D01*
X11817801Y-14071222D02*
X11817801Y-14175984D01*
X11817801Y-14071222D02*
X11827324Y-14052174D01*
X11827324Y-14052174D02*
X11846372Y-14042651D01*
X11846372Y-14042651D02*
X11874943Y-14042651D01*
X11874943Y-14042651D02*
X11893991Y-14052174D01*
X11893991Y-14052174D02*
X11903515Y-14071222D01*
X11903515Y-14071222D02*
X11903515Y-14175984D01*
X12293991Y-13966460D02*
X12122563Y-14223603D01*
X12551134Y-13975984D02*
X12570182Y-13975984D01*
X12570182Y-13975984D02*
X12589229Y-13985508D01*
X12589229Y-13985508D02*
X12598753Y-13995032D01*
X12598753Y-13995032D02*
X12608277Y-14014079D01*
X12608277Y-14014079D02*
X12617801Y-14052174D01*
X12617801Y-14052174D02*
X12617801Y-14099793D01*
X12617801Y-14099793D02*
X12608277Y-14137889D01*
X12608277Y-14137889D02*
X12598753Y-14156936D01*
X12598753Y-14156936D02*
X12589229Y-14166460D01*
X12589229Y-14166460D02*
X12570182Y-14175984D01*
X12570182Y-14175984D02*
X12551134Y-14175984D01*
X12551134Y-14175984D02*
X12532086Y-14166460D01*
X12532086Y-14166460D02*
X12522563Y-14156936D01*
X12522563Y-14156936D02*
X12513039Y-14137889D01*
X12513039Y-14137889D02*
X12503515Y-14099793D01*
X12503515Y-14099793D02*
X12503515Y-14052174D01*
X12503515Y-14052174D02*
X12513039Y-14014079D01*
X12513039Y-14014079D02*
X12522563Y-13995032D01*
X12522563Y-13995032D02*
X12532086Y-13985508D01*
X12532086Y-13985508D02*
X12551134Y-13975984D01*
X12703515Y-14156936D02*
X12713039Y-14166460D01*
X12713039Y-14166460D02*
X12703515Y-14175984D01*
X12703515Y-14175984D02*
X12693991Y-14166460D01*
X12693991Y-14166460D02*
X12703515Y-14156936D01*
X12703515Y-14156936D02*
X12703515Y-14175984D01*
X12836848Y-13975984D02*
X12855896Y-13975984D01*
X12855896Y-13975984D02*
X12874944Y-13985508D01*
X12874944Y-13985508D02*
X12884467Y-13995032D01*
X12884467Y-13995032D02*
X12893991Y-14014079D01*
X12893991Y-14014079D02*
X12903515Y-14052174D01*
X12903515Y-14052174D02*
X12903515Y-14099793D01*
X12903515Y-14099793D02*
X12893991Y-14137889D01*
X12893991Y-14137889D02*
X12884467Y-14156936D01*
X12884467Y-14156936D02*
X12874944Y-14166460D01*
X12874944Y-14166460D02*
X12855896Y-14175984D01*
X12855896Y-14175984D02*
X12836848Y-14175984D01*
X12836848Y-14175984D02*
X12817801Y-14166460D01*
X12817801Y-14166460D02*
X12808277Y-14156936D01*
X12808277Y-14156936D02*
X12798753Y-14137889D01*
X12798753Y-14137889D02*
X12789229Y-14099793D01*
X12789229Y-14099793D02*
X12789229Y-14052174D01*
X12789229Y-14052174D02*
X12798753Y-14014079D01*
X12798753Y-14014079D02*
X12808277Y-13995032D01*
X12808277Y-13995032D02*
X12817801Y-13985508D01*
X12817801Y-13985508D02*
X12836848Y-13975984D01*
X12970182Y-13975984D02*
X13093991Y-13975984D01*
X13093991Y-13975984D02*
X13027324Y-14052174D01*
X13027324Y-14052174D02*
X13055896Y-14052174D01*
X13055896Y-14052174D02*
X13074944Y-14061698D01*
X13074944Y-14061698D02*
X13084467Y-14071222D01*
X13084467Y-14071222D02*
X13093991Y-14090270D01*
X13093991Y-14090270D02*
X13093991Y-14137889D01*
X13093991Y-14137889D02*
X13084467Y-14156936D01*
X13084467Y-14156936D02*
X13074944Y-14166460D01*
X13074944Y-14166460D02*
X13055896Y-14175984D01*
X13055896Y-14175984D02*
X12998753Y-14175984D01*
X12998753Y-14175984D02*
X12979705Y-14166460D01*
X12979705Y-14166460D02*
X12970182Y-14156936D01*
X13189229Y-14175984D02*
X13227324Y-14175984D01*
X13227324Y-14175984D02*
X13246372Y-14166460D01*
X13246372Y-14166460D02*
X13255896Y-14156936D01*
X13255896Y-14156936D02*
X13274944Y-14128365D01*
X13274944Y-14128365D02*
X13284467Y-14090270D01*
X13284467Y-14090270D02*
X13284467Y-14014079D01*
X13284467Y-14014079D02*
X13274944Y-13995032D01*
X13274944Y-13995032D02*
X13265420Y-13985508D01*
X13265420Y-13985508D02*
X13246372Y-13975984D01*
X13246372Y-13975984D02*
X13208277Y-13975984D01*
X13208277Y-13975984D02*
X13189229Y-13985508D01*
X13189229Y-13985508D02*
X13179705Y-13995032D01*
X13179705Y-13995032D02*
X13170182Y-14014079D01*
X13170182Y-14014079D02*
X13170182Y-14061698D01*
X13170182Y-14061698D02*
X13179705Y-14080746D01*
X13179705Y-14080746D02*
X13189229Y-14090270D01*
X13189229Y-14090270D02*
X13208277Y-14099793D01*
X13208277Y-14099793D02*
X13246372Y-14099793D01*
X13246372Y-14099793D02*
X13265420Y-14090270D01*
X13265420Y-14090270D02*
X13274944Y-14080746D01*
X13274944Y-14080746D02*
X13284467Y-14061698D01*
X13455896Y-14042651D02*
X13455896Y-14175984D01*
X13408277Y-13966460D02*
X13360658Y-14109317D01*
X13360658Y-14109317D02*
X13484467Y-14109317D01*
X13551134Y-13975984D02*
X13551134Y-14014079D01*
X13627325Y-13975984D02*
X13627325Y-14014079D01*
X13922563Y-14252174D02*
X13913039Y-14242651D01*
X13913039Y-14242651D02*
X13893991Y-14214079D01*
X13893991Y-14214079D02*
X13884467Y-14195032D01*
X13884467Y-14195032D02*
X13874944Y-14166460D01*
X13874944Y-14166460D02*
X13865420Y-14118841D01*
X13865420Y-14118841D02*
X13865420Y-14080746D01*
X13865420Y-14080746D02*
X13874944Y-14033127D01*
X13874944Y-14033127D02*
X13884467Y-14004555D01*
X13884467Y-14004555D02*
X13893991Y-13985508D01*
X13893991Y-13985508D02*
X13913039Y-13956936D01*
X13913039Y-13956936D02*
X13922563Y-13947412D01*
X14008277Y-14175984D02*
X14046372Y-14175984D01*
X14046372Y-14175984D02*
X14065420Y-14166460D01*
X14065420Y-14166460D02*
X14074944Y-14156936D01*
X14074944Y-14156936D02*
X14093991Y-14128365D01*
X14093991Y-14128365D02*
X14103515Y-14090270D01*
X14103515Y-14090270D02*
X14103515Y-14014079D01*
X14103515Y-14014079D02*
X14093991Y-13995032D01*
X14093991Y-13995032D02*
X14084467Y-13985508D01*
X14084467Y-13985508D02*
X14065420Y-13975984D01*
X14065420Y-13975984D02*
X14027325Y-13975984D01*
X14027325Y-13975984D02*
X14008277Y-13985508D01*
X14008277Y-13985508D02*
X13998753Y-13995032D01*
X13998753Y-13995032D02*
X13989229Y-14014079D01*
X13989229Y-14014079D02*
X13989229Y-14061698D01*
X13989229Y-14061698D02*
X13998753Y-14080746D01*
X13998753Y-14080746D02*
X14008277Y-14090270D01*
X14008277Y-14090270D02*
X14027325Y-14099793D01*
X14027325Y-14099793D02*
X14065420Y-14099793D01*
X14065420Y-14099793D02*
X14084467Y-14090270D01*
X14084467Y-14090270D02*
X14093991Y-14080746D01*
X14093991Y-14080746D02*
X14103515Y-14061698D01*
X14293991Y-14175984D02*
X14179706Y-14175984D01*
X14236848Y-14175984D02*
X14236848Y-13975984D01*
X14236848Y-13975984D02*
X14217801Y-14004555D01*
X14217801Y-14004555D02*
X14198753Y-14023603D01*
X14198753Y-14023603D02*
X14179706Y-14033127D01*
X14532087Y-14175984D02*
X14532087Y-13975984D01*
X14617801Y-14175984D02*
X14617801Y-14071222D01*
X14617801Y-14071222D02*
X14608277Y-14052174D01*
X14608277Y-14052174D02*
X14589229Y-14042651D01*
X14589229Y-14042651D02*
X14560658Y-14042651D01*
X14560658Y-14042651D02*
X14541610Y-14052174D01*
X14541610Y-14052174D02*
X14532087Y-14061698D01*
X14741610Y-14175984D02*
X14722563Y-14166460D01*
X14722563Y-14166460D02*
X14713039Y-14156936D01*
X14713039Y-14156936D02*
X14703515Y-14137889D01*
X14703515Y-14137889D02*
X14703515Y-14080746D01*
X14703515Y-14080746D02*
X14713039Y-14061698D01*
X14713039Y-14061698D02*
X14722563Y-14052174D01*
X14722563Y-14052174D02*
X14741610Y-14042651D01*
X14741610Y-14042651D02*
X14770182Y-14042651D01*
X14770182Y-14042651D02*
X14789229Y-14052174D01*
X14789229Y-14052174D02*
X14798753Y-14061698D01*
X14798753Y-14061698D02*
X14808277Y-14080746D01*
X14808277Y-14080746D02*
X14808277Y-14137889D01*
X14808277Y-14137889D02*
X14798753Y-14156936D01*
X14798753Y-14156936D02*
X14789229Y-14166460D01*
X14789229Y-14166460D02*
X14770182Y-14175984D01*
X14770182Y-14175984D02*
X14741610Y-14175984D01*
X14922563Y-14175984D02*
X14903515Y-14166460D01*
X14903515Y-14166460D02*
X14893991Y-14147412D01*
X14893991Y-14147412D02*
X14893991Y-13975984D01*
X15074944Y-14166460D02*
X15055896Y-14175984D01*
X15055896Y-14175984D02*
X15017801Y-14175984D01*
X15017801Y-14175984D02*
X14998753Y-14166460D01*
X14998753Y-14166460D02*
X14989229Y-14147412D01*
X14989229Y-14147412D02*
X14989229Y-14071222D01*
X14989229Y-14071222D02*
X14998753Y-14052174D01*
X14998753Y-14052174D02*
X15017801Y-14042651D01*
X15017801Y-14042651D02*
X15055896Y-14042651D01*
X15055896Y-14042651D02*
X15074944Y-14052174D01*
X15074944Y-14052174D02*
X15084468Y-14071222D01*
X15084468Y-14071222D02*
X15084468Y-14090270D01*
X15084468Y-14090270D02*
X14989229Y-14109317D01*
X15160658Y-14166460D02*
X15179706Y-14175984D01*
X15179706Y-14175984D02*
X15217801Y-14175984D01*
X15217801Y-14175984D02*
X15236849Y-14166460D01*
X15236849Y-14166460D02*
X15246372Y-14147412D01*
X15246372Y-14147412D02*
X15246372Y-14137889D01*
X15246372Y-14137889D02*
X15236849Y-14118841D01*
X15236849Y-14118841D02*
X15217801Y-14109317D01*
X15217801Y-14109317D02*
X15189229Y-14109317D01*
X15189229Y-14109317D02*
X15170182Y-14099793D01*
X15170182Y-14099793D02*
X15160658Y-14080746D01*
X15160658Y-14080746D02*
X15160658Y-14071222D01*
X15160658Y-14071222D02*
X15170182Y-14052174D01*
X15170182Y-14052174D02*
X15189229Y-14042651D01*
X15189229Y-14042651D02*
X15217801Y-14042651D01*
X15217801Y-14042651D02*
X15236849Y-14052174D01*
X15313039Y-14252174D02*
X15322563Y-14242651D01*
X15322563Y-14242651D02*
X15341610Y-14214079D01*
X15341610Y-14214079D02*
X15351134Y-14195032D01*
X15351134Y-14195032D02*
X15360658Y-14166460D01*
X15360658Y-14166460D02*
X15370182Y-14118841D01*
X15370182Y-14118841D02*
X15370182Y-14080746D01*
X15370182Y-14080746D02*
X15360658Y-14033127D01*
X15360658Y-14033127D02*
X15351134Y-14004555D01*
X15351134Y-14004555D02*
X15341610Y-13985508D01*
X15341610Y-13985508D02*
X15322563Y-13956936D01*
X15322563Y-13956936D02*
X15313039Y-13947412D01*
D13*
X10257500Y-14438500D02*
X10347500Y-14348500D01*
X10257500Y-14258500D01*
X10167500Y-14348500D01*
X10257500Y-14438500D01*
D11*
X10713039Y-14439984D02*
X10598753Y-14439984D01*
X10655896Y-14439984D02*
X10655896Y-14239984D01*
X10655896Y-14239984D02*
X10636848Y-14268555D01*
X10636848Y-14268555D02*
X10617801Y-14287603D01*
X10617801Y-14287603D02*
X10598753Y-14297127D01*
X10798753Y-14420936D02*
X10808277Y-14430460D01*
X10808277Y-14430460D02*
X10798753Y-14439984D01*
X10798753Y-14439984D02*
X10789229Y-14430460D01*
X10789229Y-14430460D02*
X10798753Y-14420936D01*
X10798753Y-14420936D02*
X10798753Y-14439984D01*
X10922562Y-14325698D02*
X10903515Y-14316174D01*
X10903515Y-14316174D02*
X10893991Y-14306651D01*
X10893991Y-14306651D02*
X10884467Y-14287603D01*
X10884467Y-14287603D02*
X10884467Y-14278079D01*
X10884467Y-14278079D02*
X10893991Y-14259032D01*
X10893991Y-14259032D02*
X10903515Y-14249508D01*
X10903515Y-14249508D02*
X10922562Y-14239984D01*
X10922562Y-14239984D02*
X10960658Y-14239984D01*
X10960658Y-14239984D02*
X10979705Y-14249508D01*
X10979705Y-14249508D02*
X10989229Y-14259032D01*
X10989229Y-14259032D02*
X10998753Y-14278079D01*
X10998753Y-14278079D02*
X10998753Y-14287603D01*
X10998753Y-14287603D02*
X10989229Y-14306651D01*
X10989229Y-14306651D02*
X10979705Y-14316174D01*
X10979705Y-14316174D02*
X10960658Y-14325698D01*
X10960658Y-14325698D02*
X10922562Y-14325698D01*
X10922562Y-14325698D02*
X10903515Y-14335222D01*
X10903515Y-14335222D02*
X10893991Y-14344746D01*
X10893991Y-14344746D02*
X10884467Y-14363793D01*
X10884467Y-14363793D02*
X10884467Y-14401889D01*
X10884467Y-14401889D02*
X10893991Y-14420936D01*
X10893991Y-14420936D02*
X10903515Y-14430460D01*
X10903515Y-14430460D02*
X10922562Y-14439984D01*
X10922562Y-14439984D02*
X10960658Y-14439984D01*
X10960658Y-14439984D02*
X10979705Y-14430460D01*
X10979705Y-14430460D02*
X10989229Y-14420936D01*
X10989229Y-14420936D02*
X10998753Y-14401889D01*
X10998753Y-14401889D02*
X10998753Y-14363793D01*
X10998753Y-14363793D02*
X10989229Y-14344746D01*
X10989229Y-14344746D02*
X10979705Y-14335222D01*
X10979705Y-14335222D02*
X10960658Y-14325698D01*
X11122562Y-14239984D02*
X11141610Y-14239984D01*
X11141610Y-14239984D02*
X11160658Y-14249508D01*
X11160658Y-14249508D02*
X11170182Y-14259032D01*
X11170182Y-14259032D02*
X11179705Y-14278079D01*
X11179705Y-14278079D02*
X11189229Y-14316174D01*
X11189229Y-14316174D02*
X11189229Y-14363793D01*
X11189229Y-14363793D02*
X11179705Y-14401889D01*
X11179705Y-14401889D02*
X11170182Y-14420936D01*
X11170182Y-14420936D02*
X11160658Y-14430460D01*
X11160658Y-14430460D02*
X11141610Y-14439984D01*
X11141610Y-14439984D02*
X11122562Y-14439984D01*
X11122562Y-14439984D02*
X11103515Y-14430460D01*
X11103515Y-14430460D02*
X11093991Y-14420936D01*
X11093991Y-14420936D02*
X11084467Y-14401889D01*
X11084467Y-14401889D02*
X11074943Y-14363793D01*
X11074943Y-14363793D02*
X11074943Y-14316174D01*
X11074943Y-14316174D02*
X11084467Y-14278079D01*
X11084467Y-14278079D02*
X11093991Y-14259032D01*
X11093991Y-14259032D02*
X11103515Y-14249508D01*
X11103515Y-14249508D02*
X11122562Y-14239984D01*
X11313039Y-14239984D02*
X11332086Y-14239984D01*
X11332086Y-14239984D02*
X11351134Y-14249508D01*
X11351134Y-14249508D02*
X11360658Y-14259032D01*
X11360658Y-14259032D02*
X11370181Y-14278079D01*
X11370181Y-14278079D02*
X11379705Y-14316174D01*
X11379705Y-14316174D02*
X11379705Y-14363793D01*
X11379705Y-14363793D02*
X11370181Y-14401889D01*
X11370181Y-14401889D02*
X11360658Y-14420936D01*
X11360658Y-14420936D02*
X11351134Y-14430460D01*
X11351134Y-14430460D02*
X11332086Y-14439984D01*
X11332086Y-14439984D02*
X11313039Y-14439984D01*
X11313039Y-14439984D02*
X11293991Y-14430460D01*
X11293991Y-14430460D02*
X11284467Y-14420936D01*
X11284467Y-14420936D02*
X11274943Y-14401889D01*
X11274943Y-14401889D02*
X11265420Y-14363793D01*
X11265420Y-14363793D02*
X11265420Y-14316174D01*
X11265420Y-14316174D02*
X11274943Y-14278079D01*
X11274943Y-14278079D02*
X11284467Y-14259032D01*
X11284467Y-14259032D02*
X11293991Y-14249508D01*
X11293991Y-14249508D02*
X11313039Y-14239984D01*
X11465420Y-14439984D02*
X11465420Y-14306651D01*
X11465420Y-14325698D02*
X11474943Y-14316174D01*
X11474943Y-14316174D02*
X11493991Y-14306651D01*
X11493991Y-14306651D02*
X11522562Y-14306651D01*
X11522562Y-14306651D02*
X11541610Y-14316174D01*
X11541610Y-14316174D02*
X11551134Y-14335222D01*
X11551134Y-14335222D02*
X11551134Y-14439984D01*
X11551134Y-14335222D02*
X11560658Y-14316174D01*
X11560658Y-14316174D02*
X11579705Y-14306651D01*
X11579705Y-14306651D02*
X11608277Y-14306651D01*
X11608277Y-14306651D02*
X11627324Y-14316174D01*
X11627324Y-14316174D02*
X11636848Y-14335222D01*
X11636848Y-14335222D02*
X11636848Y-14439984D01*
X11732086Y-14439984D02*
X11732086Y-14306651D01*
X11732086Y-14325698D02*
X11741610Y-14316174D01*
X11741610Y-14316174D02*
X11760658Y-14306651D01*
X11760658Y-14306651D02*
X11789229Y-14306651D01*
X11789229Y-14306651D02*
X11808277Y-14316174D01*
X11808277Y-14316174D02*
X11817801Y-14335222D01*
X11817801Y-14335222D02*
X11817801Y-14439984D01*
X11817801Y-14335222D02*
X11827324Y-14316174D01*
X11827324Y-14316174D02*
X11846372Y-14306651D01*
X11846372Y-14306651D02*
X11874943Y-14306651D01*
X11874943Y-14306651D02*
X11893991Y-14316174D01*
X11893991Y-14316174D02*
X11903515Y-14335222D01*
X11903515Y-14335222D02*
X11903515Y-14439984D01*
X12293991Y-14230460D02*
X12122563Y-14487603D01*
X12551134Y-14239984D02*
X12570182Y-14239984D01*
X12570182Y-14239984D02*
X12589229Y-14249508D01*
X12589229Y-14249508D02*
X12598753Y-14259032D01*
X12598753Y-14259032D02*
X12608277Y-14278079D01*
X12608277Y-14278079D02*
X12617801Y-14316174D01*
X12617801Y-14316174D02*
X12617801Y-14363793D01*
X12617801Y-14363793D02*
X12608277Y-14401889D01*
X12608277Y-14401889D02*
X12598753Y-14420936D01*
X12598753Y-14420936D02*
X12589229Y-14430460D01*
X12589229Y-14430460D02*
X12570182Y-14439984D01*
X12570182Y-14439984D02*
X12551134Y-14439984D01*
X12551134Y-14439984D02*
X12532086Y-14430460D01*
X12532086Y-14430460D02*
X12522563Y-14420936D01*
X12522563Y-14420936D02*
X12513039Y-14401889D01*
X12513039Y-14401889D02*
X12503515Y-14363793D01*
X12503515Y-14363793D02*
X12503515Y-14316174D01*
X12503515Y-14316174D02*
X12513039Y-14278079D01*
X12513039Y-14278079D02*
X12522563Y-14259032D01*
X12522563Y-14259032D02*
X12532086Y-14249508D01*
X12532086Y-14249508D02*
X12551134Y-14239984D01*
X12703515Y-14420936D02*
X12713039Y-14430460D01*
X12713039Y-14430460D02*
X12703515Y-14439984D01*
X12703515Y-14439984D02*
X12693991Y-14430460D01*
X12693991Y-14430460D02*
X12703515Y-14420936D01*
X12703515Y-14420936D02*
X12703515Y-14439984D01*
X12836848Y-14239984D02*
X12855896Y-14239984D01*
X12855896Y-14239984D02*
X12874944Y-14249508D01*
X12874944Y-14249508D02*
X12884467Y-14259032D01*
X12884467Y-14259032D02*
X12893991Y-14278079D01*
X12893991Y-14278079D02*
X12903515Y-14316174D01*
X12903515Y-14316174D02*
X12903515Y-14363793D01*
X12903515Y-14363793D02*
X12893991Y-14401889D01*
X12893991Y-14401889D02*
X12884467Y-14420936D01*
X12884467Y-14420936D02*
X12874944Y-14430460D01*
X12874944Y-14430460D02*
X12855896Y-14439984D01*
X12855896Y-14439984D02*
X12836848Y-14439984D01*
X12836848Y-14439984D02*
X12817801Y-14430460D01*
X12817801Y-14430460D02*
X12808277Y-14420936D01*
X12808277Y-14420936D02*
X12798753Y-14401889D01*
X12798753Y-14401889D02*
X12789229Y-14363793D01*
X12789229Y-14363793D02*
X12789229Y-14316174D01*
X12789229Y-14316174D02*
X12798753Y-14278079D01*
X12798753Y-14278079D02*
X12808277Y-14259032D01*
X12808277Y-14259032D02*
X12817801Y-14249508D01*
X12817801Y-14249508D02*
X12836848Y-14239984D01*
X12970182Y-14239984D02*
X13103515Y-14239984D01*
X13103515Y-14239984D02*
X13017801Y-14439984D01*
X13217801Y-14239984D02*
X13236848Y-14239984D01*
X13236848Y-14239984D02*
X13255896Y-14249508D01*
X13255896Y-14249508D02*
X13265420Y-14259032D01*
X13265420Y-14259032D02*
X13274944Y-14278079D01*
X13274944Y-14278079D02*
X13284467Y-14316174D01*
X13284467Y-14316174D02*
X13284467Y-14363793D01*
X13284467Y-14363793D02*
X13274944Y-14401889D01*
X13274944Y-14401889D02*
X13265420Y-14420936D01*
X13265420Y-14420936D02*
X13255896Y-14430460D01*
X13255896Y-14430460D02*
X13236848Y-14439984D01*
X13236848Y-14439984D02*
X13217801Y-14439984D01*
X13217801Y-14439984D02*
X13198753Y-14430460D01*
X13198753Y-14430460D02*
X13189229Y-14420936D01*
X13189229Y-14420936D02*
X13179705Y-14401889D01*
X13179705Y-14401889D02*
X13170182Y-14363793D01*
X13170182Y-14363793D02*
X13170182Y-14316174D01*
X13170182Y-14316174D02*
X13179705Y-14278079D01*
X13179705Y-14278079D02*
X13189229Y-14259032D01*
X13189229Y-14259032D02*
X13198753Y-14249508D01*
X13198753Y-14249508D02*
X13217801Y-14239984D01*
X13379705Y-14439984D02*
X13417801Y-14439984D01*
X13417801Y-14439984D02*
X13436848Y-14430460D01*
X13436848Y-14430460D02*
X13446372Y-14420936D01*
X13446372Y-14420936D02*
X13465420Y-14392365D01*
X13465420Y-14392365D02*
X13474944Y-14354270D01*
X13474944Y-14354270D02*
X13474944Y-14278079D01*
X13474944Y-14278079D02*
X13465420Y-14259032D01*
X13465420Y-14259032D02*
X13455896Y-14249508D01*
X13455896Y-14249508D02*
X13436848Y-14239984D01*
X13436848Y-14239984D02*
X13398753Y-14239984D01*
X13398753Y-14239984D02*
X13379705Y-14249508D01*
X13379705Y-14249508D02*
X13370182Y-14259032D01*
X13370182Y-14259032D02*
X13360658Y-14278079D01*
X13360658Y-14278079D02*
X13360658Y-14325698D01*
X13360658Y-14325698D02*
X13370182Y-14344746D01*
X13370182Y-14344746D02*
X13379705Y-14354270D01*
X13379705Y-14354270D02*
X13398753Y-14363793D01*
X13398753Y-14363793D02*
X13436848Y-14363793D01*
X13436848Y-14363793D02*
X13455896Y-14354270D01*
X13455896Y-14354270D02*
X13465420Y-14344746D01*
X13465420Y-14344746D02*
X13474944Y-14325698D01*
X13551134Y-14239984D02*
X13551134Y-14278079D01*
X13627325Y-14239984D02*
X13627325Y-14278079D01*
X13922563Y-14516174D02*
X13913039Y-14506651D01*
X13913039Y-14506651D02*
X13893991Y-14478079D01*
X13893991Y-14478079D02*
X13884467Y-14459032D01*
X13884467Y-14459032D02*
X13874944Y-14430460D01*
X13874944Y-14430460D02*
X13865420Y-14382841D01*
X13865420Y-14382841D02*
X13865420Y-14344746D01*
X13865420Y-14344746D02*
X13874944Y-14297127D01*
X13874944Y-14297127D02*
X13884467Y-14268555D01*
X13884467Y-14268555D02*
X13893991Y-14249508D01*
X13893991Y-14249508D02*
X13913039Y-14220936D01*
X13913039Y-14220936D02*
X13922563Y-14211412D01*
X14084467Y-14306651D02*
X14084467Y-14439984D01*
X14036848Y-14230460D02*
X13989229Y-14373317D01*
X13989229Y-14373317D02*
X14113039Y-14373317D01*
X14341610Y-14439984D02*
X14341610Y-14239984D01*
X14427325Y-14439984D02*
X14427325Y-14335222D01*
X14427325Y-14335222D02*
X14417801Y-14316174D01*
X14417801Y-14316174D02*
X14398753Y-14306651D01*
X14398753Y-14306651D02*
X14370182Y-14306651D01*
X14370182Y-14306651D02*
X14351134Y-14316174D01*
X14351134Y-14316174D02*
X14341610Y-14325698D01*
X14551134Y-14439984D02*
X14532087Y-14430460D01*
X14532087Y-14430460D02*
X14522563Y-14420936D01*
X14522563Y-14420936D02*
X14513039Y-14401889D01*
X14513039Y-14401889D02*
X14513039Y-14344746D01*
X14513039Y-14344746D02*
X14522563Y-14325698D01*
X14522563Y-14325698D02*
X14532087Y-14316174D01*
X14532087Y-14316174D02*
X14551134Y-14306651D01*
X14551134Y-14306651D02*
X14579706Y-14306651D01*
X14579706Y-14306651D02*
X14598753Y-14316174D01*
X14598753Y-14316174D02*
X14608277Y-14325698D01*
X14608277Y-14325698D02*
X14617801Y-14344746D01*
X14617801Y-14344746D02*
X14617801Y-14401889D01*
X14617801Y-14401889D02*
X14608277Y-14420936D01*
X14608277Y-14420936D02*
X14598753Y-14430460D01*
X14598753Y-14430460D02*
X14579706Y-14439984D01*
X14579706Y-14439984D02*
X14551134Y-14439984D01*
X14732087Y-14439984D02*
X14713039Y-14430460D01*
X14713039Y-14430460D02*
X14703515Y-14411412D01*
X14703515Y-14411412D02*
X14703515Y-14239984D01*
X14884468Y-14430460D02*
X14865420Y-14439984D01*
X14865420Y-14439984D02*
X14827325Y-14439984D01*
X14827325Y-14439984D02*
X14808277Y-14430460D01*
X14808277Y-14430460D02*
X14798753Y-14411412D01*
X14798753Y-14411412D02*
X14798753Y-14335222D01*
X14798753Y-14335222D02*
X14808277Y-14316174D01*
X14808277Y-14316174D02*
X14827325Y-14306651D01*
X14827325Y-14306651D02*
X14865420Y-14306651D01*
X14865420Y-14306651D02*
X14884468Y-14316174D01*
X14884468Y-14316174D02*
X14893991Y-14335222D01*
X14893991Y-14335222D02*
X14893991Y-14354270D01*
X14893991Y-14354270D02*
X14798753Y-14373317D01*
X14970182Y-14430460D02*
X14989229Y-14439984D01*
X14989229Y-14439984D02*
X15027325Y-14439984D01*
X15027325Y-14439984D02*
X15046372Y-14430460D01*
X15046372Y-14430460D02*
X15055896Y-14411412D01*
X15055896Y-14411412D02*
X15055896Y-14401889D01*
X15055896Y-14401889D02*
X15046372Y-14382841D01*
X15046372Y-14382841D02*
X15027325Y-14373317D01*
X15027325Y-14373317D02*
X14998753Y-14373317D01*
X14998753Y-14373317D02*
X14979706Y-14363793D01*
X14979706Y-14363793D02*
X14970182Y-14344746D01*
X14970182Y-14344746D02*
X14970182Y-14335222D01*
X14970182Y-14335222D02*
X14979706Y-14316174D01*
X14979706Y-14316174D02*
X14998753Y-14306651D01*
X14998753Y-14306651D02*
X15027325Y-14306651D01*
X15027325Y-14306651D02*
X15046372Y-14316174D01*
X15122563Y-14516174D02*
X15132087Y-14506651D01*
X15132087Y-14506651D02*
X15151134Y-14478079D01*
X15151134Y-14478079D02*
X15160658Y-14459032D01*
X15160658Y-14459032D02*
X15170182Y-14430460D01*
X15170182Y-14430460D02*
X15179706Y-14382841D01*
X15179706Y-14382841D02*
X15179706Y-14344746D01*
X15179706Y-14344746D02*
X15170182Y-14297127D01*
X15170182Y-14297127D02*
X15160658Y-14268555D01*
X15160658Y-14268555D02*
X15151134Y-14249508D01*
X15151134Y-14249508D02*
X15132087Y-14220936D01*
X15132087Y-14220936D02*
X15122563Y-14211412D01*
M02*
