%TF.GenerationSoftware,KiCad,Pcbnew,8.0.5*%
%TF.CreationDate,2024-12-31T14:00:23+11:00*%
%TF.ProjectId,Combined_Fabrication,436f6d62-696e-4656-945f-466162726963,rev?*%
%TF.SameCoordinates,Original*%
%TF.FileFunction,Soldermask,Top*%
%TF.FilePolarity,Negative*%
%FSLAX46Y46*%
G04 Gerber Fmt 4.6, Leading zero omitted, Abs format (unit mm)*
G04 Created by KiCad (PCBNEW 8.0.5) date 2024-12-31 14:00:23*
%MOMM*%
%LPD*%
G01*
G04 APERTURE LIST*
G04 Aperture macros list*
%AMRoundRect*
0 Rectangle with rounded corners*
0 $1 Rounding radius*
0 $2 $3 $4 $5 $6 $7 $8 $9 X,Y pos of 4 corners*
0 Add a 4 corners polygon primitive as box body*
4,1,4,$2,$3,$4,$5,$6,$7,$8,$9,$2,$3,0*
0 Add four circle primitives for the rounded corners*
1,1,$1+$1,$2,$3*
1,1,$1+$1,$4,$5*
1,1,$1+$1,$6,$7*
1,1,$1+$1,$8,$9*
0 Add four rect primitives between the rounded corners*
20,1,$1+$1,$2,$3,$4,$5,0*
20,1,$1+$1,$4,$5,$6,$7,0*
20,1,$1+$1,$6,$7,$8,$9,0*
20,1,$1+$1,$8,$9,$2,$3,0*%
G04 Aperture macros list end*
%ADD10R,1.800000X2.200000*%
%ADD11R,0.300000X1.100000*%
%ADD12R,1.500000X0.900000*%
%ADD13R,0.900000X1.500000*%
%ADD14R,0.900000X0.900000*%
%ADD15R,1.700000X1.700000*%
%ADD16O,1.700000X1.700000*%
%ADD17RoundRect,0.225000X-0.475000X0.225000X-0.475000X-0.225000X0.475000X-0.225000X0.475000X0.225000X0*%
%ADD18O,1.400000X0.900000*%
%ADD19RoundRect,0.225000X-0.225000X-0.475000X0.225000X-0.475000X0.225000X0.475000X-0.225000X0.475000X0*%
%ADD20O,0.900000X1.400000*%
%ADD21RoundRect,0.237500X-0.237500X0.250000X-0.237500X-0.250000X0.237500X-0.250000X0.237500X0.250000X0*%
%ADD22RoundRect,0.150000X-0.512500X-0.150000X0.512500X-0.150000X0.512500X0.150000X-0.512500X0.150000X0*%
%ADD23R,2.200000X1.800000*%
%ADD24R,1.100000X0.300000*%
%ADD25RoundRect,0.200000X0.450000X-0.200000X0.450000X0.200000X-0.450000X0.200000X-0.450000X-0.200000X0*%
%ADD26O,1.300000X0.800000*%
%ADD27RoundRect,0.250000X-1.330000X-1.850000X1.330000X-1.850000X1.330000X1.850000X-1.330000X1.850000X0*%
%ADD28O,3.160000X4.200000*%
%ADD29RoundRect,0.200000X-0.450000X0.200000X-0.450000X-0.200000X0.450000X-0.200000X0.450000X0.200000X0*%
%ADD30RoundRect,0.200000X-0.200000X-0.450000X0.200000X-0.450000X0.200000X0.450000X-0.200000X0.450000X0*%
%ADD31O,0.800000X1.300000*%
%ADD32RoundRect,0.225000X0.475000X-0.225000X0.475000X0.225000X-0.475000X0.225000X-0.475000X-0.225000X0*%
%ADD33C,1.200000*%
G04 APERTURE END LIST*
D10*
%TO.C,U2*%
X172599999Y-81200000D03*
X187399999Y-81200000D03*
D11*
X174249999Y-78000001D03*
X174749999Y-78000000D03*
X175249999Y-78000000D03*
X175749999Y-78000000D03*
X176249999Y-78000000D03*
X176749999Y-78000001D03*
X177249999Y-78000000D03*
X177749999Y-78000000D03*
X178250000Y-78000000D03*
X178749999Y-78000000D03*
X179249998Y-78000000D03*
X179749999Y-78000000D03*
X180249999Y-78000000D03*
X180750000Y-78000000D03*
X181249999Y-78000000D03*
X181749998Y-78000000D03*
X182249999Y-78000000D03*
X182749999Y-78000000D03*
X183249999Y-78000001D03*
X183749999Y-78000000D03*
X184249999Y-78000000D03*
X184749999Y-78000000D03*
X185249999Y-78000000D03*
X185749999Y-78000001D03*
%TD*%
D12*
%TO.C,ESP1*%
X171249999Y-58080001D03*
X171249999Y-59350001D03*
X171249999Y-60620001D03*
X171249999Y-61890001D03*
X171249999Y-63160001D03*
X171249999Y-64430001D03*
X171249999Y-65700001D03*
X171249999Y-66970001D03*
X171249999Y-68240001D03*
X171249999Y-69510001D03*
X171249999Y-70780001D03*
X171249999Y-72050001D03*
X171249999Y-73320001D03*
X171249999Y-74590001D03*
D13*
X173015000Y-75840001D03*
X174284999Y-75840001D03*
X175554999Y-75840001D03*
X176824999Y-75840000D03*
X178094999Y-75840001D03*
X179364999Y-75840001D03*
X180634999Y-75840001D03*
X181904999Y-75840001D03*
X183174999Y-75840000D03*
X184444999Y-75840001D03*
X185714999Y-75840001D03*
X186984998Y-75840001D03*
D12*
X188749999Y-74590001D03*
X188749999Y-73320001D03*
X188749999Y-72050001D03*
X188749999Y-70780001D03*
X188749999Y-69510001D03*
X188749999Y-68240001D03*
X188749999Y-66970001D03*
X188749999Y-65700001D03*
X188749999Y-64430001D03*
X188749999Y-63160001D03*
X188749999Y-61890001D03*
X188749999Y-60620001D03*
X188749999Y-59350001D03*
X188749999Y-58080001D03*
D14*
X177099999Y-64400001D03*
X177099999Y-65800001D03*
X177099999Y-67200001D03*
X178499999Y-64400001D03*
X178499999Y-65800001D03*
X178499999Y-67200001D03*
X179899999Y-64400001D03*
X179899999Y-65800001D03*
X179899999Y-67200001D03*
%TD*%
D15*
%TO.C,J5*%
X182674998Y-51875002D03*
D16*
X182674998Y-54415002D03*
X185214998Y-51875002D03*
X185214998Y-54415002D03*
X187754997Y-51875002D03*
X187754998Y-54415002D03*
%TD*%
D17*
%TO.C,J1*%
X175182499Y-70575002D03*
D18*
X175182499Y-71825001D03*
X175182499Y-73075002D03*
X175182499Y-74325001D03*
%TD*%
D15*
%TO.C,J4*%
X172274998Y-51875000D03*
D16*
X172274998Y-54415000D03*
X174814998Y-51875000D03*
X174814998Y-54415000D03*
X177354997Y-51875000D03*
X177354998Y-54415000D03*
%TD*%
D19*
%TO.C,J2*%
X172575000Y-78217501D03*
D20*
X173824999Y-78217501D03*
%TD*%
D15*
%TO.C,J1*%
X188875000Y-101975000D03*
D16*
X188875000Y-104515000D03*
X186335000Y-101975000D03*
X186335000Y-104515000D03*
X183795001Y-101975000D03*
X183795000Y-104515000D03*
X181255000Y-101975000D03*
X181255000Y-104515000D03*
X178715000Y-101975000D03*
X178715000Y-104515000D03*
X176175000Y-101975000D03*
X176175000Y-104515000D03*
X173635000Y-101975000D03*
X173635000Y-104515000D03*
X171094999Y-101975000D03*
X171095000Y-104515000D03*
%TD*%
D21*
%TO.C,R3*%
X174000000Y-114102500D03*
X174000000Y-115927500D03*
%TD*%
%TO.C,R4*%
X174000000Y-118102500D03*
X174000000Y-119927500D03*
%TD*%
%TO.C,R2*%
X179500000Y-118087500D03*
X179500000Y-119912500D03*
%TD*%
D10*
%TO.C,U1*%
X187400000Y-108500000D03*
X172600000Y-108500000D03*
D11*
X185750000Y-111699999D03*
X185250000Y-111700000D03*
X184750000Y-111700000D03*
X184250000Y-111700000D03*
X183750000Y-111700000D03*
X183250000Y-111699999D03*
X182750000Y-111700000D03*
X182250000Y-111700000D03*
X181749999Y-111700000D03*
X181250000Y-111700000D03*
X180750001Y-111700000D03*
X180250000Y-111700000D03*
X179750000Y-111700000D03*
X179249999Y-111700000D03*
X178750000Y-111700000D03*
X178250001Y-111700000D03*
X177750000Y-111700000D03*
X177250000Y-111700000D03*
X176750000Y-111699999D03*
X176250000Y-111700000D03*
X175750000Y-111700000D03*
X175250000Y-111700000D03*
X174750000Y-111700000D03*
X174250000Y-111699999D03*
%TD*%
D21*
%TO.C,R1*%
X179500000Y-114087500D03*
X179500000Y-115912500D03*
%TD*%
D22*
%TO.C,SnootFNMosFan1*%
X182112500Y-114050001D03*
X182112500Y-115949999D03*
X184387500Y-115000000D03*
%TD*%
D15*
%TO.C,J4*%
X171250000Y-114475000D03*
D16*
X171250000Y-117015000D03*
X171250000Y-119554999D03*
%TD*%
D15*
%TO.C,J2*%
X189000000Y-113210001D03*
D16*
X189000000Y-115750001D03*
X189000000Y-118290000D03*
%TD*%
D15*
%TO.C,J3*%
X176750000Y-114460000D03*
D16*
X176750000Y-117000000D03*
X176750000Y-119539999D03*
%TD*%
D15*
%TO.C,J5*%
X182475000Y-119000001D03*
D16*
X185015000Y-119000001D03*
%TD*%
D23*
%TO.C,U1*%
X117750000Y-107100001D03*
X117750000Y-118900001D03*
D24*
X120950000Y-108750001D03*
X120950000Y-109250001D03*
X120949999Y-109750001D03*
X120950000Y-110250001D03*
X120950000Y-110750001D03*
X120950000Y-111250002D03*
X120950000Y-111750001D03*
X120950000Y-112250000D03*
X120950000Y-112750001D03*
X120950000Y-113250001D03*
X120950000Y-113750002D03*
X120950000Y-114250001D03*
X120950000Y-114750000D03*
X120950000Y-115250001D03*
X120950000Y-115750001D03*
X120949999Y-116250001D03*
X120950000Y-116750001D03*
X120950000Y-117250001D03*
%TD*%
D23*
%TO.C,U2*%
X134250000Y-118900001D03*
X134250000Y-107100001D03*
D24*
X131050000Y-117250001D03*
X131050000Y-116750001D03*
X131050001Y-116250001D03*
X131050000Y-115750001D03*
X131050000Y-115250001D03*
X131050000Y-114750000D03*
X131050000Y-114250001D03*
X131050000Y-113750002D03*
X131050000Y-113250001D03*
X131050000Y-112750001D03*
X131050000Y-112250000D03*
X131050000Y-111750001D03*
X131050000Y-111250002D03*
X131050000Y-110750001D03*
X131050000Y-110250001D03*
X131050001Y-109750001D03*
X131050000Y-109250001D03*
X131050000Y-108750001D03*
%TD*%
D25*
%TO.C,J4*%
X118700000Y-114875000D03*
D26*
X118700000Y-113625001D03*
X118700000Y-112375000D03*
X118700000Y-111125001D03*
%TD*%
D15*
%TO.C,J1*%
X117125000Y-124290001D03*
D16*
X117125000Y-121750001D03*
X119665000Y-124290001D03*
X119665000Y-121750001D03*
X122204999Y-124290001D03*
X122205000Y-121750001D03*
X124745000Y-124290001D03*
X124745000Y-121750001D03*
X127285000Y-124290001D03*
X127285000Y-121750001D03*
X129825000Y-124290001D03*
X129825000Y-121750001D03*
X132365000Y-124290001D03*
X132365000Y-121750001D03*
X134905001Y-124290001D03*
X134905000Y-121750001D03*
%TD*%
D27*
%TO.C,J2*%
X120060000Y-103225001D03*
D28*
X124020000Y-103225001D03*
X127980000Y-103225001D03*
X131940001Y-103225001D03*
%TD*%
D29*
%TO.C,J3*%
X133300000Y-111125001D03*
D26*
X133300000Y-112375000D03*
X133300000Y-113625001D03*
X133300000Y-114875000D03*
%TD*%
D30*
%TO.C,J4*%
X111625000Y-72300000D03*
D31*
X112874999Y-72300000D03*
X114125000Y-72300000D03*
X115374999Y-72300000D03*
%TD*%
D32*
%TO.C,J1*%
X109032500Y-61375000D03*
D18*
X109032500Y-60125001D03*
X109032500Y-58875000D03*
X109032500Y-57625001D03*
%TD*%
D33*
%TO.C,R4*%
X143350000Y-75500000D03*
X146650000Y-75500000D03*
%TD*%
%TO.C,R5*%
X108650000Y-75500000D03*
X105350000Y-75500000D03*
%TD*%
D32*
%TO.C,U3*%
X108182500Y-70875001D03*
D18*
X108182500Y-69625002D03*
X108182500Y-68375001D03*
X108182500Y-67125002D03*
X108182500Y-65875001D03*
X108182500Y-64625002D03*
%TD*%
D30*
%TO.C,J3*%
X136625001Y-72300001D03*
D31*
X137875000Y-72300001D03*
X139125001Y-72300001D03*
X140375000Y-72300001D03*
%TD*%
D17*
%TO.C,U4*%
X143817501Y-64625001D03*
D18*
X143817501Y-65875000D03*
X143817501Y-67125001D03*
X143817501Y-68375000D03*
X143817501Y-69625001D03*
X143817501Y-70875000D03*
%TD*%
D15*
%TO.C,J2*%
X132350000Y-75500000D03*
D16*
X129810000Y-75500000D03*
X127270001Y-75500000D03*
X124730000Y-75500000D03*
X122190000Y-75500000D03*
X119650000Y-75500000D03*
%TD*%
D15*
%TO.C,J4*%
X157280000Y-107500000D03*
D16*
X154740000Y-107500000D03*
X152200001Y-107500000D03*
X149660000Y-107500000D03*
%TD*%
D15*
%TO.C,J1*%
X143750000Y-103590000D03*
D16*
X143750000Y-106130000D03*
X143750000Y-108670000D03*
X143750000Y-111210000D03*
X143750000Y-113750000D03*
X143750000Y-116290000D03*
X143750000Y-118830000D03*
X143750000Y-121370000D03*
%TD*%
D15*
%TO.C,J5*%
X161710000Y-102000000D03*
D16*
X159170000Y-102000000D03*
X156630001Y-102000000D03*
X154090000Y-102000000D03*
X151550000Y-102000000D03*
X149010000Y-102000000D03*
X146470000Y-102000000D03*
%TD*%
D15*
%TO.C,J3*%
X157290000Y-104750000D03*
D16*
X154750000Y-104750000D03*
X152210001Y-104750000D03*
X149670000Y-104750000D03*
%TD*%
D15*
%TO.C,J2*%
X147000000Y-104670000D03*
D16*
X147000000Y-107210000D03*
X147000000Y-109750000D03*
X147000000Y-112290000D03*
X147000000Y-114830000D03*
X147000000Y-117370000D03*
X147000000Y-119910000D03*
%TD*%
M02*
