%TF.GenerationSoftware,KiCad,Pcbnew,8.0.5*%
%TF.CreationDate,2024-12-31T14:00:23+11:00*%
%TF.ProjectId,Combined_Fabrication,436f6d62-696e-4656-945f-466162726963,rev?*%
%TF.SameCoordinates,Original*%
%TF.FileFunction,Legend,Top*%
%TF.FilePolarity,Positive*%
%FSLAX46Y46*%
G04 Gerber Fmt 4.6, Leading zero omitted, Abs format (unit mm)*
G04 Created by KiCad (PCBNEW 8.0.5) date 2024-12-31 14:00:23*
%MOMM*%
%LPD*%
G01*
G04 APERTURE LIST*
%ADD10C,0.100000*%
%ADD11C,0.150000*%
%ADD12C,0.120000*%
%ADD13C,0.000000*%
%ADD14C,0.508000*%
G04 APERTURE END LIST*
D10*
X177666667Y-96204828D02*
X177809524Y-96252447D01*
X177809524Y-96252447D02*
X178047619Y-96252447D01*
X178047619Y-96252447D02*
X178142857Y-96204828D01*
X178142857Y-96204828D02*
X178190476Y-96157208D01*
X178190476Y-96157208D02*
X178238095Y-96061970D01*
X178238095Y-96061970D02*
X178238095Y-95966732D01*
X178238095Y-95966732D02*
X178190476Y-95871494D01*
X178190476Y-95871494D02*
X178142857Y-95823875D01*
X178142857Y-95823875D02*
X178047619Y-95776256D01*
X178047619Y-95776256D02*
X177857143Y-95728637D01*
X177857143Y-95728637D02*
X177761905Y-95681018D01*
X177761905Y-95681018D02*
X177714286Y-95633399D01*
X177714286Y-95633399D02*
X177666667Y-95538161D01*
X177666667Y-95538161D02*
X177666667Y-95442923D01*
X177666667Y-95442923D02*
X177714286Y-95347685D01*
X177714286Y-95347685D02*
X177761905Y-95300066D01*
X177761905Y-95300066D02*
X177857143Y-95252447D01*
X177857143Y-95252447D02*
X178095238Y-95252447D01*
X178095238Y-95252447D02*
X178238095Y-95300066D01*
X178666667Y-96252447D02*
X178666667Y-95585780D01*
X178666667Y-95252447D02*
X178619048Y-95300066D01*
X178619048Y-95300066D02*
X178666667Y-95347685D01*
X178666667Y-95347685D02*
X178714286Y-95300066D01*
X178714286Y-95300066D02*
X178666667Y-95252447D01*
X178666667Y-95252447D02*
X178666667Y-95347685D01*
X179142857Y-96252447D02*
X179142857Y-95585780D01*
X179142857Y-95681018D02*
X179190476Y-95633399D01*
X179190476Y-95633399D02*
X179285714Y-95585780D01*
X179285714Y-95585780D02*
X179428571Y-95585780D01*
X179428571Y-95585780D02*
X179523809Y-95633399D01*
X179523809Y-95633399D02*
X179571428Y-95728637D01*
X179571428Y-95728637D02*
X179571428Y-96252447D01*
X179571428Y-95728637D02*
X179619047Y-95633399D01*
X179619047Y-95633399D02*
X179714285Y-95585780D01*
X179714285Y-95585780D02*
X179857142Y-95585780D01*
X179857142Y-95585780D02*
X179952381Y-95633399D01*
X179952381Y-95633399D02*
X180000000Y-95728637D01*
X180000000Y-95728637D02*
X180000000Y-96252447D01*
X180476190Y-95585780D02*
X180476190Y-96585780D01*
X180476190Y-95633399D02*
X180571428Y-95585780D01*
X180571428Y-95585780D02*
X180761904Y-95585780D01*
X180761904Y-95585780D02*
X180857142Y-95633399D01*
X180857142Y-95633399D02*
X180904761Y-95681018D01*
X180904761Y-95681018D02*
X180952380Y-95776256D01*
X180952380Y-95776256D02*
X180952380Y-96061970D01*
X180952380Y-96061970D02*
X180904761Y-96157208D01*
X180904761Y-96157208D02*
X180857142Y-96204828D01*
X180857142Y-96204828D02*
X180761904Y-96252447D01*
X180761904Y-96252447D02*
X180571428Y-96252447D01*
X180571428Y-96252447D02*
X180476190Y-96204828D01*
X181523809Y-96252447D02*
X181428571Y-96204828D01*
X181428571Y-96204828D02*
X181380952Y-96109589D01*
X181380952Y-96109589D02*
X181380952Y-95252447D01*
X182285714Y-96204828D02*
X182190476Y-96252447D01*
X182190476Y-96252447D02*
X182000000Y-96252447D01*
X182000000Y-96252447D02*
X181904762Y-96204828D01*
X181904762Y-96204828D02*
X181857143Y-96109589D01*
X181857143Y-96109589D02*
X181857143Y-95728637D01*
X181857143Y-95728637D02*
X181904762Y-95633399D01*
X181904762Y-95633399D02*
X182000000Y-95585780D01*
X182000000Y-95585780D02*
X182190476Y-95585780D01*
X182190476Y-95585780D02*
X182285714Y-95633399D01*
X182285714Y-95633399D02*
X182333333Y-95728637D01*
X182333333Y-95728637D02*
X182333333Y-95823875D01*
X182333333Y-95823875D02*
X181857143Y-95919113D01*
X177738095Y-97862391D02*
X177738095Y-96862391D01*
X177738095Y-97338581D02*
X178309523Y-97338581D01*
X178309523Y-97862391D02*
X178309523Y-96862391D01*
X178785714Y-96862391D02*
X178785714Y-97671914D01*
X178785714Y-97671914D02*
X178833333Y-97767152D01*
X178833333Y-97767152D02*
X178880952Y-97814772D01*
X178880952Y-97814772D02*
X178976190Y-97862391D01*
X178976190Y-97862391D02*
X179166666Y-97862391D01*
X179166666Y-97862391D02*
X179261904Y-97814772D01*
X179261904Y-97814772D02*
X179309523Y-97767152D01*
X179309523Y-97767152D02*
X179357142Y-97671914D01*
X179357142Y-97671914D02*
X179357142Y-96862391D01*
X180166666Y-97338581D02*
X180309523Y-97386200D01*
X180309523Y-97386200D02*
X180357142Y-97433819D01*
X180357142Y-97433819D02*
X180404761Y-97529057D01*
X180404761Y-97529057D02*
X180404761Y-97671914D01*
X180404761Y-97671914D02*
X180357142Y-97767152D01*
X180357142Y-97767152D02*
X180309523Y-97814772D01*
X180309523Y-97814772D02*
X180214285Y-97862391D01*
X180214285Y-97862391D02*
X179833333Y-97862391D01*
X179833333Y-97862391D02*
X179833333Y-96862391D01*
X179833333Y-96862391D02*
X180166666Y-96862391D01*
X180166666Y-96862391D02*
X180261904Y-96910010D01*
X180261904Y-96910010D02*
X180309523Y-96957629D01*
X180309523Y-96957629D02*
X180357142Y-97052867D01*
X180357142Y-97052867D02*
X180357142Y-97148105D01*
X180357142Y-97148105D02*
X180309523Y-97243343D01*
X180309523Y-97243343D02*
X180261904Y-97290962D01*
X180261904Y-97290962D02*
X180166666Y-97338581D01*
X180166666Y-97338581D02*
X179833333Y-97338581D01*
X180738095Y-96862391D02*
X181404761Y-96862391D01*
X181404761Y-96862391D02*
X180976190Y-97862391D01*
X182261904Y-96862391D02*
X181785714Y-96862391D01*
X181785714Y-96862391D02*
X181738095Y-97338581D01*
X181738095Y-97338581D02*
X181785714Y-97290962D01*
X181785714Y-97290962D02*
X181880952Y-97243343D01*
X181880952Y-97243343D02*
X182119047Y-97243343D01*
X182119047Y-97243343D02*
X182214285Y-97290962D01*
X182214285Y-97290962D02*
X182261904Y-97338581D01*
X182261904Y-97338581D02*
X182309523Y-97433819D01*
X182309523Y-97433819D02*
X182309523Y-97671914D01*
X182309523Y-97671914D02*
X182261904Y-97767152D01*
X182261904Y-97767152D02*
X182214285Y-97814772D01*
X182214285Y-97814772D02*
X182119047Y-97862391D01*
X182119047Y-97862391D02*
X181880952Y-97862391D01*
X181880952Y-97862391D02*
X181785714Y-97814772D01*
X181785714Y-97814772D02*
X181738095Y-97767152D01*
X149285714Y-96057419D02*
X149285714Y-96866942D01*
X149285714Y-96866942D02*
X149333333Y-96962180D01*
X149333333Y-96962180D02*
X149380952Y-97009800D01*
X149380952Y-97009800D02*
X149476190Y-97057419D01*
X149476190Y-97057419D02*
X149666666Y-97057419D01*
X149666666Y-97057419D02*
X149761904Y-97009800D01*
X149761904Y-97009800D02*
X149809523Y-96962180D01*
X149809523Y-96962180D02*
X149857142Y-96866942D01*
X149857142Y-96866942D02*
X149857142Y-96057419D01*
X150333333Y-97057419D02*
X150333333Y-96057419D01*
X151523809Y-96771704D02*
X151999999Y-96771704D01*
X151428571Y-97057419D02*
X151761904Y-96057419D01*
X151761904Y-96057419D02*
X152095237Y-97057419D01*
X152857142Y-97057419D02*
X152857142Y-96057419D01*
X152857142Y-97009800D02*
X152761904Y-97057419D01*
X152761904Y-97057419D02*
X152571428Y-97057419D01*
X152571428Y-97057419D02*
X152476190Y-97009800D01*
X152476190Y-97009800D02*
X152428571Y-96962180D01*
X152428571Y-96962180D02*
X152380952Y-96866942D01*
X152380952Y-96866942D02*
X152380952Y-96581228D01*
X152380952Y-96581228D02*
X152428571Y-96485990D01*
X152428571Y-96485990D02*
X152476190Y-96438371D01*
X152476190Y-96438371D02*
X152571428Y-96390752D01*
X152571428Y-96390752D02*
X152761904Y-96390752D01*
X152761904Y-96390752D02*
X152857142Y-96438371D01*
X153761904Y-97057419D02*
X153761904Y-96533609D01*
X153761904Y-96533609D02*
X153714285Y-96438371D01*
X153714285Y-96438371D02*
X153619047Y-96390752D01*
X153619047Y-96390752D02*
X153428571Y-96390752D01*
X153428571Y-96390752D02*
X153333333Y-96438371D01*
X153761904Y-97009800D02*
X153666666Y-97057419D01*
X153666666Y-97057419D02*
X153428571Y-97057419D01*
X153428571Y-97057419D02*
X153333333Y-97009800D01*
X153333333Y-97009800D02*
X153285714Y-96914561D01*
X153285714Y-96914561D02*
X153285714Y-96819323D01*
X153285714Y-96819323D02*
X153333333Y-96724085D01*
X153333333Y-96724085D02*
X153428571Y-96676466D01*
X153428571Y-96676466D02*
X153666666Y-96676466D01*
X153666666Y-96676466D02*
X153761904Y-96628847D01*
X154238095Y-96390752D02*
X154238095Y-97390752D01*
X154238095Y-96438371D02*
X154333333Y-96390752D01*
X154333333Y-96390752D02*
X154523809Y-96390752D01*
X154523809Y-96390752D02*
X154619047Y-96438371D01*
X154619047Y-96438371D02*
X154666666Y-96485990D01*
X154666666Y-96485990D02*
X154714285Y-96581228D01*
X154714285Y-96581228D02*
X154714285Y-96866942D01*
X154714285Y-96866942D02*
X154666666Y-96962180D01*
X154666666Y-96962180D02*
X154619047Y-97009800D01*
X154619047Y-97009800D02*
X154523809Y-97057419D01*
X154523809Y-97057419D02*
X154333333Y-97057419D01*
X154333333Y-97057419D02*
X154238095Y-97009800D01*
X155000000Y-96390752D02*
X155380952Y-96390752D01*
X155142857Y-96057419D02*
X155142857Y-96914561D01*
X155142857Y-96914561D02*
X155190476Y-97009800D01*
X155190476Y-97009800D02*
X155285714Y-97057419D01*
X155285714Y-97057419D02*
X155380952Y-97057419D01*
X156095238Y-97009800D02*
X156000000Y-97057419D01*
X156000000Y-97057419D02*
X155809524Y-97057419D01*
X155809524Y-97057419D02*
X155714286Y-97009800D01*
X155714286Y-97009800D02*
X155666667Y-96914561D01*
X155666667Y-96914561D02*
X155666667Y-96533609D01*
X155666667Y-96533609D02*
X155714286Y-96438371D01*
X155714286Y-96438371D02*
X155809524Y-96390752D01*
X155809524Y-96390752D02*
X156000000Y-96390752D01*
X156000000Y-96390752D02*
X156095238Y-96438371D01*
X156095238Y-96438371D02*
X156142857Y-96533609D01*
X156142857Y-96533609D02*
X156142857Y-96628847D01*
X156142857Y-96628847D02*
X155666667Y-96724085D01*
X156571429Y-97057419D02*
X156571429Y-96390752D01*
X156571429Y-96581228D02*
X156619048Y-96485990D01*
X156619048Y-96485990D02*
X156666667Y-96438371D01*
X156666667Y-96438371D02*
X156761905Y-96390752D01*
X156761905Y-96390752D02*
X156857143Y-96390752D01*
X123547619Y-96252447D02*
X123547619Y-95252447D01*
X123547619Y-95252447D02*
X123785714Y-95252447D01*
X123785714Y-95252447D02*
X123928571Y-95300066D01*
X123928571Y-95300066D02*
X124023809Y-95395304D01*
X124023809Y-95395304D02*
X124071428Y-95490542D01*
X124071428Y-95490542D02*
X124119047Y-95681018D01*
X124119047Y-95681018D02*
X124119047Y-95823875D01*
X124119047Y-95823875D02*
X124071428Y-96014351D01*
X124071428Y-96014351D02*
X124023809Y-96109589D01*
X124023809Y-96109589D02*
X123928571Y-96204828D01*
X123928571Y-96204828D02*
X123785714Y-96252447D01*
X123785714Y-96252447D02*
X123547619Y-96252447D01*
X124547619Y-96252447D02*
X124547619Y-95585780D01*
X124547619Y-95252447D02*
X124500000Y-95300066D01*
X124500000Y-95300066D02*
X124547619Y-95347685D01*
X124547619Y-95347685D02*
X124595238Y-95300066D01*
X124595238Y-95300066D02*
X124547619Y-95252447D01*
X124547619Y-95252447D02*
X124547619Y-95347685D01*
X124976190Y-96204828D02*
X125071428Y-96252447D01*
X125071428Y-96252447D02*
X125261904Y-96252447D01*
X125261904Y-96252447D02*
X125357142Y-96204828D01*
X125357142Y-96204828D02*
X125404761Y-96109589D01*
X125404761Y-96109589D02*
X125404761Y-96061970D01*
X125404761Y-96061970D02*
X125357142Y-95966732D01*
X125357142Y-95966732D02*
X125261904Y-95919113D01*
X125261904Y-95919113D02*
X125119047Y-95919113D01*
X125119047Y-95919113D02*
X125023809Y-95871494D01*
X125023809Y-95871494D02*
X124976190Y-95776256D01*
X124976190Y-95776256D02*
X124976190Y-95728637D01*
X124976190Y-95728637D02*
X125023809Y-95633399D01*
X125023809Y-95633399D02*
X125119047Y-95585780D01*
X125119047Y-95585780D02*
X125261904Y-95585780D01*
X125261904Y-95585780D02*
X125357142Y-95633399D01*
X125833333Y-95585780D02*
X125833333Y-96585780D01*
X125833333Y-95633399D02*
X125928571Y-95585780D01*
X125928571Y-95585780D02*
X126119047Y-95585780D01*
X126119047Y-95585780D02*
X126214285Y-95633399D01*
X126214285Y-95633399D02*
X126261904Y-95681018D01*
X126261904Y-95681018D02*
X126309523Y-95776256D01*
X126309523Y-95776256D02*
X126309523Y-96061970D01*
X126309523Y-96061970D02*
X126261904Y-96157208D01*
X126261904Y-96157208D02*
X126214285Y-96204828D01*
X126214285Y-96204828D02*
X126119047Y-96252447D01*
X126119047Y-96252447D02*
X125928571Y-96252447D01*
X125928571Y-96252447D02*
X125833333Y-96204828D01*
X126880952Y-96252447D02*
X126785714Y-96204828D01*
X126785714Y-96204828D02*
X126738095Y-96109589D01*
X126738095Y-96109589D02*
X126738095Y-95252447D01*
X127690476Y-96252447D02*
X127690476Y-95728637D01*
X127690476Y-95728637D02*
X127642857Y-95633399D01*
X127642857Y-95633399D02*
X127547619Y-95585780D01*
X127547619Y-95585780D02*
X127357143Y-95585780D01*
X127357143Y-95585780D02*
X127261905Y-95633399D01*
X127690476Y-96204828D02*
X127595238Y-96252447D01*
X127595238Y-96252447D02*
X127357143Y-96252447D01*
X127357143Y-96252447D02*
X127261905Y-96204828D01*
X127261905Y-96204828D02*
X127214286Y-96109589D01*
X127214286Y-96109589D02*
X127214286Y-96014351D01*
X127214286Y-96014351D02*
X127261905Y-95919113D01*
X127261905Y-95919113D02*
X127357143Y-95871494D01*
X127357143Y-95871494D02*
X127595238Y-95871494D01*
X127595238Y-95871494D02*
X127690476Y-95823875D01*
X128071429Y-95585780D02*
X128309524Y-96252447D01*
X128547619Y-95585780D02*
X128309524Y-96252447D01*
X128309524Y-96252447D02*
X128214286Y-96490542D01*
X128214286Y-96490542D02*
X128166667Y-96538161D01*
X128166667Y-96538161D02*
X128071429Y-96585780D01*
X123380952Y-97576676D02*
X123857142Y-97576676D01*
X123285714Y-97862391D02*
X123619047Y-96862391D01*
X123619047Y-96862391D02*
X123952380Y-97862391D01*
X124714285Y-97862391D02*
X124714285Y-96862391D01*
X124714285Y-97814772D02*
X124619047Y-97862391D01*
X124619047Y-97862391D02*
X124428571Y-97862391D01*
X124428571Y-97862391D02*
X124333333Y-97814772D01*
X124333333Y-97814772D02*
X124285714Y-97767152D01*
X124285714Y-97767152D02*
X124238095Y-97671914D01*
X124238095Y-97671914D02*
X124238095Y-97386200D01*
X124238095Y-97386200D02*
X124285714Y-97290962D01*
X124285714Y-97290962D02*
X124333333Y-97243343D01*
X124333333Y-97243343D02*
X124428571Y-97195724D01*
X124428571Y-97195724D02*
X124619047Y-97195724D01*
X124619047Y-97195724D02*
X124714285Y-97243343D01*
X125619047Y-97862391D02*
X125619047Y-97338581D01*
X125619047Y-97338581D02*
X125571428Y-97243343D01*
X125571428Y-97243343D02*
X125476190Y-97195724D01*
X125476190Y-97195724D02*
X125285714Y-97195724D01*
X125285714Y-97195724D02*
X125190476Y-97243343D01*
X125619047Y-97814772D02*
X125523809Y-97862391D01*
X125523809Y-97862391D02*
X125285714Y-97862391D01*
X125285714Y-97862391D02*
X125190476Y-97814772D01*
X125190476Y-97814772D02*
X125142857Y-97719533D01*
X125142857Y-97719533D02*
X125142857Y-97624295D01*
X125142857Y-97624295D02*
X125190476Y-97529057D01*
X125190476Y-97529057D02*
X125285714Y-97481438D01*
X125285714Y-97481438D02*
X125523809Y-97481438D01*
X125523809Y-97481438D02*
X125619047Y-97433819D01*
X126095238Y-97195724D02*
X126095238Y-98195724D01*
X126095238Y-97243343D02*
X126190476Y-97195724D01*
X126190476Y-97195724D02*
X126380952Y-97195724D01*
X126380952Y-97195724D02*
X126476190Y-97243343D01*
X126476190Y-97243343D02*
X126523809Y-97290962D01*
X126523809Y-97290962D02*
X126571428Y-97386200D01*
X126571428Y-97386200D02*
X126571428Y-97671914D01*
X126571428Y-97671914D02*
X126523809Y-97767152D01*
X126523809Y-97767152D02*
X126476190Y-97814772D01*
X126476190Y-97814772D02*
X126380952Y-97862391D01*
X126380952Y-97862391D02*
X126190476Y-97862391D01*
X126190476Y-97862391D02*
X126095238Y-97814772D01*
X126857143Y-97195724D02*
X127238095Y-97195724D01*
X127000000Y-96862391D02*
X127000000Y-97719533D01*
X127000000Y-97719533D02*
X127047619Y-97814772D01*
X127047619Y-97814772D02*
X127142857Y-97862391D01*
X127142857Y-97862391D02*
X127238095Y-97862391D01*
X127952381Y-97814772D02*
X127857143Y-97862391D01*
X127857143Y-97862391D02*
X127666667Y-97862391D01*
X127666667Y-97862391D02*
X127571429Y-97814772D01*
X127571429Y-97814772D02*
X127523810Y-97719533D01*
X127523810Y-97719533D02*
X127523810Y-97338581D01*
X127523810Y-97338581D02*
X127571429Y-97243343D01*
X127571429Y-97243343D02*
X127666667Y-97195724D01*
X127666667Y-97195724D02*
X127857143Y-97195724D01*
X127857143Y-97195724D02*
X127952381Y-97243343D01*
X127952381Y-97243343D02*
X128000000Y-97338581D01*
X128000000Y-97338581D02*
X128000000Y-97433819D01*
X128000000Y-97433819D02*
X127523810Y-97529057D01*
X128428572Y-97862391D02*
X128428572Y-97195724D01*
X128428572Y-97386200D02*
X128476191Y-97290962D01*
X128476191Y-97290962D02*
X128523810Y-97243343D01*
X128523810Y-97243343D02*
X128619048Y-97195724D01*
X128619048Y-97195724D02*
X128714286Y-97195724D01*
X123071428Y-86809800D02*
X123214285Y-86857419D01*
X123214285Y-86857419D02*
X123452380Y-86857419D01*
X123452380Y-86857419D02*
X123547618Y-86809800D01*
X123547618Y-86809800D02*
X123595237Y-86762180D01*
X123595237Y-86762180D02*
X123642856Y-86666942D01*
X123642856Y-86666942D02*
X123642856Y-86571704D01*
X123642856Y-86571704D02*
X123595237Y-86476466D01*
X123595237Y-86476466D02*
X123547618Y-86428847D01*
X123547618Y-86428847D02*
X123452380Y-86381228D01*
X123452380Y-86381228D02*
X123261904Y-86333609D01*
X123261904Y-86333609D02*
X123166666Y-86285990D01*
X123166666Y-86285990D02*
X123119047Y-86238371D01*
X123119047Y-86238371D02*
X123071428Y-86143133D01*
X123071428Y-86143133D02*
X123071428Y-86047895D01*
X123071428Y-86047895D02*
X123119047Y-85952657D01*
X123119047Y-85952657D02*
X123166666Y-85905038D01*
X123166666Y-85905038D02*
X123261904Y-85857419D01*
X123261904Y-85857419D02*
X123499999Y-85857419D01*
X123499999Y-85857419D02*
X123642856Y-85905038D01*
X124499999Y-86190752D02*
X124499999Y-86857419D01*
X124071428Y-86190752D02*
X124071428Y-86714561D01*
X124071428Y-86714561D02*
X124119047Y-86809800D01*
X124119047Y-86809800D02*
X124214285Y-86857419D01*
X124214285Y-86857419D02*
X124357142Y-86857419D01*
X124357142Y-86857419D02*
X124452380Y-86809800D01*
X124452380Y-86809800D02*
X124499999Y-86762180D01*
X124976190Y-86857419D02*
X124976190Y-85857419D01*
X124976190Y-86238371D02*
X125071428Y-86190752D01*
X125071428Y-86190752D02*
X125261904Y-86190752D01*
X125261904Y-86190752D02*
X125357142Y-86238371D01*
X125357142Y-86238371D02*
X125404761Y-86285990D01*
X125404761Y-86285990D02*
X125452380Y-86381228D01*
X125452380Y-86381228D02*
X125452380Y-86666942D01*
X125452380Y-86666942D02*
X125404761Y-86762180D01*
X125404761Y-86762180D02*
X125357142Y-86809800D01*
X125357142Y-86809800D02*
X125261904Y-86857419D01*
X125261904Y-86857419D02*
X125071428Y-86857419D01*
X125071428Y-86857419D02*
X124976190Y-86809800D01*
X125833333Y-86809800D02*
X125928571Y-86857419D01*
X125928571Y-86857419D02*
X126119047Y-86857419D01*
X126119047Y-86857419D02*
X126214285Y-86809800D01*
X126214285Y-86809800D02*
X126261904Y-86714561D01*
X126261904Y-86714561D02*
X126261904Y-86666942D01*
X126261904Y-86666942D02*
X126214285Y-86571704D01*
X126214285Y-86571704D02*
X126119047Y-86524085D01*
X126119047Y-86524085D02*
X125976190Y-86524085D01*
X125976190Y-86524085D02*
X125880952Y-86476466D01*
X125880952Y-86476466D02*
X125833333Y-86381228D01*
X125833333Y-86381228D02*
X125833333Y-86333609D01*
X125833333Y-86333609D02*
X125880952Y-86238371D01*
X125880952Y-86238371D02*
X125976190Y-86190752D01*
X125976190Y-86190752D02*
X126119047Y-86190752D01*
X126119047Y-86190752D02*
X126214285Y-86238371D01*
X126547619Y-86190752D02*
X126928571Y-86190752D01*
X126690476Y-85857419D02*
X126690476Y-86714561D01*
X126690476Y-86714561D02*
X126738095Y-86809800D01*
X126738095Y-86809800D02*
X126833333Y-86857419D01*
X126833333Y-86857419D02*
X126928571Y-86857419D01*
X127261905Y-86857419D02*
X127261905Y-86190752D01*
X127261905Y-86381228D02*
X127309524Y-86285990D01*
X127309524Y-86285990D02*
X127357143Y-86238371D01*
X127357143Y-86238371D02*
X127452381Y-86190752D01*
X127452381Y-86190752D02*
X127547619Y-86190752D01*
X128309524Y-86190752D02*
X128309524Y-86857419D01*
X127880953Y-86190752D02*
X127880953Y-86714561D01*
X127880953Y-86714561D02*
X127928572Y-86809800D01*
X127928572Y-86809800D02*
X128023810Y-86857419D01*
X128023810Y-86857419D02*
X128166667Y-86857419D01*
X128166667Y-86857419D02*
X128261905Y-86809800D01*
X128261905Y-86809800D02*
X128309524Y-86762180D01*
X128642858Y-86190752D02*
X129023810Y-86190752D01*
X128785715Y-85857419D02*
X128785715Y-86714561D01*
X128785715Y-86714561D02*
X128833334Y-86809800D01*
X128833334Y-86809800D02*
X128928572Y-86857419D01*
X128928572Y-86857419D02*
X129023810Y-86857419D01*
X178666667Y-86857419D02*
X178666667Y-85857419D01*
X178666667Y-85857419D02*
X179000000Y-86571704D01*
X179000000Y-86571704D02*
X179333333Y-85857419D01*
X179333333Y-85857419D02*
X179333333Y-86857419D01*
X180380952Y-86762180D02*
X180333333Y-86809800D01*
X180333333Y-86809800D02*
X180190476Y-86857419D01*
X180190476Y-86857419D02*
X180095238Y-86857419D01*
X180095238Y-86857419D02*
X179952381Y-86809800D01*
X179952381Y-86809800D02*
X179857143Y-86714561D01*
X179857143Y-86714561D02*
X179809524Y-86619323D01*
X179809524Y-86619323D02*
X179761905Y-86428847D01*
X179761905Y-86428847D02*
X179761905Y-86285990D01*
X179761905Y-86285990D02*
X179809524Y-86095514D01*
X179809524Y-86095514D02*
X179857143Y-86000276D01*
X179857143Y-86000276D02*
X179952381Y-85905038D01*
X179952381Y-85905038D02*
X180095238Y-85857419D01*
X180095238Y-85857419D02*
X180190476Y-85857419D01*
X180190476Y-85857419D02*
X180333333Y-85905038D01*
X180333333Y-85905038D02*
X180380952Y-85952657D01*
X181142857Y-86333609D02*
X181285714Y-86381228D01*
X181285714Y-86381228D02*
X181333333Y-86428847D01*
X181333333Y-86428847D02*
X181380952Y-86524085D01*
X181380952Y-86524085D02*
X181380952Y-86666942D01*
X181380952Y-86666942D02*
X181333333Y-86762180D01*
X181333333Y-86762180D02*
X181285714Y-86809800D01*
X181285714Y-86809800D02*
X181190476Y-86857419D01*
X181190476Y-86857419D02*
X180809524Y-86857419D01*
X180809524Y-86857419D02*
X180809524Y-85857419D01*
X180809524Y-85857419D02*
X181142857Y-85857419D01*
X181142857Y-85857419D02*
X181238095Y-85905038D01*
X181238095Y-85905038D02*
X181285714Y-85952657D01*
X181285714Y-85952657D02*
X181333333Y-86047895D01*
X181333333Y-86047895D02*
X181333333Y-86143133D01*
X181333333Y-86143133D02*
X181285714Y-86238371D01*
X181285714Y-86238371D02*
X181238095Y-86285990D01*
X181238095Y-86285990D02*
X181142857Y-86333609D01*
X181142857Y-86333609D02*
X180809524Y-86333609D01*
D11*
X149380952Y-112252438D02*
X149285714Y-112204819D01*
X149285714Y-112204819D02*
X149142857Y-112204819D01*
X149142857Y-112204819D02*
X149000000Y-112252438D01*
X149000000Y-112252438D02*
X148904762Y-112347676D01*
X148904762Y-112347676D02*
X148857143Y-112442914D01*
X148857143Y-112442914D02*
X148809524Y-112633390D01*
X148809524Y-112633390D02*
X148809524Y-112776247D01*
X148809524Y-112776247D02*
X148857143Y-112966723D01*
X148857143Y-112966723D02*
X148904762Y-113061961D01*
X148904762Y-113061961D02*
X149000000Y-113157200D01*
X149000000Y-113157200D02*
X149142857Y-113204819D01*
X149142857Y-113204819D02*
X149238095Y-113204819D01*
X149238095Y-113204819D02*
X149380952Y-113157200D01*
X149380952Y-113157200D02*
X149428571Y-113109580D01*
X149428571Y-113109580D02*
X149428571Y-112776247D01*
X149428571Y-112776247D02*
X149238095Y-112776247D01*
X149857143Y-112823866D02*
X150619048Y-112823866D01*
X151571428Y-112204819D02*
X151095238Y-112204819D01*
X151095238Y-112204819D02*
X151047619Y-112681009D01*
X151047619Y-112681009D02*
X151095238Y-112633390D01*
X151095238Y-112633390D02*
X151190476Y-112585771D01*
X151190476Y-112585771D02*
X151428571Y-112585771D01*
X151428571Y-112585771D02*
X151523809Y-112633390D01*
X151523809Y-112633390D02*
X151571428Y-112681009D01*
X151571428Y-112681009D02*
X151619047Y-112776247D01*
X151619047Y-112776247D02*
X151619047Y-113014342D01*
X151619047Y-113014342D02*
X151571428Y-113109580D01*
X151571428Y-113109580D02*
X151523809Y-113157200D01*
X151523809Y-113157200D02*
X151428571Y-113204819D01*
X151428571Y-113204819D02*
X151190476Y-113204819D01*
X151190476Y-113204819D02*
X151095238Y-113157200D01*
X151095238Y-113157200D02*
X151047619Y-113109580D01*
X151904762Y-112204819D02*
X152238095Y-113204819D01*
X152238095Y-113204819D02*
X152571428Y-112204819D01*
X153666667Y-113204819D02*
X153666667Y-112204819D01*
X154095238Y-112300057D02*
X154142857Y-112252438D01*
X154142857Y-112252438D02*
X154238095Y-112204819D01*
X154238095Y-112204819D02*
X154476190Y-112204819D01*
X154476190Y-112204819D02*
X154571428Y-112252438D01*
X154571428Y-112252438D02*
X154619047Y-112300057D01*
X154619047Y-112300057D02*
X154666666Y-112395295D01*
X154666666Y-112395295D02*
X154666666Y-112490533D01*
X154666666Y-112490533D02*
X154619047Y-112633390D01*
X154619047Y-112633390D02*
X154047619Y-113204819D01*
X154047619Y-113204819D02*
X154666666Y-113204819D01*
X155666666Y-113109580D02*
X155619047Y-113157200D01*
X155619047Y-113157200D02*
X155476190Y-113204819D01*
X155476190Y-113204819D02*
X155380952Y-113204819D01*
X155380952Y-113204819D02*
X155238095Y-113157200D01*
X155238095Y-113157200D02*
X155142857Y-113061961D01*
X155142857Y-113061961D02*
X155095238Y-112966723D01*
X155095238Y-112966723D02*
X155047619Y-112776247D01*
X155047619Y-112776247D02*
X155047619Y-112633390D01*
X155047619Y-112633390D02*
X155095238Y-112442914D01*
X155095238Y-112442914D02*
X155142857Y-112347676D01*
X155142857Y-112347676D02*
X155238095Y-112252438D01*
X155238095Y-112252438D02*
X155380952Y-112204819D01*
X155380952Y-112204819D02*
X155476190Y-112204819D01*
X155476190Y-112204819D02*
X155619047Y-112252438D01*
X155619047Y-112252438D02*
X155666666Y-112300057D01*
X157047619Y-112204819D02*
X157238095Y-112204819D01*
X157238095Y-112204819D02*
X157333333Y-112252438D01*
X157333333Y-112252438D02*
X157428571Y-112347676D01*
X157428571Y-112347676D02*
X157476190Y-112538152D01*
X157476190Y-112538152D02*
X157476190Y-112871485D01*
X157476190Y-112871485D02*
X157428571Y-113061961D01*
X157428571Y-113061961D02*
X157333333Y-113157200D01*
X157333333Y-113157200D02*
X157238095Y-113204819D01*
X157238095Y-113204819D02*
X157047619Y-113204819D01*
X157047619Y-113204819D02*
X156952381Y-113157200D01*
X156952381Y-113157200D02*
X156857143Y-113061961D01*
X156857143Y-113061961D02*
X156809524Y-112871485D01*
X156809524Y-112871485D02*
X156809524Y-112538152D01*
X156809524Y-112538152D02*
X156857143Y-112347676D01*
X156857143Y-112347676D02*
X156952381Y-112252438D01*
X156952381Y-112252438D02*
X157047619Y-112204819D01*
X158380952Y-113204819D02*
X157904762Y-113204819D01*
X157904762Y-113204819D02*
X157904762Y-112204819D01*
X158714286Y-112681009D02*
X159047619Y-112681009D01*
X159190476Y-113204819D02*
X158714286Y-113204819D01*
X158714286Y-113204819D02*
X158714286Y-112204819D01*
X158714286Y-112204819D02*
X159190476Y-112204819D01*
X159619048Y-113204819D02*
X159619048Y-112204819D01*
X159619048Y-112204819D02*
X159857143Y-112204819D01*
X159857143Y-112204819D02*
X160000000Y-112252438D01*
X160000000Y-112252438D02*
X160095238Y-112347676D01*
X160095238Y-112347676D02*
X160142857Y-112442914D01*
X160142857Y-112442914D02*
X160190476Y-112633390D01*
X160190476Y-112633390D02*
X160190476Y-112776247D01*
X160190476Y-112776247D02*
X160142857Y-112966723D01*
X160142857Y-112966723D02*
X160095238Y-113061961D01*
X160095238Y-113061961D02*
X160000000Y-113157200D01*
X160000000Y-113157200D02*
X159857143Y-113204819D01*
X159857143Y-113204819D02*
X159619048Y-113204819D01*
X145833333Y-121800057D02*
X145880952Y-121752438D01*
X145880952Y-121752438D02*
X145976190Y-121704819D01*
X145976190Y-121704819D02*
X146214285Y-121704819D01*
X146214285Y-121704819D02*
X146309523Y-121752438D01*
X146309523Y-121752438D02*
X146357142Y-121800057D01*
X146357142Y-121800057D02*
X146404761Y-121895295D01*
X146404761Y-121895295D02*
X146404761Y-121990533D01*
X146404761Y-121990533D02*
X146357142Y-122133390D01*
X146357142Y-122133390D02*
X145785714Y-122704819D01*
X145785714Y-122704819D02*
X146404761Y-122704819D01*
X146833333Y-122609580D02*
X146880952Y-122657200D01*
X146880952Y-122657200D02*
X146833333Y-122704819D01*
X146833333Y-122704819D02*
X146785714Y-122657200D01*
X146785714Y-122657200D02*
X146833333Y-122609580D01*
X146833333Y-122609580D02*
X146833333Y-122704819D01*
X147499999Y-121704819D02*
X147595237Y-121704819D01*
X147595237Y-121704819D02*
X147690475Y-121752438D01*
X147690475Y-121752438D02*
X147738094Y-121800057D01*
X147738094Y-121800057D02*
X147785713Y-121895295D01*
X147785713Y-121895295D02*
X147833332Y-122085771D01*
X147833332Y-122085771D02*
X147833332Y-122323866D01*
X147833332Y-122323866D02*
X147785713Y-122514342D01*
X147785713Y-122514342D02*
X147738094Y-122609580D01*
X147738094Y-122609580D02*
X147690475Y-122657200D01*
X147690475Y-122657200D02*
X147595237Y-122704819D01*
X147595237Y-122704819D02*
X147499999Y-122704819D01*
X147499999Y-122704819D02*
X147404761Y-122657200D01*
X147404761Y-122657200D02*
X147357142Y-122609580D01*
X147357142Y-122609580D02*
X147309523Y-122514342D01*
X147309523Y-122514342D02*
X147261904Y-122323866D01*
X147261904Y-122323866D02*
X147261904Y-122085771D01*
X147261904Y-122085771D02*
X147309523Y-121895295D01*
X147309523Y-121895295D02*
X147357142Y-121800057D01*
X147357142Y-121800057D02*
X147404761Y-121752438D01*
X147404761Y-121752438D02*
X147499999Y-121704819D01*
X149023809Y-122704819D02*
X149023809Y-121704819D01*
X149499999Y-122704819D02*
X149499999Y-121704819D01*
X149499999Y-121704819D02*
X149880951Y-121704819D01*
X149880951Y-121704819D02*
X149976189Y-121752438D01*
X149976189Y-121752438D02*
X150023808Y-121800057D01*
X150023808Y-121800057D02*
X150071427Y-121895295D01*
X150071427Y-121895295D02*
X150071427Y-122038152D01*
X150071427Y-122038152D02*
X150023808Y-122133390D01*
X150023808Y-122133390D02*
X149976189Y-122181009D01*
X149976189Y-122181009D02*
X149880951Y-122228628D01*
X149880951Y-122228628D02*
X149499999Y-122228628D01*
X150452380Y-122657200D02*
X150595237Y-122704819D01*
X150595237Y-122704819D02*
X150833332Y-122704819D01*
X150833332Y-122704819D02*
X150928570Y-122657200D01*
X150928570Y-122657200D02*
X150976189Y-122609580D01*
X150976189Y-122609580D02*
X151023808Y-122514342D01*
X151023808Y-122514342D02*
X151023808Y-122419104D01*
X151023808Y-122419104D02*
X150976189Y-122323866D01*
X150976189Y-122323866D02*
X150928570Y-122276247D01*
X150928570Y-122276247D02*
X150833332Y-122228628D01*
X150833332Y-122228628D02*
X150642856Y-122181009D01*
X150642856Y-122181009D02*
X150547618Y-122133390D01*
X150547618Y-122133390D02*
X150499999Y-122085771D01*
X150499999Y-122085771D02*
X150452380Y-121990533D01*
X150452380Y-121990533D02*
X150452380Y-121895295D01*
X150452380Y-121895295D02*
X150499999Y-121800057D01*
X150499999Y-121800057D02*
X150547618Y-121752438D01*
X150547618Y-121752438D02*
X150642856Y-121704819D01*
X150642856Y-121704819D02*
X150880951Y-121704819D01*
X150880951Y-121704819D02*
X151023808Y-121752438D01*
X152214285Y-122704819D02*
X152214285Y-121704819D01*
X152214285Y-121704819D02*
X152452380Y-121704819D01*
X152452380Y-121704819D02*
X152595237Y-121752438D01*
X152595237Y-121752438D02*
X152690475Y-121847676D01*
X152690475Y-121847676D02*
X152738094Y-121942914D01*
X152738094Y-121942914D02*
X152785713Y-122133390D01*
X152785713Y-122133390D02*
X152785713Y-122276247D01*
X152785713Y-122276247D02*
X152738094Y-122466723D01*
X152738094Y-122466723D02*
X152690475Y-122561961D01*
X152690475Y-122561961D02*
X152595237Y-122657200D01*
X152595237Y-122657200D02*
X152452380Y-122704819D01*
X152452380Y-122704819D02*
X152214285Y-122704819D01*
X153214285Y-122704819D02*
X153214285Y-122038152D01*
X153214285Y-121704819D02*
X153166666Y-121752438D01*
X153166666Y-121752438D02*
X153214285Y-121800057D01*
X153214285Y-121800057D02*
X153261904Y-121752438D01*
X153261904Y-121752438D02*
X153214285Y-121704819D01*
X153214285Y-121704819D02*
X153214285Y-121800057D01*
X153642856Y-122657200D02*
X153738094Y-122704819D01*
X153738094Y-122704819D02*
X153928570Y-122704819D01*
X153928570Y-122704819D02*
X154023808Y-122657200D01*
X154023808Y-122657200D02*
X154071427Y-122561961D01*
X154071427Y-122561961D02*
X154071427Y-122514342D01*
X154071427Y-122514342D02*
X154023808Y-122419104D01*
X154023808Y-122419104D02*
X153928570Y-122371485D01*
X153928570Y-122371485D02*
X153785713Y-122371485D01*
X153785713Y-122371485D02*
X153690475Y-122323866D01*
X153690475Y-122323866D02*
X153642856Y-122228628D01*
X153642856Y-122228628D02*
X153642856Y-122181009D01*
X153642856Y-122181009D02*
X153690475Y-122085771D01*
X153690475Y-122085771D02*
X153785713Y-122038152D01*
X153785713Y-122038152D02*
X153928570Y-122038152D01*
X153928570Y-122038152D02*
X154023808Y-122085771D01*
X154499999Y-122038152D02*
X154499999Y-123038152D01*
X154499999Y-122085771D02*
X154595237Y-122038152D01*
X154595237Y-122038152D02*
X154785713Y-122038152D01*
X154785713Y-122038152D02*
X154880951Y-122085771D01*
X154880951Y-122085771D02*
X154928570Y-122133390D01*
X154928570Y-122133390D02*
X154976189Y-122228628D01*
X154976189Y-122228628D02*
X154976189Y-122514342D01*
X154976189Y-122514342D02*
X154928570Y-122609580D01*
X154928570Y-122609580D02*
X154880951Y-122657200D01*
X154880951Y-122657200D02*
X154785713Y-122704819D01*
X154785713Y-122704819D02*
X154595237Y-122704819D01*
X154595237Y-122704819D02*
X154499999Y-122657200D01*
X155547618Y-122704819D02*
X155452380Y-122657200D01*
X155452380Y-122657200D02*
X155404761Y-122561961D01*
X155404761Y-122561961D02*
X155404761Y-121704819D01*
X156357142Y-122704819D02*
X156357142Y-122181009D01*
X156357142Y-122181009D02*
X156309523Y-122085771D01*
X156309523Y-122085771D02*
X156214285Y-122038152D01*
X156214285Y-122038152D02*
X156023809Y-122038152D01*
X156023809Y-122038152D02*
X155928571Y-122085771D01*
X156357142Y-122657200D02*
X156261904Y-122704819D01*
X156261904Y-122704819D02*
X156023809Y-122704819D01*
X156023809Y-122704819D02*
X155928571Y-122657200D01*
X155928571Y-122657200D02*
X155880952Y-122561961D01*
X155880952Y-122561961D02*
X155880952Y-122466723D01*
X155880952Y-122466723D02*
X155928571Y-122371485D01*
X155928571Y-122371485D02*
X156023809Y-122323866D01*
X156023809Y-122323866D02*
X156261904Y-122323866D01*
X156261904Y-122323866D02*
X156357142Y-122276247D01*
X156738095Y-122038152D02*
X156976190Y-122704819D01*
X157214285Y-122038152D02*
X156976190Y-122704819D01*
X156976190Y-122704819D02*
X156880952Y-122942914D01*
X156880952Y-122942914D02*
X156833333Y-122990533D01*
X156833333Y-122990533D02*
X156738095Y-123038152D01*
X150214286Y-110157200D02*
X150357143Y-110204819D01*
X150357143Y-110204819D02*
X150595238Y-110204819D01*
X150595238Y-110204819D02*
X150690476Y-110157200D01*
X150690476Y-110157200D02*
X150738095Y-110109580D01*
X150738095Y-110109580D02*
X150785714Y-110014342D01*
X150785714Y-110014342D02*
X150785714Y-109919104D01*
X150785714Y-109919104D02*
X150738095Y-109823866D01*
X150738095Y-109823866D02*
X150690476Y-109776247D01*
X150690476Y-109776247D02*
X150595238Y-109728628D01*
X150595238Y-109728628D02*
X150404762Y-109681009D01*
X150404762Y-109681009D02*
X150309524Y-109633390D01*
X150309524Y-109633390D02*
X150261905Y-109585771D01*
X150261905Y-109585771D02*
X150214286Y-109490533D01*
X150214286Y-109490533D02*
X150214286Y-109395295D01*
X150214286Y-109395295D02*
X150261905Y-109300057D01*
X150261905Y-109300057D02*
X150309524Y-109252438D01*
X150309524Y-109252438D02*
X150404762Y-109204819D01*
X150404762Y-109204819D02*
X150642857Y-109204819D01*
X150642857Y-109204819D02*
X150785714Y-109252438D01*
X151214286Y-110204819D02*
X151214286Y-109204819D01*
X151214286Y-109204819D02*
X151595238Y-109204819D01*
X151595238Y-109204819D02*
X151690476Y-109252438D01*
X151690476Y-109252438D02*
X151738095Y-109300057D01*
X151738095Y-109300057D02*
X151785714Y-109395295D01*
X151785714Y-109395295D02*
X151785714Y-109538152D01*
X151785714Y-109538152D02*
X151738095Y-109633390D01*
X151738095Y-109633390D02*
X151690476Y-109681009D01*
X151690476Y-109681009D02*
X151595238Y-109728628D01*
X151595238Y-109728628D02*
X151214286Y-109728628D01*
X152214286Y-110204819D02*
X152214286Y-109204819D01*
X153642857Y-109204819D02*
X153833333Y-109204819D01*
X153833333Y-109204819D02*
X153928571Y-109252438D01*
X153928571Y-109252438D02*
X154023809Y-109347676D01*
X154023809Y-109347676D02*
X154071428Y-109538152D01*
X154071428Y-109538152D02*
X154071428Y-109871485D01*
X154071428Y-109871485D02*
X154023809Y-110061961D01*
X154023809Y-110061961D02*
X153928571Y-110157200D01*
X153928571Y-110157200D02*
X153833333Y-110204819D01*
X153833333Y-110204819D02*
X153642857Y-110204819D01*
X153642857Y-110204819D02*
X153547619Y-110157200D01*
X153547619Y-110157200D02*
X153452381Y-110061961D01*
X153452381Y-110061961D02*
X153404762Y-109871485D01*
X153404762Y-109871485D02*
X153404762Y-109538152D01*
X153404762Y-109538152D02*
X153452381Y-109347676D01*
X153452381Y-109347676D02*
X153547619Y-109252438D01*
X153547619Y-109252438D02*
X153642857Y-109204819D01*
X154976190Y-110204819D02*
X154500000Y-110204819D01*
X154500000Y-110204819D02*
X154500000Y-109204819D01*
X155309524Y-109681009D02*
X155642857Y-109681009D01*
X155785714Y-110204819D02*
X155309524Y-110204819D01*
X155309524Y-110204819D02*
X155309524Y-109204819D01*
X155309524Y-109204819D02*
X155785714Y-109204819D01*
X156214286Y-110204819D02*
X156214286Y-109204819D01*
X156214286Y-109204819D02*
X156452381Y-109204819D01*
X156452381Y-109204819D02*
X156595238Y-109252438D01*
X156595238Y-109252438D02*
X156690476Y-109347676D01*
X156690476Y-109347676D02*
X156738095Y-109442914D01*
X156738095Y-109442914D02*
X156785714Y-109633390D01*
X156785714Y-109633390D02*
X156785714Y-109776247D01*
X156785714Y-109776247D02*
X156738095Y-109966723D01*
X156738095Y-109966723D02*
X156690476Y-110061961D01*
X156690476Y-110061961D02*
X156595238Y-110157200D01*
X156595238Y-110157200D02*
X156452381Y-110204819D01*
X156452381Y-110204819D02*
X156214286Y-110204819D01*
X149583333Y-110704819D02*
X149107143Y-110704819D01*
X149107143Y-110704819D02*
X149059524Y-111181009D01*
X149059524Y-111181009D02*
X149107143Y-111133390D01*
X149107143Y-111133390D02*
X149202381Y-111085771D01*
X149202381Y-111085771D02*
X149440476Y-111085771D01*
X149440476Y-111085771D02*
X149535714Y-111133390D01*
X149535714Y-111133390D02*
X149583333Y-111181009D01*
X149583333Y-111181009D02*
X149630952Y-111276247D01*
X149630952Y-111276247D02*
X149630952Y-111514342D01*
X149630952Y-111514342D02*
X149583333Y-111609580D01*
X149583333Y-111609580D02*
X149535714Y-111657200D01*
X149535714Y-111657200D02*
X149440476Y-111704819D01*
X149440476Y-111704819D02*
X149202381Y-111704819D01*
X149202381Y-111704819D02*
X149107143Y-111657200D01*
X149107143Y-111657200D02*
X149059524Y-111609580D01*
X149916667Y-110704819D02*
X150250000Y-111704819D01*
X150250000Y-111704819D02*
X150583333Y-110704819D01*
X150916667Y-111323866D02*
X151678572Y-111323866D01*
X152678571Y-110752438D02*
X152583333Y-110704819D01*
X152583333Y-110704819D02*
X152440476Y-110704819D01*
X152440476Y-110704819D02*
X152297619Y-110752438D01*
X152297619Y-110752438D02*
X152202381Y-110847676D01*
X152202381Y-110847676D02*
X152154762Y-110942914D01*
X152154762Y-110942914D02*
X152107143Y-111133390D01*
X152107143Y-111133390D02*
X152107143Y-111276247D01*
X152107143Y-111276247D02*
X152154762Y-111466723D01*
X152154762Y-111466723D02*
X152202381Y-111561961D01*
X152202381Y-111561961D02*
X152297619Y-111657200D01*
X152297619Y-111657200D02*
X152440476Y-111704819D01*
X152440476Y-111704819D02*
X152535714Y-111704819D01*
X152535714Y-111704819D02*
X152678571Y-111657200D01*
X152678571Y-111657200D02*
X152726190Y-111609580D01*
X152726190Y-111609580D02*
X152726190Y-111276247D01*
X152726190Y-111276247D02*
X152535714Y-111276247D01*
X153916667Y-111704819D02*
X153916667Y-110704819D01*
X154345238Y-110800057D02*
X154392857Y-110752438D01*
X154392857Y-110752438D02*
X154488095Y-110704819D01*
X154488095Y-110704819D02*
X154726190Y-110704819D01*
X154726190Y-110704819D02*
X154821428Y-110752438D01*
X154821428Y-110752438D02*
X154869047Y-110800057D01*
X154869047Y-110800057D02*
X154916666Y-110895295D01*
X154916666Y-110895295D02*
X154916666Y-110990533D01*
X154916666Y-110990533D02*
X154869047Y-111133390D01*
X154869047Y-111133390D02*
X154297619Y-111704819D01*
X154297619Y-111704819D02*
X154916666Y-111704819D01*
X155916666Y-111609580D02*
X155869047Y-111657200D01*
X155869047Y-111657200D02*
X155726190Y-111704819D01*
X155726190Y-111704819D02*
X155630952Y-111704819D01*
X155630952Y-111704819D02*
X155488095Y-111657200D01*
X155488095Y-111657200D02*
X155392857Y-111561961D01*
X155392857Y-111561961D02*
X155345238Y-111466723D01*
X155345238Y-111466723D02*
X155297619Y-111276247D01*
X155297619Y-111276247D02*
X155297619Y-111133390D01*
X155297619Y-111133390D02*
X155345238Y-110942914D01*
X155345238Y-110942914D02*
X155392857Y-110847676D01*
X155392857Y-110847676D02*
X155488095Y-110752438D01*
X155488095Y-110752438D02*
X155630952Y-110704819D01*
X155630952Y-110704819D02*
X155726190Y-110704819D01*
X155726190Y-110704819D02*
X155869047Y-110752438D01*
X155869047Y-110752438D02*
X155916666Y-110800057D01*
X157297619Y-110704819D02*
X157488095Y-110704819D01*
X157488095Y-110704819D02*
X157583333Y-110752438D01*
X157583333Y-110752438D02*
X157678571Y-110847676D01*
X157678571Y-110847676D02*
X157726190Y-111038152D01*
X157726190Y-111038152D02*
X157726190Y-111371485D01*
X157726190Y-111371485D02*
X157678571Y-111561961D01*
X157678571Y-111561961D02*
X157583333Y-111657200D01*
X157583333Y-111657200D02*
X157488095Y-111704819D01*
X157488095Y-111704819D02*
X157297619Y-111704819D01*
X157297619Y-111704819D02*
X157202381Y-111657200D01*
X157202381Y-111657200D02*
X157107143Y-111561961D01*
X157107143Y-111561961D02*
X157059524Y-111371485D01*
X157059524Y-111371485D02*
X157059524Y-111038152D01*
X157059524Y-111038152D02*
X157107143Y-110847676D01*
X157107143Y-110847676D02*
X157202381Y-110752438D01*
X157202381Y-110752438D02*
X157297619Y-110704819D01*
X158630952Y-111704819D02*
X158154762Y-111704819D01*
X158154762Y-111704819D02*
X158154762Y-110704819D01*
X158964286Y-111181009D02*
X159297619Y-111181009D01*
X159440476Y-111704819D02*
X158964286Y-111704819D01*
X158964286Y-111704819D02*
X158964286Y-110704819D01*
X158964286Y-110704819D02*
X159440476Y-110704819D01*
X159869048Y-111704819D02*
X159869048Y-110704819D01*
X159869048Y-110704819D02*
X160107143Y-110704819D01*
X160107143Y-110704819D02*
X160250000Y-110752438D01*
X160250000Y-110752438D02*
X160345238Y-110847676D01*
X160345238Y-110847676D02*
X160392857Y-110942914D01*
X160392857Y-110942914D02*
X160440476Y-111133390D01*
X160440476Y-111133390D02*
X160440476Y-111276247D01*
X160440476Y-111276247D02*
X160392857Y-111466723D01*
X160392857Y-111466723D02*
X160345238Y-111561961D01*
X160345238Y-111561961D02*
X160250000Y-111657200D01*
X160250000Y-111657200D02*
X160107143Y-111704819D01*
X160107143Y-111704819D02*
X159869048Y-111704819D01*
X149464286Y-121407200D02*
X149607143Y-121454819D01*
X149607143Y-121454819D02*
X149845238Y-121454819D01*
X149845238Y-121454819D02*
X149940476Y-121407200D01*
X149940476Y-121407200D02*
X149988095Y-121359580D01*
X149988095Y-121359580D02*
X150035714Y-121264342D01*
X150035714Y-121264342D02*
X150035714Y-121169104D01*
X150035714Y-121169104D02*
X149988095Y-121073866D01*
X149988095Y-121073866D02*
X149940476Y-121026247D01*
X149940476Y-121026247D02*
X149845238Y-120978628D01*
X149845238Y-120978628D02*
X149654762Y-120931009D01*
X149654762Y-120931009D02*
X149559524Y-120883390D01*
X149559524Y-120883390D02*
X149511905Y-120835771D01*
X149511905Y-120835771D02*
X149464286Y-120740533D01*
X149464286Y-120740533D02*
X149464286Y-120645295D01*
X149464286Y-120645295D02*
X149511905Y-120550057D01*
X149511905Y-120550057D02*
X149559524Y-120502438D01*
X149559524Y-120502438D02*
X149654762Y-120454819D01*
X149654762Y-120454819D02*
X149892857Y-120454819D01*
X149892857Y-120454819D02*
X150035714Y-120502438D01*
X150464286Y-121454819D02*
X150464286Y-120454819D01*
X150464286Y-120454819D02*
X150845238Y-120454819D01*
X150845238Y-120454819D02*
X150940476Y-120502438D01*
X150940476Y-120502438D02*
X150988095Y-120550057D01*
X150988095Y-120550057D02*
X151035714Y-120645295D01*
X151035714Y-120645295D02*
X151035714Y-120788152D01*
X151035714Y-120788152D02*
X150988095Y-120883390D01*
X150988095Y-120883390D02*
X150940476Y-120931009D01*
X150940476Y-120931009D02*
X150845238Y-120978628D01*
X150845238Y-120978628D02*
X150464286Y-120978628D01*
X151464286Y-121454819D02*
X151464286Y-120454819D01*
X152892857Y-120454819D02*
X153083333Y-120454819D01*
X153083333Y-120454819D02*
X153178571Y-120502438D01*
X153178571Y-120502438D02*
X153273809Y-120597676D01*
X153273809Y-120597676D02*
X153321428Y-120788152D01*
X153321428Y-120788152D02*
X153321428Y-121121485D01*
X153321428Y-121121485D02*
X153273809Y-121311961D01*
X153273809Y-121311961D02*
X153178571Y-121407200D01*
X153178571Y-121407200D02*
X153083333Y-121454819D01*
X153083333Y-121454819D02*
X152892857Y-121454819D01*
X152892857Y-121454819D02*
X152797619Y-121407200D01*
X152797619Y-121407200D02*
X152702381Y-121311961D01*
X152702381Y-121311961D02*
X152654762Y-121121485D01*
X152654762Y-121121485D02*
X152654762Y-120788152D01*
X152654762Y-120788152D02*
X152702381Y-120597676D01*
X152702381Y-120597676D02*
X152797619Y-120502438D01*
X152797619Y-120502438D02*
X152892857Y-120454819D01*
X154226190Y-121454819D02*
X153750000Y-121454819D01*
X153750000Y-121454819D02*
X153750000Y-120454819D01*
X154559524Y-120931009D02*
X154892857Y-120931009D01*
X155035714Y-121454819D02*
X154559524Y-121454819D01*
X154559524Y-121454819D02*
X154559524Y-120454819D01*
X154559524Y-120454819D02*
X155035714Y-120454819D01*
X155464286Y-121454819D02*
X155464286Y-120454819D01*
X155464286Y-120454819D02*
X155702381Y-120454819D01*
X155702381Y-120454819D02*
X155845238Y-120502438D01*
X155845238Y-120502438D02*
X155940476Y-120597676D01*
X155940476Y-120597676D02*
X155988095Y-120692914D01*
X155988095Y-120692914D02*
X156035714Y-120883390D01*
X156035714Y-120883390D02*
X156035714Y-121026247D01*
X156035714Y-121026247D02*
X155988095Y-121216723D01*
X155988095Y-121216723D02*
X155940476Y-121311961D01*
X155940476Y-121311961D02*
X155845238Y-121407200D01*
X155845238Y-121407200D02*
X155702381Y-121454819D01*
X155702381Y-121454819D02*
X155464286Y-121454819D01*
D10*
%TO.C,U2*%
X171499999Y-78750000D02*
X173899999Y-78750000D01*
X171499999Y-82100000D02*
X171499999Y-78750000D01*
X171499999Y-83499999D02*
X171499999Y-82100000D01*
X171999999Y-84000000D02*
X171499999Y-83499999D01*
X171999999Y-84000000D02*
X187999999Y-84000000D01*
X186099999Y-78750000D02*
X188499999Y-78750000D01*
X187999999Y-84000000D02*
X188499999Y-83499999D01*
X188499999Y-78750000D02*
X188499999Y-82100000D01*
X188499999Y-83499999D02*
X188499999Y-82100000D01*
D12*
%TO.C,ESP1*%
X170800000Y-56740001D02*
X171899999Y-56740001D01*
X170849999Y-76240001D02*
X170849999Y-75240001D01*
X170849999Y-76240001D02*
X171849999Y-76240001D01*
X170999999Y-56890001D02*
X170999999Y-57390001D01*
X170999999Y-75240001D02*
X170999999Y-76090001D01*
X170999999Y-76090001D02*
X172299999Y-76090001D01*
X188999999Y-56890001D02*
X170999999Y-56890001D01*
X188999999Y-56890001D02*
X188999999Y-57390001D01*
X188999999Y-75340001D02*
X188999999Y-76090001D01*
X188999999Y-76090001D02*
X187649999Y-76090001D01*
X189149999Y-56740001D02*
X188149999Y-56740001D01*
X189149999Y-57390001D02*
X189149999Y-56740001D01*
X189149999Y-75340001D02*
X189149999Y-76240001D01*
X189149999Y-76240001D02*
X188149999Y-76240001D01*
D13*
%TO.C,REF\u002A\u002A*%
G36*
X181676850Y-50869927D02*
G01*
X181707704Y-50875804D01*
X181717999Y-50882000D01*
X181726068Y-50894348D01*
X181728474Y-50911484D01*
X181724519Y-50935556D01*
X181713503Y-50968704D01*
X181694727Y-51013075D01*
X181667491Y-51070810D01*
X181635147Y-51136016D01*
X181585127Y-51237684D01*
X181541278Y-51332271D01*
X181502491Y-51423036D01*
X181467663Y-51513239D01*
X181435687Y-51606137D01*
X181405459Y-51704990D01*
X181375872Y-51813056D01*
X181345821Y-51933594D01*
X181314201Y-52069863D01*
X181306146Y-52105760D01*
X181279433Y-52229875D01*
X181257875Y-52340620D01*
X181240525Y-52443671D01*
X181226423Y-52544703D01*
X181214620Y-52649390D01*
X181214244Y-52653120D01*
X181207584Y-52693187D01*
X181197473Y-52714168D01*
X181192964Y-52717165D01*
X181181046Y-52717597D01*
X181169287Y-52707353D01*
X181155698Y-52683701D01*
X181138284Y-52643910D01*
X181136687Y-52640000D01*
X181107988Y-52579965D01*
X181068030Y-52511306D01*
X181020081Y-52439146D01*
X180967408Y-52368608D01*
X180949347Y-52346319D01*
X180845420Y-52236349D01*
X180727939Y-52140192D01*
X180598656Y-52058788D01*
X180459324Y-51993079D01*
X180311697Y-51944005D01*
X180157527Y-51912508D01*
X180135788Y-51909588D01*
X180044971Y-51902666D01*
X179945400Y-51902706D01*
X179845672Y-51909345D01*
X179754385Y-51922229D01*
X179734327Y-51926287D01*
X179675941Y-51937883D01*
X179634752Y-51943357D01*
X179608929Y-51942760D01*
X179596646Y-51936142D01*
X179594999Y-51930000D01*
X179603063Y-51920541D01*
X179625918Y-51901698D01*
X179661555Y-51874942D01*
X179707964Y-51841744D01*
X179763139Y-51803574D01*
X179820407Y-51765000D01*
X179921381Y-51699354D01*
X180032989Y-51629550D01*
X180152969Y-51556832D01*
X180279062Y-51482439D01*
X180409007Y-51407613D01*
X180540546Y-51333595D01*
X180671417Y-51261625D01*
X180799361Y-51192945D01*
X180922119Y-51128796D01*
X181037429Y-51070418D01*
X181143031Y-51019054D01*
X181236666Y-50975942D01*
X181316074Y-50942326D01*
X181324999Y-50938810D01*
X181386590Y-50917374D01*
X181451508Y-50899269D01*
X181516373Y-50884983D01*
X181577805Y-50875005D01*
X181632424Y-50869824D01*
X181676850Y-50869927D01*
G37*
G36*
X180058066Y-52066775D02*
G01*
X180122852Y-52070731D01*
X180180971Y-52078673D01*
X180239036Y-52091577D01*
X180303664Y-52110421D01*
X180322253Y-52116380D01*
X180452542Y-52168856D01*
X180575309Y-52238319D01*
X180688796Y-52322916D01*
X180791248Y-52420783D01*
X180880908Y-52530067D01*
X180956020Y-52648909D01*
X181014828Y-52775453D01*
X181050343Y-52886349D01*
X181076129Y-53012993D01*
X181086534Y-53134519D01*
X181082060Y-53257960D01*
X181079005Y-53287145D01*
X181055675Y-53418333D01*
X181016446Y-53543779D01*
X180960420Y-53665295D01*
X180886700Y-53784699D01*
X180794391Y-53903806D01*
X180749108Y-53955000D01*
X180625816Y-54099070D01*
X180520718Y-54242189D01*
X180434479Y-54383424D01*
X180409427Y-54431136D01*
X180391714Y-54467442D01*
X180374710Y-54504922D01*
X180357311Y-54546425D01*
X180338414Y-54594802D01*
X180316915Y-54652902D01*
X180291709Y-54723573D01*
X180261691Y-54809666D01*
X180252937Y-54835000D01*
X180220965Y-54924745D01*
X180192632Y-54997162D01*
X180166735Y-55054323D01*
X180142069Y-55098303D01*
X180117431Y-55131177D01*
X180091616Y-55155020D01*
X180063420Y-55171907D01*
X180055303Y-55175518D01*
X180016591Y-55186701D01*
X179961988Y-55195608D01*
X179954238Y-55196373D01*
X179895485Y-55202174D01*
X179821067Y-55206334D01*
X179742723Y-55208025D01*
X179664440Y-55207182D01*
X179590206Y-55203741D01*
X179524009Y-55197637D01*
X179469836Y-55188806D01*
X179454999Y-55185207D01*
X179370861Y-55152505D01*
X179293230Y-55101646D01*
X179222008Y-55032484D01*
X179157094Y-54944872D01*
X179098390Y-54838663D01*
X179045795Y-54713710D01*
X178999211Y-54569868D01*
X178974242Y-54475000D01*
X178960915Y-54418339D01*
X178949354Y-54364210D01*
X178939357Y-54310470D01*
X178930727Y-54254977D01*
X178923261Y-54195585D01*
X178916761Y-54130150D01*
X178911026Y-54056532D01*
X178905855Y-53972585D01*
X178901049Y-53876163D01*
X178896408Y-53765127D01*
X178891731Y-53637330D01*
X178889267Y-53565000D01*
X178885410Y-53433003D01*
X178883433Y-53318661D01*
X178883522Y-53219702D01*
X178883842Y-53207961D01*
X179552639Y-53207961D01*
X179569017Y-53294916D01*
X179602698Y-53377899D01*
X179607029Y-53385844D01*
X179634354Y-53424579D01*
X179673116Y-53466904D01*
X179717143Y-53506928D01*
X179760261Y-53538758D01*
X179777926Y-53548944D01*
X179864795Y-53582745D01*
X179954238Y-53597992D01*
X180043551Y-53595046D01*
X180130024Y-53574266D01*
X180210948Y-53536012D01*
X180282261Y-53481917D01*
X180336428Y-53421724D01*
X180377035Y-53353484D01*
X180401333Y-53292024D01*
X180413222Y-53236274D01*
X180417336Y-53170068D01*
X180413910Y-53101273D01*
X180403175Y-53037759D01*
X180392789Y-53004060D01*
X180350936Y-52922288D01*
X180293878Y-52851952D01*
X180223816Y-52795303D01*
X180152518Y-52758306D01*
X180121842Y-52747372D01*
X180091475Y-52740437D01*
X180055427Y-52736674D01*
X180007709Y-52735256D01*
X179984999Y-52735160D01*
X179908290Y-52738372D01*
X179845175Y-52749154D01*
X179790121Y-52769225D01*
X179737592Y-52800304D01*
X179710680Y-52820404D01*
X179648945Y-52881448D01*
X179601714Y-52953776D01*
X179569547Y-53034339D01*
X179553001Y-53120085D01*
X179552639Y-53207961D01*
X178883842Y-53207961D01*
X178885864Y-53133853D01*
X178890646Y-53058841D01*
X178898055Y-52992394D01*
X178908278Y-52932238D01*
X178921501Y-52876102D01*
X178937913Y-52821712D01*
X178954175Y-52776041D01*
X179011540Y-52651330D01*
X179086120Y-52533037D01*
X179175605Y-52423457D01*
X179277689Y-52324894D01*
X179390064Y-52239646D01*
X179510419Y-52170014D01*
X179602287Y-52130255D01*
X179693956Y-52100277D01*
X179783479Y-52080355D01*
X179877973Y-52069273D01*
X179979999Y-52065826D01*
X180058066Y-52066775D01*
G37*
D14*
%TO.C,J3*%
X187714899Y-56735700D02*
G75*
G02*
X186952899Y-56735700I-381000J0D01*
G01*
X186952899Y-56735700D02*
G75*
G02*
X187714899Y-56735700I381000J0D01*
G01*
D12*
%TO.C,J1*%
X190205000Y-100645000D02*
X190205000Y-101975000D01*
X188875000Y-100645000D02*
X190205000Y-100645000D01*
X187604999Y-100645000D02*
X169764999Y-100645000D01*
X187604999Y-100645000D02*
X187605000Y-103245000D01*
X169764999Y-100645000D02*
X169765000Y-105845000D01*
X190205000Y-103245001D02*
X190205000Y-105845000D01*
X187605000Y-103245000D02*
X190205000Y-103245001D01*
X190205000Y-105845000D02*
X169765000Y-105845000D01*
%TO.C,R3*%
X174522500Y-114760276D02*
X174522500Y-115269724D01*
X173477500Y-114760276D02*
X173477500Y-115269724D01*
%TO.C,R4*%
X174522500Y-118760276D02*
X174522500Y-119269724D01*
X173477500Y-118760276D02*
X173477500Y-119269724D01*
%TO.C,R2*%
X180022500Y-118745276D02*
X180022500Y-119254724D01*
X178977500Y-118745276D02*
X178977500Y-119254724D01*
D10*
%TO.C,U1*%
X188000000Y-105700000D02*
X172000000Y-105700000D01*
X188000000Y-105700000D02*
X188500000Y-106200001D01*
X172000000Y-105700000D02*
X171500000Y-106200001D01*
X188500000Y-106200001D02*
X188500000Y-107600000D01*
X171500000Y-106200001D02*
X171500000Y-107600000D01*
X188500000Y-107600000D02*
X188500000Y-110950000D01*
X188500000Y-110950000D02*
X186100000Y-110950000D01*
X173900000Y-110950000D02*
X171500000Y-110950000D01*
X171500000Y-110950000D02*
X171500000Y-107600000D01*
D12*
%TO.C,R1*%
X180022500Y-114745276D02*
X180022500Y-115254724D01*
X178977500Y-114745276D02*
X178977500Y-115254724D01*
%TO.C,SnootFNMosFan1*%
X183250000Y-113439999D02*
X184050000Y-113440000D01*
X183250000Y-113439999D02*
X182450000Y-113440000D01*
X183250000Y-116560001D02*
X184050000Y-116560000D01*
X183250000Y-116560001D02*
X182450000Y-116560000D01*
X181950000Y-113490000D02*
X181710000Y-113160000D01*
X182190000Y-113160000D01*
X181950000Y-113490000D01*
G36*
X181950000Y-113490000D02*
G01*
X181710000Y-113160000D01*
X182190000Y-113160000D01*
X181950000Y-113490000D01*
G37*
%TO.C,J4*%
X169920000Y-113145000D02*
X171250000Y-113145000D01*
X169920000Y-114475000D02*
X169920000Y-113145000D01*
X172580000Y-115745001D02*
X172580000Y-120884999D01*
X169920000Y-115745001D02*
X172580000Y-115745001D01*
X169920000Y-115745001D02*
X169920000Y-120884999D01*
X169920000Y-120884999D02*
X172580000Y-120884999D01*
%TO.C,J2*%
X187670000Y-111880001D02*
X189000000Y-111880001D01*
X187670000Y-113210001D02*
X187670000Y-111880001D01*
X190330000Y-114480002D02*
X190330000Y-119620000D01*
X187670000Y-114480002D02*
X190330000Y-114480002D01*
X187670000Y-114480002D02*
X187670000Y-119620000D01*
X187670000Y-119620000D02*
X190330000Y-119620000D01*
%TO.C,J3*%
X175420000Y-113130000D02*
X176750000Y-113130000D01*
X175420000Y-114460000D02*
X175420000Y-113130000D01*
X178080000Y-115730001D02*
X178080000Y-120869999D01*
X175420000Y-115730001D02*
X178080000Y-115730001D01*
X175420000Y-115730001D02*
X175420000Y-120869999D01*
X175420000Y-120869999D02*
X178080000Y-120869999D01*
%TO.C,J5*%
X183745001Y-117670001D02*
X186345000Y-117670001D01*
X186345000Y-120330001D02*
X186345000Y-117670001D01*
X183745001Y-120330001D02*
X183745001Y-117670001D01*
X183745001Y-120330001D02*
X186345000Y-120330001D01*
X182475000Y-120330001D02*
X181145000Y-120330001D01*
X181145000Y-120330001D02*
X181145000Y-119000001D01*
D10*
%TO.C,U1*%
X115450001Y-120000001D02*
X116850000Y-120000001D01*
X120200000Y-120000001D02*
X116850000Y-120000001D01*
X114950000Y-119500001D02*
X115450001Y-120000001D01*
X120200000Y-117600001D02*
X120200000Y-120000001D01*
X114950000Y-106500001D02*
X114950000Y-119500001D01*
X114950000Y-106500001D02*
X115450001Y-106000001D01*
X115450001Y-106000001D02*
X116850000Y-106000001D01*
X116850000Y-106000001D02*
X120200000Y-106000001D01*
X120200000Y-106000001D02*
X120200000Y-108400001D01*
%TO.C,U2*%
X131800000Y-120000001D02*
X131800000Y-117600001D01*
X135150000Y-120000001D02*
X131800000Y-120000001D01*
X136549999Y-120000001D02*
X135150000Y-120000001D01*
X137050000Y-119500001D02*
X136549999Y-120000001D01*
X137050000Y-119500001D02*
X137050000Y-106500001D01*
X131800000Y-108400001D02*
X131800000Y-106000001D01*
X137050000Y-106500001D02*
X136549999Y-106000001D01*
X131800000Y-106000001D02*
X135150000Y-106000001D01*
X136549999Y-106000001D02*
X135150000Y-106000001D01*
D13*
%TO.C,REF\u002A\u002A*%
G36*
X128458919Y-112206130D02*
G01*
X128496605Y-112251840D01*
X128550117Y-112323113D01*
X128616513Y-112415932D01*
X128692853Y-112526281D01*
X128770000Y-112640818D01*
X128901293Y-112842766D01*
X129040900Y-113065981D01*
X129186336Y-113305941D01*
X129335122Y-113558127D01*
X129484774Y-113818018D01*
X129632811Y-114081095D01*
X129776750Y-114342838D01*
X129914110Y-114598726D01*
X130042409Y-114844240D01*
X130159164Y-115074860D01*
X130261893Y-115286065D01*
X130348116Y-115473335D01*
X130415349Y-115632151D01*
X130422382Y-115650001D01*
X130465251Y-115773184D01*
X130501462Y-115903020D01*
X130530034Y-116032750D01*
X130549990Y-116155614D01*
X130560353Y-116264851D01*
X130560146Y-116353704D01*
X130548393Y-116415411D01*
X130535999Y-116436001D01*
X130511305Y-116452139D01*
X130477030Y-116456952D01*
X130428889Y-116449042D01*
X130362592Y-116427010D01*
X130273851Y-116389458D01*
X130158378Y-116334986D01*
X130027969Y-116270297D01*
X129824633Y-116170258D01*
X129635459Y-116082558D01*
X129453928Y-116004986D01*
X129273523Y-115935330D01*
X129087726Y-115871379D01*
X128890020Y-115810922D01*
X128673888Y-115751748D01*
X128432811Y-115691646D01*
X128160275Y-115628405D01*
X128088480Y-115612295D01*
X127840251Y-115558869D01*
X127618760Y-115515756D01*
X127412658Y-115481051D01*
X127210594Y-115452849D01*
X127001220Y-115429244D01*
X126993760Y-115428492D01*
X126913626Y-115415172D01*
X126871667Y-115394949D01*
X126865670Y-115385931D01*
X126864807Y-115362094D01*
X126885295Y-115338578D01*
X126932598Y-115311399D01*
X127012181Y-115276571D01*
X127020000Y-115273378D01*
X127140070Y-115215980D01*
X127277388Y-115136064D01*
X127421708Y-115040166D01*
X127562784Y-114934820D01*
X127607363Y-114898697D01*
X127827303Y-114690844D01*
X128019617Y-114455882D01*
X128182425Y-114197316D01*
X128313843Y-113918652D01*
X128411991Y-113623397D01*
X128474985Y-113315057D01*
X128480824Y-113271579D01*
X128494666Y-113089945D01*
X128494589Y-112890803D01*
X128481310Y-112691347D01*
X128455543Y-112508774D01*
X128447424Y-112468657D01*
X128424236Y-112351885D01*
X128413287Y-112269507D01*
X128414480Y-112217862D01*
X128427717Y-112193296D01*
X128440000Y-112190001D01*
X128458919Y-112206130D01*
G37*
G36*
X125860597Y-110767048D02*
G01*
X126032295Y-110771731D01*
X126182318Y-110781295D01*
X126315213Y-110796113D01*
X126435524Y-110816558D01*
X126547796Y-110843006D01*
X126656577Y-110875830D01*
X126747919Y-110908353D01*
X126997339Y-111023084D01*
X127233928Y-111172243D01*
X127453085Y-111351214D01*
X127650212Y-111555382D01*
X127820708Y-111780130D01*
X127959973Y-112020842D01*
X128039491Y-112204577D01*
X128099447Y-112387916D01*
X128139291Y-112566961D01*
X128161454Y-112755950D01*
X128168349Y-112960001D01*
X128166451Y-113116136D01*
X128158537Y-113245707D01*
X128142654Y-113361945D01*
X128116846Y-113478076D01*
X128079159Y-113607331D01*
X128067244Y-113644509D01*
X127962289Y-113905088D01*
X127823360Y-114150621D01*
X127654170Y-114377596D01*
X127458434Y-114582500D01*
X127239866Y-114761820D01*
X127002182Y-114912044D01*
X126749095Y-115029659D01*
X126527303Y-115100690D01*
X126274014Y-115152262D01*
X126030962Y-115173072D01*
X125784081Y-115164124D01*
X125725710Y-115158013D01*
X125463335Y-115111355D01*
X125212444Y-115032896D01*
X124969410Y-114920844D01*
X124730602Y-114773404D01*
X124492391Y-114588786D01*
X124390000Y-114498219D01*
X124101861Y-114251637D01*
X123815623Y-114041439D01*
X123533153Y-113868961D01*
X123437728Y-113818858D01*
X123365117Y-113783431D01*
X123290157Y-113749423D01*
X123207150Y-113714626D01*
X123110396Y-113676832D01*
X122994197Y-113633833D01*
X122852855Y-113583421D01*
X122680669Y-113523387D01*
X122630000Y-113505878D01*
X122450508Y-113441933D01*
X122305676Y-113385267D01*
X122191355Y-113333473D01*
X122103394Y-113284143D01*
X122037647Y-113234865D01*
X121989960Y-113183236D01*
X121956187Y-113126844D01*
X121948964Y-113110608D01*
X121926598Y-113033184D01*
X121908783Y-112923980D01*
X121907254Y-112908479D01*
X125104016Y-112908479D01*
X125109909Y-113087105D01*
X125151469Y-113260051D01*
X125227976Y-113421900D01*
X125336167Y-113564525D01*
X125456552Y-113672859D01*
X125593032Y-113754073D01*
X125715952Y-113802669D01*
X125827453Y-113826447D01*
X125959865Y-113834676D01*
X126097454Y-113827823D01*
X126224482Y-113806354D01*
X126291881Y-113785581D01*
X126455426Y-113701875D01*
X126596097Y-113587760D01*
X126709394Y-113447636D01*
X126783388Y-113305043D01*
X126805257Y-113243688D01*
X126819127Y-113182953D01*
X126826652Y-113110858D01*
X126829488Y-113015421D01*
X126829681Y-112970001D01*
X126823257Y-112816584D01*
X126801693Y-112690354D01*
X126761551Y-112580243D01*
X126699392Y-112475187D01*
X126659192Y-112421364D01*
X126537105Y-112297894D01*
X126392447Y-112203432D01*
X126231321Y-112139097D01*
X126059831Y-112106007D01*
X125884079Y-112105283D01*
X125710168Y-112138039D01*
X125544203Y-112205399D01*
X125528312Y-112214061D01*
X125450842Y-112268711D01*
X125366192Y-112346236D01*
X125286145Y-112434289D01*
X125222484Y-112520525D01*
X125202113Y-112555858D01*
X125134511Y-112729591D01*
X125104016Y-112908479D01*
X121907254Y-112908479D01*
X121895653Y-112790972D01*
X121887332Y-112642138D01*
X121883950Y-112485449D01*
X121885636Y-112328883D01*
X121892518Y-112180415D01*
X121904725Y-112048021D01*
X121922388Y-111939675D01*
X121929586Y-111910001D01*
X121994990Y-111741725D01*
X122096708Y-111586464D01*
X122235032Y-111444019D01*
X122410256Y-111314192D01*
X122622675Y-111196783D01*
X122872581Y-111091594D01*
X123160267Y-110998426D01*
X123350000Y-110948490D01*
X123463323Y-110921835D01*
X123571581Y-110898711D01*
X123679060Y-110878718D01*
X123790048Y-110861457D01*
X123908831Y-110846526D01*
X124039698Y-110833526D01*
X124186936Y-110822055D01*
X124354831Y-110811714D01*
X124547672Y-110802102D01*
X124769746Y-110792820D01*
X125025340Y-110783465D01*
X125170000Y-110778537D01*
X125433994Y-110770824D01*
X125662678Y-110766870D01*
X125860597Y-110767048D01*
G37*
D12*
%TO.C,J4*%
X110015000Y-71140000D02*
X110015000Y-76860000D01*
X110015000Y-76860000D02*
X113500000Y-76860000D01*
X111085000Y-71140000D02*
X110015000Y-71140000D01*
X111085000Y-71440000D02*
X111085000Y-71140000D01*
X111375000Y-70850000D02*
X110875000Y-70850000D01*
X111375000Y-71150000D02*
X111375000Y-70850000D01*
X113500000Y-71440000D02*
X111085000Y-71440000D01*
X113500000Y-71440000D02*
X115915000Y-71440000D01*
X115915000Y-71140000D02*
X116985000Y-71140000D01*
X115915000Y-71440000D02*
X115915000Y-71140000D01*
X116985000Y-71140000D02*
X116985000Y-76860000D01*
X116985000Y-76860000D02*
X113500000Y-76860000D01*
%TO.C,J1*%
X104422500Y-56065000D02*
X110042500Y-56065000D01*
X104422500Y-56615000D02*
X110042500Y-56615000D01*
X104422500Y-62385000D02*
X110042500Y-62385000D01*
X104422500Y-62935000D02*
X104422500Y-56065000D01*
X105032499Y-57625000D02*
X105070000Y-57475000D01*
X105032499Y-60125000D02*
X105070000Y-59975000D01*
X105032500Y-58875000D02*
X105069999Y-58725000D01*
X105032500Y-61375000D02*
X105069999Y-61225000D01*
X105069999Y-58725000D02*
X106532500Y-58725000D01*
X105069999Y-59025000D02*
X105032500Y-58875000D01*
X105069999Y-61225000D02*
X106532500Y-61225000D01*
X105069999Y-61525000D02*
X105032500Y-61375000D01*
X105070000Y-57475000D02*
X106532500Y-57475001D01*
X105070000Y-57775000D02*
X105032499Y-57625000D01*
X105070000Y-59975000D02*
X106532501Y-59975000D01*
X105070000Y-60275000D02*
X105032499Y-60125000D01*
X106532500Y-57775001D02*
X105070000Y-57775000D01*
X106532500Y-59025000D02*
X105069999Y-59025000D01*
X106532500Y-61525000D02*
X105069999Y-61525000D01*
X106532500Y-62385000D02*
X106532500Y-56615000D01*
X106532501Y-60275000D02*
X105070000Y-60275000D01*
X108032500Y-62385000D02*
X108032500Y-56615000D01*
X109992500Y-58625000D02*
X110042500Y-58625000D01*
X109992500Y-59875000D02*
X110042500Y-59875000D01*
X109992500Y-61125000D02*
X110042500Y-61125000D01*
X109992500Y-61625000D02*
X110042500Y-61625000D01*
X110042500Y-56065000D02*
X110042500Y-57375000D01*
X110042500Y-57375000D02*
X109992500Y-57374999D01*
X110042500Y-57875000D02*
X109992500Y-57875000D01*
X110042500Y-58625000D02*
X110042500Y-57875000D01*
X110042500Y-59125000D02*
X109992500Y-59125000D01*
X110042500Y-59875000D02*
X110042500Y-59125000D01*
X110042500Y-60375000D02*
X109992500Y-60375000D01*
X110042500Y-61125000D02*
X110042500Y-60375000D01*
X110042500Y-61625000D02*
X110042500Y-62935000D01*
X110042500Y-62935000D02*
X104422500Y-62935000D01*
X110532500Y-61375000D02*
X111132500Y-61675000D01*
X111132500Y-61075000D02*
X110532500Y-61375000D01*
X111132500Y-61675000D02*
X111132500Y-61075000D01*
D10*
%TO.C,R4*%
X145000000Y-73400000D02*
X143650000Y-73400000D01*
X145000000Y-73400000D02*
X146350000Y-73400000D01*
X145000000Y-77600000D02*
X143650000Y-77600000D01*
X145000000Y-77600000D02*
X146350000Y-77600000D01*
X143650000Y-77600000D02*
G75*
G02*
X143650000Y-73400000I1349999J2100000D01*
G01*
X146350000Y-73400000D02*
G75*
G02*
X146350000Y-77600000I-1350000J-2100000D01*
G01*
%TO.C,R5*%
X107000000Y-73400000D02*
X105650000Y-73400000D01*
X107000000Y-73400000D02*
X108350000Y-73400000D01*
X107000000Y-77600000D02*
X105650000Y-77600000D01*
X107000000Y-77600000D02*
X108350000Y-77600000D01*
X105650000Y-77600000D02*
G75*
G02*
X105650000Y-73400000I1350000J2100000D01*
G01*
X108350000Y-73400000D02*
G75*
G02*
X108350000Y-77600000I-1349999J-2100000D01*
G01*
D12*
%TO.C,U3*%
X103572500Y-63065001D02*
X109192500Y-63065001D01*
X103572500Y-63615001D02*
X109192500Y-63615001D01*
X103572500Y-71885001D02*
X109192500Y-71885001D01*
X103572500Y-72435001D02*
X103572500Y-63065001D01*
X104182499Y-64625001D02*
X104220000Y-64475001D01*
X104182499Y-67125001D02*
X104220000Y-66975001D01*
X104182499Y-69625001D02*
X104220000Y-69475001D01*
X104182500Y-65875001D02*
X104219999Y-65725001D01*
X104182500Y-68375001D02*
X104219999Y-68225001D01*
X104182500Y-70875001D02*
X104219999Y-70725001D01*
X104219999Y-65725001D02*
X105682500Y-65725001D01*
X104219999Y-66025001D02*
X104182500Y-65875001D01*
X104219999Y-68225001D02*
X105682500Y-68225001D01*
X104219999Y-68525001D02*
X104182500Y-68375001D01*
X104219999Y-70725001D02*
X105682500Y-70725001D01*
X104219999Y-71025001D02*
X104182500Y-70875001D01*
X104220000Y-64475001D02*
X105682500Y-64475002D01*
X104220000Y-64775001D02*
X104182499Y-64625001D01*
X104220000Y-66975001D02*
X105682500Y-66975002D01*
X104220000Y-67275001D02*
X104182499Y-67125001D01*
X104220000Y-69475001D02*
X105682501Y-69475001D01*
X104220000Y-69775001D02*
X104182499Y-69625001D01*
X105682500Y-64775002D02*
X104220000Y-64775001D01*
X105682500Y-66025001D02*
X104219999Y-66025001D01*
X105682500Y-67275002D02*
X104220000Y-67275001D01*
X105682500Y-68525001D02*
X104219999Y-68525001D01*
X105682500Y-71025001D02*
X104219999Y-71025001D01*
X105682500Y-71885001D02*
X105682500Y-63615001D01*
X105682501Y-69775001D02*
X104220000Y-69775001D01*
X107182500Y-71885001D02*
X107182500Y-63615001D01*
X109142500Y-65625001D02*
X109192500Y-65625001D01*
X109142500Y-66875000D02*
X109192500Y-66875001D01*
X109142500Y-68125001D02*
X109192500Y-68125001D01*
X109142500Y-69375001D02*
X109192500Y-69375001D01*
X109142500Y-70625001D02*
X109192500Y-70625001D01*
X109142500Y-71125001D02*
X109192500Y-71125001D01*
X109192500Y-63065001D02*
X109192500Y-64375001D01*
X109192500Y-64375001D02*
X109142500Y-64375000D01*
X109192500Y-64875001D02*
X109142500Y-64875001D01*
X109192500Y-65625001D02*
X109192500Y-64875001D01*
X109192500Y-66125001D02*
X109142500Y-66125001D01*
X109192500Y-66875001D02*
X109192500Y-66125001D01*
X109192500Y-67375001D02*
X109142500Y-67375001D01*
X109192500Y-68125001D02*
X109192500Y-67375001D01*
X109192500Y-68625001D02*
X109142500Y-68625001D01*
X109192500Y-69375001D02*
X109192500Y-68625001D01*
X109192500Y-69875001D02*
X109142500Y-69875001D01*
X109192500Y-70625001D02*
X109192500Y-69875001D01*
X109192500Y-71125001D02*
X109192500Y-72435001D01*
X109192500Y-72435001D02*
X103572500Y-72435001D01*
X109682500Y-70875001D02*
X110282500Y-71175001D01*
X110282500Y-70575001D02*
X109682500Y-70875001D01*
X110282500Y-71175001D02*
X110282500Y-70575001D01*
%TO.C,J3*%
X135015001Y-71140001D02*
X135015001Y-76860001D01*
X135015001Y-76860001D02*
X138500001Y-76860001D01*
X136085001Y-71140001D02*
X135015001Y-71140001D01*
X136085001Y-71440001D02*
X136085001Y-71140001D01*
X136375001Y-70850001D02*
X135875001Y-70850001D01*
X136375001Y-71150001D02*
X136375001Y-70850001D01*
X138500001Y-71440001D02*
X136085001Y-71440001D01*
X138500001Y-71440001D02*
X140915001Y-71440001D01*
X140915001Y-71140001D02*
X141985001Y-71140001D01*
X140915001Y-71440001D02*
X140915001Y-71140001D01*
X141985001Y-71140001D02*
X141985001Y-76860001D01*
X141985001Y-76860001D02*
X138500001Y-76860001D01*
D13*
%TO.C,REF\u002A\u002A*%
G36*
X130967840Y-64912258D02*
G01*
X131043211Y-65003678D01*
X131150234Y-65146225D01*
X131283026Y-65331863D01*
X131435707Y-65552560D01*
X131589999Y-65781634D01*
X131852587Y-66185531D01*
X132131800Y-66631960D01*
X132422673Y-67111880D01*
X132720244Y-67616251D01*
X133019549Y-68136035D01*
X133315621Y-68662189D01*
X133603501Y-69185674D01*
X133878220Y-69697451D01*
X134134817Y-70188479D01*
X134368328Y-70649718D01*
X134573787Y-71072128D01*
X134746232Y-71446669D01*
X134880698Y-71764301D01*
X134894762Y-71799999D01*
X134980505Y-72046366D01*
X135052925Y-72306039D01*
X135110068Y-72565498D01*
X135149980Y-72811226D01*
X135170706Y-73029700D01*
X135170293Y-73207406D01*
X135146786Y-73330821D01*
X135122000Y-73372000D01*
X135072610Y-73404275D01*
X135004062Y-73413903D01*
X134907779Y-73398083D01*
X134775184Y-73354019D01*
X134597701Y-73278914D01*
X134366756Y-73169970D01*
X134105938Y-73040593D01*
X133699267Y-72840515D01*
X133320918Y-72665115D01*
X132957856Y-72509970D01*
X132597046Y-72370658D01*
X132225453Y-72242756D01*
X131830041Y-72121842D01*
X131397777Y-72003495D01*
X130915625Y-71883291D01*
X130370551Y-71756808D01*
X130226960Y-71724589D01*
X129730502Y-71617736D01*
X129287520Y-71531510D01*
X128875316Y-71462101D01*
X128471189Y-71405697D01*
X128052440Y-71358487D01*
X128037521Y-71356984D01*
X127877253Y-71330342D01*
X127793335Y-71289897D01*
X127781341Y-71271860D01*
X127779614Y-71224187D01*
X127820591Y-71177155D01*
X127915197Y-71122796D01*
X128074362Y-71053140D01*
X128090000Y-71046755D01*
X128330141Y-70931959D01*
X128604777Y-70772126D01*
X128893417Y-70580330D01*
X129175568Y-70369639D01*
X129264727Y-70297393D01*
X129704606Y-69881687D01*
X130089235Y-69411762D01*
X130414851Y-68894630D01*
X130677687Y-68337303D01*
X130873982Y-67746793D01*
X130999970Y-67130112D01*
X131011649Y-67043156D01*
X131039332Y-66679889D01*
X131039179Y-66281605D01*
X131012620Y-65882694D01*
X130961087Y-65517547D01*
X130944848Y-65437313D01*
X130898472Y-65203769D01*
X130876574Y-65039012D01*
X130878960Y-64935723D01*
X130905435Y-64886590D01*
X130929999Y-64880000D01*
X130967840Y-64912258D01*
G37*
G36*
X125771194Y-62102978D02*
G01*
X126114590Y-62112345D01*
X126414638Y-62131473D01*
X126680426Y-62161108D01*
X126921048Y-62202000D01*
X127145593Y-62254895D01*
X127363154Y-62320541D01*
X127545839Y-62385589D01*
X128044681Y-62615050D01*
X128517857Y-62913368D01*
X128956172Y-63271311D01*
X129350425Y-63679647D01*
X129691416Y-64129143D01*
X129969946Y-64610567D01*
X130128983Y-64978036D01*
X130248894Y-65344715D01*
X130328582Y-65702805D01*
X130372908Y-66080783D01*
X130386698Y-66488884D01*
X130382902Y-66801154D01*
X130367076Y-67060297D01*
X130335309Y-67292772D01*
X130283692Y-67525035D01*
X130208319Y-67783547D01*
X130184487Y-67857900D01*
X129974579Y-68379059D01*
X129696720Y-68870125D01*
X129358340Y-69324076D01*
X128966868Y-69733881D01*
X128529733Y-70092522D01*
X128054364Y-70392970D01*
X127548190Y-70628201D01*
X127104607Y-70770263D01*
X126598028Y-70873407D01*
X126111925Y-70915026D01*
X125618162Y-70897130D01*
X125501422Y-70884909D01*
X124976670Y-70791593D01*
X124474889Y-70634675D01*
X123988820Y-70410571D01*
X123511204Y-70115691D01*
X123034783Y-69746455D01*
X122830000Y-69565320D01*
X122253722Y-69072154D01*
X121681247Y-68651761D01*
X121116307Y-68306806D01*
X120925457Y-68206599D01*
X120780234Y-68135744D01*
X120630314Y-68067729D01*
X120464300Y-67998134D01*
X120270793Y-67922548D01*
X120038395Y-67836549D01*
X119755710Y-67735724D01*
X119411339Y-67615655D01*
X119310000Y-67580639D01*
X118951016Y-67452748D01*
X118661352Y-67339417D01*
X118432710Y-67235828D01*
X118256789Y-67137165D01*
X118125292Y-67038612D01*
X118029920Y-66935354D01*
X117962374Y-66822571D01*
X117947929Y-66790098D01*
X117903196Y-66635250D01*
X117867569Y-66416843D01*
X117864508Y-66385841D01*
X124258032Y-66385841D01*
X124269818Y-66743093D01*
X124352938Y-67088985D01*
X124505953Y-67412682D01*
X124722335Y-67697933D01*
X124963106Y-67914601D01*
X125236064Y-68077029D01*
X125481907Y-68174221D01*
X125704904Y-68221777D01*
X125969730Y-68238235D01*
X126244909Y-68224528D01*
X126498964Y-68181590D01*
X126633762Y-68140044D01*
X126960853Y-67972633D01*
X127242195Y-67744403D01*
X127468789Y-67464155D01*
X127616776Y-67178967D01*
X127660515Y-67056258D01*
X127700000Y-66934789D01*
X127725000Y-66790599D01*
X127750000Y-66600000D01*
X127750000Y-66400000D01*
X127725000Y-66202051D01*
X127653387Y-65949590D01*
X127573103Y-65729368D01*
X127448785Y-65519257D01*
X127368385Y-65411610D01*
X127124211Y-65164670D01*
X126834895Y-64975746D01*
X126512644Y-64847076D01*
X126169662Y-64780897D01*
X125818159Y-64779447D01*
X125470337Y-64844961D01*
X125138405Y-64979680D01*
X125106626Y-64997005D01*
X124951684Y-65106305D01*
X124782385Y-65261355D01*
X124622291Y-65437461D01*
X124494969Y-65609933D01*
X124454226Y-65680598D01*
X124319022Y-66028066D01*
X124258032Y-66385841D01*
X117864508Y-66385841D01*
X117841306Y-66150829D01*
X117824664Y-65853158D01*
X117817900Y-65539781D01*
X117821272Y-65226649D01*
X117835037Y-64929713D01*
X117859453Y-64664924D01*
X117894777Y-64448232D01*
X117909173Y-64388884D01*
X118039982Y-64052333D01*
X118243416Y-63741811D01*
X118520065Y-63456921D01*
X118870514Y-63197265D01*
X119295351Y-62962448D01*
X119795162Y-62752070D01*
X120370536Y-62565735D01*
X120750000Y-62465862D01*
X120976647Y-62412551D01*
X121193162Y-62366304D01*
X121408121Y-62326319D01*
X121630096Y-62291797D01*
X121867663Y-62261935D01*
X122129396Y-62235934D01*
X122423872Y-62212993D01*
X122759663Y-62192311D01*
X123145346Y-62173087D01*
X123589493Y-62154521D01*
X124100681Y-62135812D01*
X124390000Y-62125956D01*
X124917989Y-62110531D01*
X125375357Y-62102622D01*
X125771194Y-62102978D01*
G37*
D12*
%TO.C,U4*%
X141717501Y-64325001D02*
X141717501Y-64925001D01*
X141717501Y-64925001D02*
X142317501Y-64625001D01*
X142317501Y-64625001D02*
X141717501Y-64325001D01*
X142807501Y-63065001D02*
X148427501Y-63065001D01*
X142807501Y-64375001D02*
X142807501Y-63065001D01*
X142807501Y-64875001D02*
X142807501Y-65625001D01*
X142807501Y-65625001D02*
X142857501Y-65625001D01*
X142807501Y-66125001D02*
X142807501Y-66875001D01*
X142807501Y-66875001D02*
X142857501Y-66875001D01*
X142807501Y-67375001D02*
X142807501Y-68125001D01*
X142807501Y-68125001D02*
X142857501Y-68125001D01*
X142807501Y-68625001D02*
X142807501Y-69375001D01*
X142807501Y-69375001D02*
X142857501Y-69375001D01*
X142807501Y-69875001D02*
X142807501Y-70625001D01*
X142807501Y-70625001D02*
X142857501Y-70625001D01*
X142807501Y-71125001D02*
X142857501Y-71125002D01*
X142807501Y-72435001D02*
X142807501Y-71125001D01*
X142857501Y-64375001D02*
X142807501Y-64375001D01*
X142857501Y-64875001D02*
X142807501Y-64875001D01*
X142857501Y-66125001D02*
X142807501Y-66125001D01*
X142857501Y-67375001D02*
X142807501Y-67375001D01*
X142857501Y-68625002D02*
X142807501Y-68625001D01*
X142857501Y-69875001D02*
X142807501Y-69875001D01*
X144817501Y-63615001D02*
X144817501Y-71885001D01*
X146317500Y-65725001D02*
X147780001Y-65725001D01*
X146317501Y-63615001D02*
X146317501Y-71885001D01*
X146317501Y-64475001D02*
X147780002Y-64475001D01*
X146317501Y-66975001D02*
X147780002Y-66975001D01*
X146317501Y-68225000D02*
X147780001Y-68225001D01*
X146317501Y-69475001D02*
X147780002Y-69475001D01*
X146317501Y-70725000D02*
X147780001Y-70725001D01*
X147780001Y-65725001D02*
X147817502Y-65875001D01*
X147780001Y-66025001D02*
X146317500Y-66025001D01*
X147780001Y-68225001D02*
X147817502Y-68375001D01*
X147780001Y-68525001D02*
X146317501Y-68525000D01*
X147780001Y-70725001D02*
X147817502Y-70875001D01*
X147780001Y-71025001D02*
X146317501Y-71025000D01*
X147780002Y-64475001D02*
X147817501Y-64625001D01*
X147780002Y-64775001D02*
X146317501Y-64775001D01*
X147780002Y-66975001D02*
X147817501Y-67125001D01*
X147780002Y-67275001D02*
X146317501Y-67275001D01*
X147780002Y-69475001D02*
X147817501Y-69625001D01*
X147780002Y-69775001D02*
X146317501Y-69775001D01*
X147817501Y-64625001D02*
X147780002Y-64775001D01*
X147817501Y-67125001D02*
X147780002Y-67275001D01*
X147817501Y-69625001D02*
X147780002Y-69775001D01*
X147817502Y-65875001D02*
X147780001Y-66025001D01*
X147817502Y-68375001D02*
X147780001Y-68525001D01*
X147817502Y-70875001D02*
X147780001Y-71025001D01*
X148427501Y-63065001D02*
X148427501Y-72435001D01*
X148427501Y-63615001D02*
X142807501Y-63615001D01*
X148427501Y-71885001D02*
X142807501Y-71885001D01*
X148427501Y-72435001D02*
X142807501Y-72435001D01*
%TO.C,J4*%
X148330000Y-106170000D02*
X148330000Y-108830000D01*
X156009999Y-106170000D02*
X148330000Y-106170000D01*
X156009999Y-106170000D02*
X156009999Y-108830000D01*
X156009999Y-108830000D02*
X148330000Y-108830000D01*
X157280000Y-106170000D02*
X158610000Y-106170000D01*
X158610000Y-106170000D02*
X158610000Y-107500000D01*
%TO.C,J1*%
X142420000Y-102260000D02*
X143750000Y-102260000D01*
X142420000Y-103590000D02*
X142420000Y-102260000D01*
X142420000Y-104860000D02*
X142420000Y-122700000D01*
X142420000Y-104860000D02*
X145080000Y-104860000D01*
X142420000Y-122700000D02*
X145080000Y-122700000D01*
X145080000Y-104860000D02*
X145080000Y-122700000D01*
%TO.C,J5*%
X145140001Y-100670000D02*
X145140001Y-103330000D01*
X160439999Y-100670000D02*
X145140001Y-100670000D01*
X160439999Y-100670000D02*
X160439999Y-103330000D01*
X160439999Y-103330000D02*
X145140001Y-103330000D01*
X161710000Y-100670000D02*
X163040000Y-100670000D01*
X163040000Y-100670000D02*
X163040000Y-102000000D01*
%TO.C,J3*%
X148340000Y-103420000D02*
X148340000Y-106080000D01*
X156019999Y-103420000D02*
X148340000Y-103420000D01*
X156019999Y-103420000D02*
X156019999Y-106080000D01*
X156019999Y-106080000D02*
X148340000Y-106080000D01*
X157290000Y-103420000D02*
X158620000Y-103420000D01*
X158620000Y-103420000D02*
X158620000Y-104750000D01*
%TO.C,J2*%
X145670000Y-103340000D02*
X147000000Y-103340000D01*
X145670000Y-104670000D02*
X145670000Y-103340000D01*
X145670000Y-105940000D02*
X145670000Y-121240000D01*
X145670000Y-105940000D02*
X148330000Y-105940000D01*
X145670000Y-121240000D02*
X148330000Y-121240000D01*
X148330000Y-105940000D02*
X148330000Y-121240000D01*
D13*
%TO.C,REF\u002A\u002A*%
G36*
X159208919Y-114956129D02*
G01*
X159246605Y-115001839D01*
X159300117Y-115073112D01*
X159366513Y-115165931D01*
X159442853Y-115276280D01*
X159520000Y-115390817D01*
X159651293Y-115592765D01*
X159790900Y-115815980D01*
X159936336Y-116055940D01*
X160085122Y-116308126D01*
X160234774Y-116568017D01*
X160382811Y-116831094D01*
X160526750Y-117092837D01*
X160664110Y-117348725D01*
X160792409Y-117594239D01*
X160909164Y-117824859D01*
X161011893Y-118036064D01*
X161098116Y-118223334D01*
X161165349Y-118382150D01*
X161172381Y-118400000D01*
X161215252Y-118523183D01*
X161251462Y-118653019D01*
X161280034Y-118782749D01*
X161299990Y-118905613D01*
X161310353Y-119014850D01*
X161310146Y-119103703D01*
X161298393Y-119165410D01*
X161286000Y-119186000D01*
X161261305Y-119202138D01*
X161227031Y-119206951D01*
X161178889Y-119199041D01*
X161112592Y-119177009D01*
X161023851Y-119139457D01*
X160908378Y-119084985D01*
X160777969Y-119020296D01*
X160574633Y-118920257D01*
X160385459Y-118832557D01*
X160203928Y-118754985D01*
X160023523Y-118685329D01*
X159837726Y-118621378D01*
X159640020Y-118560921D01*
X159423888Y-118501747D01*
X159182812Y-118441645D01*
X158910275Y-118378404D01*
X158838480Y-118362294D01*
X158590251Y-118308868D01*
X158368760Y-118265755D01*
X158162658Y-118231050D01*
X157960594Y-118202848D01*
X157751220Y-118179243D01*
X157743760Y-118178491D01*
X157663626Y-118165171D01*
X157621667Y-118144948D01*
X157615670Y-118135930D01*
X157614807Y-118112093D01*
X157635295Y-118088577D01*
X157682598Y-118061398D01*
X157762181Y-118026570D01*
X157770000Y-118023377D01*
X157890070Y-117965979D01*
X158027388Y-117886063D01*
X158171708Y-117790165D01*
X158312784Y-117684819D01*
X158357363Y-117648696D01*
X158577303Y-117440843D01*
X158769617Y-117205881D01*
X158932425Y-116947315D01*
X159063843Y-116668651D01*
X159161991Y-116373396D01*
X159224985Y-116065056D01*
X159230824Y-116021578D01*
X159244666Y-115839944D01*
X159244589Y-115640802D01*
X159231310Y-115441347D01*
X159205543Y-115258773D01*
X159197424Y-115218656D01*
X159174236Y-115101884D01*
X159163287Y-115019506D01*
X159164480Y-114967861D01*
X159177717Y-114943295D01*
X159190000Y-114940000D01*
X159208919Y-114956129D01*
G37*
G36*
X156610597Y-113517047D02*
G01*
X156782295Y-113521730D01*
X156932318Y-113531294D01*
X157065213Y-113546112D01*
X157185524Y-113566558D01*
X157297796Y-113593005D01*
X157406577Y-113625829D01*
X157497919Y-113658352D01*
X157747340Y-113773083D01*
X157983928Y-113922242D01*
X158203086Y-114101213D01*
X158400212Y-114305381D01*
X158570708Y-114530129D01*
X158709973Y-114770841D01*
X158789491Y-114954576D01*
X158849447Y-115137915D01*
X158889291Y-115316960D01*
X158911454Y-115505949D01*
X158918349Y-115710000D01*
X158916451Y-115866135D01*
X158908538Y-115995706D01*
X158892654Y-116111944D01*
X158866846Y-116228075D01*
X158829159Y-116357331D01*
X158817243Y-116394508D01*
X158712289Y-116655087D01*
X158573360Y-116900620D01*
X158404170Y-117127595D01*
X158208434Y-117332499D01*
X157989866Y-117511819D01*
X157752182Y-117662043D01*
X157499095Y-117779658D01*
X157277303Y-117850689D01*
X157024014Y-117902261D01*
X156780962Y-117923071D01*
X156534081Y-117914123D01*
X156475711Y-117908012D01*
X156213335Y-117861354D01*
X155962444Y-117782895D01*
X155719410Y-117670843D01*
X155480602Y-117523403D01*
X155242391Y-117338785D01*
X155140000Y-117248218D01*
X154851861Y-117001635D01*
X154565623Y-116791438D01*
X154283153Y-116618960D01*
X154187728Y-116568857D01*
X154115117Y-116533430D01*
X154040157Y-116499422D01*
X153957150Y-116464625D01*
X153860396Y-116426831D01*
X153744197Y-116383832D01*
X153602855Y-116333420D01*
X153430669Y-116273385D01*
X153380000Y-116255877D01*
X153200508Y-116191932D01*
X153055676Y-116135266D01*
X152941355Y-116083472D01*
X152853394Y-116034141D01*
X152787646Y-115984864D01*
X152739960Y-115933235D01*
X152706187Y-115876843D01*
X152698964Y-115860607D01*
X152676598Y-115783183D01*
X152658784Y-115673979D01*
X152657254Y-115658478D01*
X155854016Y-115658478D01*
X155859909Y-115837104D01*
X155901469Y-116010050D01*
X155977976Y-116171899D01*
X156086167Y-116314524D01*
X156206553Y-116422858D01*
X156343032Y-116504072D01*
X156465953Y-116552668D01*
X156577452Y-116576446D01*
X156709865Y-116584675D01*
X156847454Y-116577822D01*
X156974482Y-116556353D01*
X157041881Y-116535580D01*
X157205426Y-116451874D01*
X157346097Y-116337759D01*
X157459394Y-116197635D01*
X157533388Y-116055041D01*
X157555257Y-115993687D01*
X157569127Y-115932952D01*
X157576652Y-115860857D01*
X157579488Y-115765420D01*
X157579681Y-115720000D01*
X157573257Y-115566583D01*
X157551693Y-115440353D01*
X157511551Y-115330242D01*
X157449392Y-115225186D01*
X157409192Y-115171363D01*
X157287105Y-115047893D01*
X157142447Y-114953431D01*
X156981322Y-114889096D01*
X156809831Y-114856006D01*
X156634079Y-114855281D01*
X156460168Y-114888038D01*
X156294202Y-114955398D01*
X156278313Y-114964060D01*
X156200842Y-115018710D01*
X156116192Y-115096235D01*
X156036145Y-115184288D01*
X155972484Y-115270524D01*
X155952113Y-115305857D01*
X155884511Y-115479590D01*
X155854016Y-115658478D01*
X152657254Y-115658478D01*
X152645653Y-115540972D01*
X152637332Y-115392137D01*
X152633950Y-115235448D01*
X152635636Y-115078882D01*
X152642518Y-114930414D01*
X152654726Y-114798020D01*
X152672388Y-114689674D01*
X152679586Y-114660000D01*
X152744990Y-114491724D01*
X152846708Y-114336463D01*
X152985032Y-114194018D01*
X153160257Y-114064191D01*
X153372675Y-113946782D01*
X153622581Y-113841593D01*
X153910267Y-113748425D01*
X154100000Y-113698489D01*
X154213323Y-113671833D01*
X154321581Y-113648710D01*
X154429060Y-113628717D01*
X154540048Y-113611456D01*
X154658831Y-113596525D01*
X154789698Y-113583525D01*
X154936936Y-113572054D01*
X155104831Y-113561713D01*
X155297672Y-113552101D01*
X155519746Y-113542818D01*
X155775340Y-113533464D01*
X155920000Y-113528536D01*
X156183994Y-113520823D01*
X156412678Y-113516869D01*
X156610597Y-113517047D01*
G37*
%TD*%
M02*
