M48
; DRILL file {KiCad 8.0.5} date 2024-12-31T14:00:19+1100
; FORMAT={-:-/ absolute / inch / decimal}
; #@! TF.CreationDate,2024-12-31T14:00:19+11:00
; #@! TF.GenerationSoftware,Kicad,Pcbnew,8.0.5
; #@! TF.FileFunction,Plated,1,2,PTH
FMAT,2
INCH
; #@! TA.AperFunction,Plated,PTH,ViaDrill
T1C0.0118
; #@! TA.AperFunction,Plated,PTH,ComponentDrill
T2C0.0197
; #@! TA.AperFunction,Plated,PTH,ComponentDrill
T3C0.0236
; #@! TA.AperFunction,Plated,PTH,ComponentDrill
T4C0.0394
; #@! TA.AperFunction,Plated,PTH,ComponentDrill
T5C0.0709
%
G90
G05
T1
X4.2992Y-2.4902
X4.3602Y-2.4035
X4.3661Y-2.5492
X4.3661Y-2.6476
X4.3661Y-2.5886
X4.3701Y-2.3681
X4.374Y-2.3366
X4.3792Y-2.5295
X4.3926Y-2.51
X4.4049Y-2.4899
X4.4055Y-2.4429
X4.4186Y-2.4707
X4.4567Y-2.5689
X4.502Y-2.5492
X4.5472Y-2.5295
X4.5669Y-2.5098
X4.5846Y-2.4902
X4.5866Y-2.5984
X4.5965Y-2.3268
X4.6024Y-2.4705
X4.6024Y-2.6161
X4.6161Y-2.5689
X4.6181Y-2.6339
X4.6201Y-2.4508
X4.6299Y-2.9724
X4.6339Y-2.6516
X4.6358Y-2.5492
X4.6378Y-2.4311
X4.6496Y-2.6693
X4.6555Y-2.5295
X4.6732Y-2.4705
X4.6732Y-2.5098
X4.6791Y-2.4311
X4.687Y-2.4902
X4.6922Y-2.4508
X4.6929Y-2.3917
X4.6929Y-2.5886
X4.6929Y-2.6476
X4.7261Y-4.5965
X4.7638Y-4.2756
X4.7638Y-4.622
X4.7657Y-2.5276
X4.7657Y-2.5531
X4.7795Y-2.5724
X4.7811Y-2.5096
X4.7835Y-2.6053
X4.7835Y-2.6309
X4.7874Y-4.685
X4.7913Y-2.6673
X4.7948Y-2.4904
X4.8051Y-2.687
X4.8067Y-4.2974
X4.8083Y-2.471
X4.815Y-2.8504
X4.8189Y-4.685
X4.8189Y-2.7067
X4.8209Y-2.4508
X4.8346Y-2.4311
X4.8346Y-2.7264
X4.8477Y-2.746
X4.8484Y-2.4114
X4.8504Y-4.685
X4.8504Y-4.2126
X4.8819Y-4.685
X4.9134Y-4.685
X4.9449Y-4.685
X4.9478Y-2.8504
X4.9483Y-2.3307
X4.9734Y-2.8504
X4.9764Y-4.685
X5.0079Y-4.685
X5.0197Y-2.3307
X5.0335Y-2.4311
X5.0354Y-2.5472
X5.0394Y-4.685
X5.0551Y-2.4173
X5.063Y-4.3405
X5.0709Y-4.685
X5.0866Y-4.2126
X5.0906Y-4.4322
X5.0906Y-4.4646
X5.0945Y-4.3642
X5.1004Y-2.4252
X5.1024Y-4.685
X5.1181Y-4.5039
X5.1187Y-4.3889
X5.1237Y-4.3012
X5.1237Y-4.5571
X5.1339Y-4.685
X5.1437Y-2.4685
X5.1575Y-4.622
X5.1575Y-4.2756
X5.1634Y-2.5492
X5.1952Y-4.3209
X5.1952Y-4.5768
X5.1952Y-4.5374
X5.1969Y-2.5394
X5.2Y-4.5063
X5.2008Y-4.3937
X5.2362Y-2.6929
X5.248Y-2.8563
X5.2776Y-2.5492
X5.2776Y-2.502
X5.3465Y-4.3465
X5.3484Y-2.9547
X5.3642Y-2.4055
X5.3642Y-2.752
X5.3878Y-2.3484
X5.4272Y-2.378
X5.4331Y-2.2697
X5.4331Y-2.3366
X5.439Y-2.4685
X5.4783Y-2.2677
X5.4803Y-2.3406
X5.4803Y-2.3031
X5.4876Y-2.4707
X5.4876Y-2.7655
X5.4921Y-2.4193
X5.5009Y-2.746
X5.501Y-2.4901
X5.5129Y-2.7256
X5.5134Y-2.5102
X5.5264Y-2.5299
X5.5265Y-2.7063
X5.5335Y-2.4173
X5.5394Y-2.6866
X5.5401Y-2.5492
X5.5472Y-2.6339
X5.5472Y-2.6024
X5.5531Y-2.5689
X5.5531Y-2.6673
X5.622Y-2.6181
X5.6398Y-2.2539
X5.6988Y-2.252
X5.6988Y-2.3159
X5.7283Y-4.7047
X5.9717Y-4.4812
X5.9726Y-4.5127
X5.9761Y-4.4488
X5.9761Y-4.5472
X5.9761Y-4.4094
X6.063Y-4.4783
X6.0649Y-4.4403
X6.0827Y-4.5276
X6.7087Y-2.1063
X6.7087Y-2.0079
X6.7087Y-3.0315
X6.7087Y-3.0561
X6.7087Y-3.1299
X6.7087Y-3.1545
X6.7087Y-2.0325
X6.7087Y-2.0571
X6.7087Y-2.0817
X6.7087Y-2.1309
X6.7087Y-2.1555
X6.7087Y-2.1801
X6.7087Y-2.2047
X6.7087Y-3.0807
X6.7087Y-3.1053
X6.7087Y-3.1791
X6.7087Y-3.2037
X6.7087Y-3.2283
X6.7362Y-2.9744
X6.7421Y-2.4866
X6.7421Y-2.2854
X6.7421Y-2.3366
X6.7421Y-2.4366
X6.7421Y-2.5366
X6.7421Y-2.5866
X6.7421Y-2.3858
X6.7421Y-2.8866
X6.748Y-1.9685
X6.7726Y-1.9685
X6.7776Y-2.9764
X6.7972Y-1.9685
X6.8219Y-1.9685
X6.8465Y-1.9685
X6.8504Y-4.7224
X6.8543Y-4.3976
X6.8583Y-2.4606
X6.8711Y-1.9685
X6.8799Y-3.0394
X6.8957Y-1.9685
X6.8996Y-3.1043
X6.9035Y-2.7441
X6.9193Y-3.0394
X6.9203Y-1.9685
X6.9252Y-2.4646
X6.939Y-3.1043
X6.9449Y-1.9685
X6.9508Y-2.4154
X6.9724Y-2.5906
X6.9724Y-2.6457
X6.9882Y-2.313
X7.002Y-2.8455
X7.002Y-2.8199
X7.0276Y-2.5354
X7.0276Y-2.6457
X7.0276Y-2.5906
X7.0447Y-2.7104
X7.0472Y-2.4094
X7.0531Y-3.1083
X7.0578Y-4.4341
X7.0591Y-2.9331
X7.0669Y-2.7185
X7.0669Y-4.4921
X7.0669Y-4.7224
X7.0827Y-2.5906
X7.0827Y-2.5354
X7.0827Y-2.6457
X7.1102Y-2.7008
X7.122Y-2.2303
X7.1398Y-2.878
X7.1398Y-2.9173
X7.1398Y-2.8386
X7.2087Y-2.7717
X7.2283Y-1.9685
X7.253Y-1.9685
X7.2638Y-2.8228
X7.2756Y-3.1378
X7.2776Y-1.9685
X7.2815Y-2.7638
X7.3022Y-1.9685
X7.3189Y-4.3976
X7.3268Y-1.9685
X7.3327Y-2.8248
X7.3396Y-3.0787
X7.3514Y-1.9685
X7.376Y-1.9685
X7.4006Y-1.9685
X7.4252Y-1.9685
X7.4311Y-2.2874
X7.4311Y-2.6366
X7.4311Y-2.7866
X7.4311Y-2.5866
X7.4311Y-2.6866
X7.4311Y-2.7366
X7.4311Y-2.9366
X7.435Y-2.5354
X7.4646Y-2.1555
X7.4646Y-3.0315
X7.4646Y-3.1299
X7.4646Y-2.0571
X7.4646Y-2.0817
X7.4646Y-2.1801
X7.4646Y-2.2047
X7.4646Y-3.1053
X7.4646Y-3.2037
X7.4646Y-3.2283
X7.4646Y-2.0079
X7.4646Y-2.0325
X7.4646Y-2.1063
X7.4646Y-2.1309
X7.4646Y-3.0561
X7.4646Y-3.0807
X7.4646Y-3.1545
X7.4646Y-3.1791
T2
X4.3947Y-2.8465
X4.4439Y-2.8465
X4.4931Y-2.8465
X4.5423Y-2.8465
X4.6732Y-4.375
X4.6732Y-4.4242
X4.6732Y-4.4734
X4.6732Y-4.5226
X5.248Y-4.375
X5.248Y-4.4242
X5.248Y-4.4734
X5.248Y-4.5226
X5.3789Y-2.8465
X5.4281Y-2.8465
X5.4774Y-2.8465
X5.5266Y-2.8465
T3
X4.1476Y-2.9724
X4.2592Y-2.5443
X4.2592Y-2.5935
X4.2592Y-2.6427
X4.2592Y-2.6919
X4.2592Y-2.7411
X4.2592Y-2.7904
X4.2776Y-2.9724
X4.2926Y-2.2687
X4.2926Y-2.3179
X4.2926Y-2.3671
X4.2926Y-2.4163
X5.6437Y-2.9724
X5.6621Y-2.5443
X5.6621Y-2.5935
X5.6621Y-2.6427
X5.6621Y-2.6919
X5.6621Y-2.7411
X5.6621Y-2.7904
X5.7736Y-2.9724
X6.7943Y-3.0794
X6.8435Y-3.0794
X6.8969Y-2.7785
X6.8969Y-2.8278
X6.8969Y-2.877
X6.8969Y-2.9262
T4
X4.6112Y-4.7933
X4.6112Y-4.8933
X4.7106Y-2.9724
X4.7112Y-4.7933
X4.7112Y-4.8933
X4.8106Y-2.9724
X4.8112Y-4.8933
X4.8112Y-4.7933
X4.9106Y-2.9724
X4.9112Y-4.7933
X4.9112Y-4.8933
X5.0106Y-2.9724
X5.0112Y-4.7933
X5.0112Y-4.8933
X5.1106Y-2.9724
X5.1112Y-4.7933
X5.1112Y-4.8933
X5.2106Y-2.9724
X5.2112Y-4.7933
X5.2112Y-4.8933
X5.3112Y-4.7933
X5.3112Y-4.8933
X5.6594Y-4.0783
X5.6594Y-4.1783
X5.6594Y-4.2783
X5.6594Y-4.3783
X5.6594Y-4.4783
X5.6594Y-4.5783
X5.6594Y-4.6783
X5.6594Y-4.7783
X5.7665Y-4.0157
X5.7874Y-4.1209
X5.7874Y-4.2209
X5.7874Y-4.3209
X5.7874Y-4.4209
X5.7874Y-4.5209
X5.7874Y-4.6209
X5.7874Y-4.7209
X5.8665Y-4.0157
X5.8921Y-4.2323
X5.8925Y-4.124
X5.9665Y-4.0157
X5.9921Y-4.2323
X5.9925Y-4.124
X6.0665Y-4.0157
X6.0921Y-4.2323
X6.0925Y-4.124
X6.1665Y-4.0157
X6.1921Y-4.2323
X6.1925Y-4.124
X6.2665Y-4.0157
X6.3665Y-4.0157
X6.736Y-4.0148
X6.736Y-4.1148
X6.7421Y-4.5069
X6.7421Y-4.6069
X6.7421Y-4.7069
X6.7825Y-2.0423
X6.7825Y-2.1423
X6.836Y-4.0148
X6.836Y-4.1148
X6.8825Y-2.0423
X6.8825Y-2.1423
X6.936Y-4.0148
X6.936Y-4.1148
X6.9587Y-4.5063
X6.9587Y-4.6063
X6.9587Y-4.7063
X6.9825Y-2.0423
X6.9825Y-2.1423
X7.036Y-4.0148
X7.036Y-4.1148
X7.136Y-4.0148
X7.136Y-4.1148
X7.1841Y-4.685
X7.1919Y-2.0423
X7.1919Y-2.1423
X7.236Y-4.1148
X7.236Y-4.0148
X7.2841Y-4.685
X7.2919Y-2.0423
X7.2919Y-2.1423
X7.336Y-4.0148
X7.336Y-4.1148
X7.3919Y-2.0423
X7.3919Y-2.1423
X7.436Y-4.0148
X7.436Y-4.1148
X7.4409Y-4.4571
X7.4409Y-4.5571
X7.4409Y-4.6571
T5
X4.7268Y-4.064
X4.8827Y-4.064
X5.0386Y-4.064
X5.1945Y-4.064
M30
