%TF.GenerationSoftware,KiCad,Pcbnew,8.0.5*%
%TF.CreationDate,2024-12-31T14:00:23+11:00*%
%TF.ProjectId,Combined_Fabrication,436f6d62-696e-4656-945f-466162726963,rev?*%
%TF.SameCoordinates,Original*%
%TF.FileFunction,Profile,NP*%
%FSLAX46Y46*%
G04 Gerber Fmt 4.6, Leading zero omitted, Abs format (unit mm)*
G04 Created by KiCad (PCBNEW 8.0.5) date 2024-12-31 14:00:23*
%MOMM*%
%LPD*%
G01*
G04 APERTURE LIST*
%TA.AperFunction,Profile*%
%ADD10C,0.050000*%
%TD*%
G04 APERTURE END LIST*
D10*
X149400001Y-98600000D02*
X149400000Y-99600000D01*
X156599999Y-98600000D02*
X156600000Y-99599998D01*
X176400001Y-98600000D02*
X176400000Y-99600000D01*
X158600000Y-96599999D02*
X174400000Y-96599999D01*
X176400001Y-84400000D02*
X176400001Y-83200002D01*
X131600000Y-86400001D02*
X174400000Y-86400001D01*
X131600000Y-96599999D02*
X147400000Y-96599999D01*
X129600000Y-99599998D02*
X129599999Y-98600000D01*
X129600000Y-83200000D02*
X129599999Y-84400000D01*
X174400000Y-96599999D02*
G75*
G02*
X176400001Y-98600000I-1J-2000002D01*
G01*
X176400001Y-84400000D02*
G75*
G02*
X174400000Y-86400001I-2000002J1D01*
G01*
X156599999Y-98600000D02*
G75*
G02*
X158600000Y-96599999I2000002J-1D01*
G01*
X147400000Y-96599999D02*
G75*
G02*
X149400001Y-98600000I-1J-2000002D01*
G01*
X129599999Y-98600000D02*
G75*
G02*
X131600000Y-96599999I2000001J0D01*
G01*
X131600000Y-86400001D02*
G75*
G02*
X129599999Y-84400000I0J2000001D01*
G01*
X122400000Y-99600000D02*
X122400000Y-83200000D01*
X183600000Y-99599998D02*
X183600001Y-83200000D01*
X183800000Y-83000000D02*
X188600000Y-83000001D01*
X171399999Y-83000001D02*
X176200000Y-83000000D01*
X176200000Y-83000000D02*
G75*
G02*
X176400001Y-83200002I200001J-1D01*
G01*
X178400002Y-83000000D02*
G75*
G02*
X178000000Y-83000000I-200001J0D01*
G01*
X178000000Y-83000000D02*
G75*
G02*
X178400002Y-83000000I200001J0D01*
G01*
X183600001Y-83200000D02*
G75*
G02*
X183800000Y-83000000I-1J200000D01*
G01*
X181400001Y-83000000D02*
G75*
G02*
X181000001Y-83000000I-200000J0D01*
G01*
X181000001Y-83000000D02*
G75*
G02*
X181400001Y-83000000I200000J0D01*
G01*
X177200001Y-83000001D02*
G75*
G02*
X176800001Y-83000001I-200000J0D01*
G01*
X176800001Y-83000001D02*
G75*
G02*
X177200001Y-83000001I200000J0D01*
G01*
X182600001Y-83000000D02*
G75*
G02*
X182200001Y-83000000I-200000J0D01*
G01*
X182200001Y-83000000D02*
G75*
G02*
X182600001Y-83000000I200000J0D01*
G01*
X179600000Y-83000000D02*
G75*
G02*
X179200002Y-83000000I-199999J0D01*
G01*
X179200002Y-83000000D02*
G75*
G02*
X179600000Y-83000000I199999J0D01*
G01*
X183200001Y-83000000D02*
G75*
G02*
X182800001Y-83000000I-200000J0D01*
G01*
X182800001Y-83000000D02*
G75*
G02*
X183200001Y-83000000I200000J0D01*
G01*
X177800002Y-83000001D02*
G75*
G02*
X177400000Y-83000001I-200001J0D01*
G01*
X177400000Y-83000001D02*
G75*
G02*
X177800002Y-83000001I200001J0D01*
G01*
X179000000Y-83000000D02*
G75*
G02*
X178600002Y-83000000I-199999J0D01*
G01*
X178600002Y-83000000D02*
G75*
G02*
X179000000Y-83000000I199999J0D01*
G01*
X180200000Y-83000000D02*
G75*
G02*
X179800002Y-83000000I-199999J0D01*
G01*
X179800002Y-83000000D02*
G75*
G02*
X180200000Y-83000000I199999J0D01*
G01*
X180800001Y-83000000D02*
G75*
G02*
X180400001Y-83000000I-200000J0D01*
G01*
X180400001Y-83000000D02*
G75*
G02*
X180800001Y-83000000I200000J0D01*
G01*
X182000001Y-83000000D02*
G75*
G02*
X181600001Y-83000000I-200000J0D01*
G01*
X181600001Y-83000000D02*
G75*
G02*
X182000001Y-83000000I200000J0D01*
G01*
X183600000Y-100000000D02*
X189000000Y-100000000D01*
X171000000Y-99999999D02*
X176400000Y-100000000D01*
X183600000Y-100000000D02*
G75*
G02*
X183600000Y-99599998I0J200001D01*
G01*
X182000001Y-99800000D02*
G75*
G02*
X181599999Y-99800000I-200001J0D01*
G01*
X181599999Y-99800000D02*
G75*
G02*
X182000001Y-99800000I200001J0D01*
G01*
X176400000Y-99600000D02*
G75*
G02*
X176400000Y-100000000I0J-200000D01*
G01*
X179000000Y-99800000D02*
G75*
G02*
X178600000Y-99800000I-200000J0D01*
G01*
X178600000Y-99800000D02*
G75*
G02*
X179000000Y-99800000I200000J0D01*
G01*
X183200000Y-99799999D02*
G75*
G02*
X182800000Y-99799999I-200000J0D01*
G01*
X182800000Y-99799999D02*
G75*
G02*
X183200000Y-99799999I200000J0D01*
G01*
X177800000Y-99800000D02*
G75*
G02*
X177400000Y-99800000I-200000J0D01*
G01*
X177400000Y-99800000D02*
G75*
G02*
X177800000Y-99800000I200000J0D01*
G01*
X180799999Y-99800000D02*
G75*
G02*
X180400001Y-99800000I-199999J0D01*
G01*
X180400001Y-99800000D02*
G75*
G02*
X180799999Y-99800000I199999J0D01*
G01*
X177200000Y-99800000D02*
G75*
G02*
X176800000Y-99800000I-200000J0D01*
G01*
X176800000Y-99800000D02*
G75*
G02*
X177200000Y-99800000I200000J0D01*
G01*
X182600001Y-99799999D02*
G75*
G02*
X182199999Y-99799999I-200001J0D01*
G01*
X182199999Y-99799999D02*
G75*
G02*
X182600001Y-99799999I200001J0D01*
G01*
X181399999Y-99800000D02*
G75*
G02*
X181000001Y-99800000I-199999J0D01*
G01*
X181000001Y-99800000D02*
G75*
G02*
X181399999Y-99800000I199999J0D01*
G01*
X180199999Y-99800000D02*
G75*
G02*
X179800001Y-99800000I-199999J0D01*
G01*
X179800001Y-99800000D02*
G75*
G02*
X180199999Y-99800000I199999J0D01*
G01*
X179600000Y-99800000D02*
G75*
G02*
X179200000Y-99800000I-200000J0D01*
G01*
X179200000Y-99800000D02*
G75*
G02*
X179600000Y-99800000I200000J0D01*
G01*
X178400000Y-99800000D02*
G75*
G02*
X178000000Y-99800000I-200000J0D01*
G01*
X178000000Y-99800000D02*
G75*
G02*
X178400000Y-99800000I200000J0D01*
G01*
X161750000Y-100000000D02*
X156600000Y-100000000D01*
X144250000Y-100000000D02*
X149400000Y-100000000D01*
X156600000Y-100000000D02*
G75*
G02*
X156600000Y-99599998I0J200001D01*
G01*
X155000001Y-99800000D02*
G75*
G02*
X154599999Y-99800000I-200001J0D01*
G01*
X154599999Y-99800000D02*
G75*
G02*
X155000001Y-99800000I200001J0D01*
G01*
X149400000Y-99600000D02*
G75*
G02*
X149400000Y-100000000I0J-200000D01*
G01*
X152000000Y-99800000D02*
G75*
G02*
X151600000Y-99800000I-200000J0D01*
G01*
X151600000Y-99800000D02*
G75*
G02*
X152000000Y-99800000I200000J0D01*
G01*
X156200000Y-99799999D02*
G75*
G02*
X155800000Y-99799999I-200000J0D01*
G01*
X155800000Y-99799999D02*
G75*
G02*
X156200000Y-99799999I200000J0D01*
G01*
X150800000Y-99800000D02*
G75*
G02*
X150400000Y-99800000I-200000J0D01*
G01*
X150400000Y-99800000D02*
G75*
G02*
X150800000Y-99800000I200000J0D01*
G01*
X153799999Y-99800000D02*
G75*
G02*
X153400001Y-99800000I-199999J0D01*
G01*
X153400001Y-99800000D02*
G75*
G02*
X153799999Y-99800000I199999J0D01*
G01*
X150200000Y-99800000D02*
G75*
G02*
X149800000Y-99800000I-200000J0D01*
G01*
X149800000Y-99800000D02*
G75*
G02*
X150200000Y-99800000I200000J0D01*
G01*
X155600001Y-99799999D02*
G75*
G02*
X155199999Y-99799999I-200001J0D01*
G01*
X155199999Y-99799999D02*
G75*
G02*
X155600001Y-99799999I200001J0D01*
G01*
X154399999Y-99800000D02*
G75*
G02*
X154000001Y-99800000I-199999J0D01*
G01*
X154000001Y-99800000D02*
G75*
G02*
X154399999Y-99800000I199999J0D01*
G01*
X153199999Y-99800000D02*
G75*
G02*
X152800001Y-99800000I-199999J0D01*
G01*
X152800001Y-99800000D02*
G75*
G02*
X153199999Y-99800000I199999J0D01*
G01*
X152600000Y-99800000D02*
G75*
G02*
X152200000Y-99800000I-200000J0D01*
G01*
X152200000Y-99800000D02*
G75*
G02*
X152600000Y-99800000I200000J0D01*
G01*
X151400000Y-99800000D02*
G75*
G02*
X151000000Y-99800000I-200000J0D01*
G01*
X151000000Y-99800000D02*
G75*
G02*
X151400000Y-99800000I200000J0D01*
G01*
X129600000Y-100000000D02*
X135500000Y-100000000D01*
X116500000Y-100000000D02*
X122400000Y-100000000D01*
X129600000Y-100000000D02*
G75*
G02*
X129600000Y-99599998I0J200001D01*
G01*
X122400000Y-99600000D02*
G75*
G02*
X122400000Y-100000000I0J-200000D01*
G01*
X124400000Y-99800000D02*
G75*
G02*
X124000000Y-99800000I-200000J0D01*
G01*
X124000000Y-99800000D02*
G75*
G02*
X124400000Y-99800000I200000J0D01*
G01*
X129200000Y-99799999D02*
G75*
G02*
X128800000Y-99799999I-200000J0D01*
G01*
X128800000Y-99799999D02*
G75*
G02*
X129200000Y-99799999I200000J0D01*
G01*
X123800000Y-99800000D02*
G75*
G02*
X123400000Y-99800000I-200000J0D01*
G01*
X123400000Y-99800000D02*
G75*
G02*
X123800000Y-99800000I200000J0D01*
G01*
X126799999Y-99800000D02*
G75*
G02*
X126400001Y-99800000I-199999J0D01*
G01*
X126400001Y-99800000D02*
G75*
G02*
X126799999Y-99800000I199999J0D01*
G01*
X123200000Y-99800000D02*
G75*
G02*
X122800000Y-99800000I-200000J0D01*
G01*
X122800000Y-99800000D02*
G75*
G02*
X123200000Y-99800000I200000J0D01*
G01*
X126199999Y-99800000D02*
G75*
G02*
X125800001Y-99800000I-199999J0D01*
G01*
X125800001Y-99800000D02*
G75*
G02*
X126199999Y-99800000I199999J0D01*
G01*
X127399999Y-99800000D02*
G75*
G02*
X127000001Y-99800000I-199999J0D01*
G01*
X127000001Y-99800000D02*
G75*
G02*
X127399999Y-99800000I199999J0D01*
G01*
X128000001Y-99800000D02*
G75*
G02*
X127599999Y-99800000I-200001J0D01*
G01*
X127599999Y-99800000D02*
G75*
G02*
X128000001Y-99800000I200001J0D01*
G01*
X125000000Y-99800000D02*
G75*
G02*
X124600000Y-99800000I-200000J0D01*
G01*
X124600000Y-99800000D02*
G75*
G02*
X125000000Y-99800000I200000J0D01*
G01*
X128600001Y-99799999D02*
G75*
G02*
X128199999Y-99799999I-200001J0D01*
G01*
X128199999Y-99799999D02*
G75*
G02*
X128600001Y-99799999I200001J0D01*
G01*
X125600000Y-99800000D02*
G75*
G02*
X125200000Y-99800000I-200000J0D01*
G01*
X125200000Y-99800000D02*
G75*
G02*
X125600000Y-99800000I200000J0D01*
G01*
X129800000Y-83000000D02*
X132500000Y-83000000D01*
X119500000Y-83000000D02*
X122200000Y-83000000D01*
X129600000Y-83200000D02*
G75*
G02*
X129800000Y-83000000I0J200000D01*
G01*
X122200000Y-83000000D02*
G75*
G02*
X122400000Y-83200000I200000J0D01*
G01*
X126800000Y-83000000D02*
G75*
G02*
X126400000Y-83000000I-200000J0D01*
G01*
X126400000Y-83000000D02*
G75*
G02*
X126800000Y-83000000I200000J0D01*
G01*
X126199999Y-83000000D02*
G75*
G02*
X125800001Y-83000000I-199999J0D01*
G01*
X125800001Y-83000000D02*
G75*
G02*
X126199999Y-83000000I199999J0D01*
G01*
X125599999Y-83000000D02*
G75*
G02*
X125200001Y-83000000I-199999J0D01*
G01*
X125200001Y-83000000D02*
G75*
G02*
X125599999Y-83000000I199999J0D01*
G01*
X124999999Y-83000000D02*
G75*
G02*
X124600001Y-83000000I-199999J0D01*
G01*
X124600001Y-83000000D02*
G75*
G02*
X124999999Y-83000000I199999J0D01*
G01*
X124400001Y-83000000D02*
G75*
G02*
X123999999Y-83000000I-200001J0D01*
G01*
X123999999Y-83000000D02*
G75*
G02*
X124400001Y-83000000I200001J0D01*
G01*
X123800001Y-83000000D02*
G75*
G02*
X123399999Y-83000000I-200001J0D01*
G01*
X123399999Y-83000000D02*
G75*
G02*
X123800001Y-83000000I200001J0D01*
G01*
X123200000Y-83000000D02*
G75*
G02*
X122800000Y-83000000I-200000J0D01*
G01*
X122800000Y-83000000D02*
G75*
G02*
X123200000Y-83000000I200000J0D01*
G01*
X168500000Y-79500001D02*
G75*
G02*
X165500000Y-79500001I-1500000J0D01*
G01*
X165500000Y-79500001D02*
G75*
G02*
X168500000Y-79500001I1500000J0D01*
G01*
X183599999Y-45000001D02*
X183599999Y-50000001D01*
X195499999Y-55000002D02*
G75*
G02*
X194500000Y-56000002I-1000000J0D01*
G01*
X171399999Y-83000001D02*
G75*
G02*
X170400000Y-82000002I1J1000000D01*
G01*
X170399998Y-77000004D02*
X170399999Y-56000001D01*
X194500000Y-56000001D02*
X189599999Y-56000001D01*
X184599999Y-44000000D02*
X187600000Y-44000002D01*
X194500000Y-51000001D02*
G75*
G02*
X195500000Y-52000001I0J-1000000D01*
G01*
X195499998Y-81000000D02*
G75*
G02*
X194499999Y-82000001I-999998J-3D01*
G01*
X187600000Y-44000002D02*
G75*
G02*
X188599998Y-45000001I-1J-999999D01*
G01*
X164499999Y-81000000D02*
X164499998Y-78000002D01*
X189599999Y-82000002D02*
G75*
G02*
X188600000Y-83000001I-1000000J1D01*
G01*
X188599999Y-45000001D02*
X188599999Y-50000001D01*
X194499999Y-82000001D02*
X189599999Y-82000002D01*
X194499999Y-53500002D02*
G75*
G02*
X191499997Y-53500002I-1500001J0D01*
G01*
X191499997Y-53500002D02*
G75*
G02*
X194499999Y-53500002I1500001J0D01*
G01*
X164499998Y-55000002D02*
X164499999Y-52000001D01*
X194500000Y-51000001D02*
X189600000Y-51000002D01*
X165500000Y-77000001D02*
X170399998Y-77000004D01*
X165499999Y-56000001D02*
X170399999Y-56000001D01*
X170399998Y-51000003D02*
G75*
G02*
X171400000Y-50000000I1000001J2D01*
G01*
X164499998Y-78000002D02*
G75*
G02*
X165500000Y-77000001I1000002J-1D01*
G01*
X172399997Y-44000002D02*
X175400000Y-44000001D01*
X189599999Y-56000001D02*
X189599998Y-77000003D01*
X164499999Y-52000001D02*
G75*
G02*
X165499999Y-51000004I1000000J-3D01*
G01*
X171400000Y-45000001D02*
G75*
G02*
X172399997Y-44000002I999999J0D01*
G01*
X194499999Y-77000001D02*
X189599998Y-77000003D01*
X165499999Y-56000001D02*
G75*
G02*
X164500001Y-55000002I1J999999D01*
G01*
X187600001Y-46500003D02*
G75*
G02*
X184599999Y-46500003I-1500001J0D01*
G01*
X184599999Y-46500003D02*
G75*
G02*
X187600001Y-46500003I1500001J0D01*
G01*
X165500000Y-82000001D02*
X170399999Y-82000002D01*
X175399997Y-46500002D02*
G75*
G02*
X172399999Y-46500002I-1499999J0D01*
G01*
X172399999Y-46500002D02*
G75*
G02*
X175399997Y-46500002I1499999J0D01*
G01*
X176400000Y-45000001D02*
X176400000Y-50000001D01*
X171400000Y-45000001D02*
X171400000Y-50000001D01*
X194499999Y-79500003D02*
G75*
G02*
X191499997Y-79500003I-1500001J0D01*
G01*
X191499997Y-79500003D02*
G75*
G02*
X194499999Y-79500003I1500001J0D01*
G01*
X194499999Y-77000001D02*
G75*
G02*
X195500000Y-78000002I0J-1000001D01*
G01*
X195500000Y-52000001D02*
X195499999Y-55000002D01*
X195499999Y-78000002D02*
X195499998Y-81000000D01*
X175400000Y-44000001D02*
G75*
G02*
X176400000Y-45000001I0J-1000000D01*
G01*
X176400000Y-50000001D02*
X183599999Y-50000001D01*
X165500000Y-82000001D02*
G75*
G02*
X164499999Y-81000000I-2J999999D01*
G01*
X168499999Y-53500003D02*
G75*
G02*
X165500001Y-53500003I-1499999J0D01*
G01*
X165500001Y-53500003D02*
G75*
G02*
X168499999Y-53500003I1499999J0D01*
G01*
X183599999Y-45000001D02*
G75*
G02*
X184599999Y-44000004I1000000J-3D01*
G01*
X188599999Y-50000001D02*
G75*
G02*
X189600000Y-51000002I1J-1000000D01*
G01*
X165499999Y-51000001D02*
X170399998Y-51000003D01*
X189000000Y-100000000D02*
G75*
G02*
X191000001Y-102000000I0J-2000001D01*
G01*
X168999999Y-119500000D02*
X168999999Y-102000000D01*
X191000001Y-119500000D02*
G75*
G02*
X189000001Y-121500001I-2000001J0D01*
G01*
X168999999Y-102000000D02*
G75*
G02*
X171000000Y-100000000I2000001J-1D01*
G01*
X170999999Y-121500001D02*
G75*
G02*
X168999999Y-119500000I1J2000001D01*
G01*
X189000001Y-121500001D02*
X170999999Y-121500001D01*
X191000000Y-102000000D02*
X191000001Y-119500000D01*
X116500000Y-126500001D02*
X135499999Y-126500002D01*
X114499999Y-102000001D02*
G75*
G02*
X116500000Y-100000001I2000001J-1D01*
G01*
X135500000Y-100000000D02*
G75*
G02*
X137500002Y-102000001I0J-2000002D01*
G01*
X137500001Y-124500001D02*
X137500001Y-102000001D01*
X114500000Y-124500001D02*
X114499999Y-102000001D01*
X116500000Y-126500001D02*
G75*
G02*
X114500000Y-124500001I0J2000000D01*
G01*
X137500001Y-124500001D02*
G75*
G02*
X135499999Y-126500002I-2000001J0D01*
G01*
X105500000Y-77000001D02*
G75*
G02*
X103499998Y-75000000I-1J2000001D01*
G01*
X105500000Y-77000001D02*
X116500000Y-76999999D01*
X103499999Y-75000000D02*
X103500000Y-58000000D01*
X135500000Y-77000000D02*
X146499999Y-77000000D01*
X105499999Y-56000000D02*
X146499999Y-56000002D01*
X103500000Y-58000000D02*
G75*
G02*
X105499999Y-55999999I2000000J1D01*
G01*
X119500000Y-83000000D02*
G75*
G02*
X118000000Y-81500000I0J1500000D01*
G01*
X134000000Y-81500000D02*
G75*
G02*
X132500000Y-83000000I-1499999J-1D01*
G01*
X132000000Y-80500000D02*
G75*
G02*
X130000000Y-80500000I-1000000J0D01*
G01*
X130000000Y-80500000D02*
G75*
G02*
X132000000Y-80500000I1000000J0D01*
G01*
X148499999Y-58000002D02*
X148500001Y-74999999D01*
X116500000Y-76999999D02*
G75*
G02*
X118000001Y-78500000I0J-1500001D01*
G01*
X148500001Y-74999999D02*
G75*
G02*
X146499999Y-77000000I-2000001J0D01*
G01*
X118000000Y-78500000D02*
X118000000Y-81500000D01*
X146499999Y-56000002D02*
G75*
G02*
X148499997Y-58000002I1J-1999997D01*
G01*
X134000000Y-78500000D02*
G75*
G02*
X135500000Y-77000000I1500000J0D01*
G01*
X122000000Y-80500000D02*
G75*
G02*
X120000000Y-80500000I-1000000J0D01*
G01*
X120000000Y-80500000D02*
G75*
G02*
X122000000Y-80500000I1000000J0D01*
G01*
X134000000Y-81500000D02*
X134000000Y-78500000D01*
X141750000Y-120750000D02*
X141750000Y-102500000D01*
X164250000Y-102500000D02*
X164250000Y-120750000D01*
X164250000Y-120750000D02*
G75*
G02*
X161750000Y-123250000I-2500000J0D01*
G01*
X161750000Y-123250000D02*
X144250000Y-123250000D01*
X144250000Y-123250000D02*
G75*
G02*
X141750000Y-120750000I0J2500000D01*
G01*
X161750000Y-100000000D02*
G75*
G02*
X164250000Y-102500000I0J-2500000D01*
G01*
X141750000Y-102500000D02*
G75*
G02*
X144250000Y-100000000I2500000J0D01*
G01*
X129200000Y-83000000D02*
G75*
G02*
X128800000Y-83000000I-200000J0D01*
G01*
X128800000Y-83000000D02*
G75*
G02*
X129200000Y-83000000I200000J0D01*
G01*
X127400000Y-83000000D02*
G75*
G02*
X127000000Y-83000000I-200000J0D01*
G01*
X127000000Y-83000000D02*
G75*
G02*
X127400000Y-83000000I200000J0D01*
G01*
X128600000Y-83000000D02*
G75*
G02*
X128200000Y-83000000I-200000J0D01*
G01*
X128200000Y-83000000D02*
G75*
G02*
X128600000Y-83000000I200000J0D01*
G01*
X128000000Y-83000000D02*
G75*
G02*
X127600000Y-83000000I-200000J0D01*
G01*
X127600000Y-83000000D02*
G75*
G02*
X128000000Y-83000000I200000J0D01*
G01*
M02*
